<svg width="708" height="520" viewBox="0 0 708 520" fill="none" xmlns="http://www.w3.org/2000/svg">
<g clip-path="url(#clip0_685_26588)">
<path opacity="0.78" d="M652 297.352C652 383.188 615.604 460.533 557.4 514.823C555.518 516.566 553.619 518.292 551.702 520H157.298C155.381 518.292 153.482 516.566 151.6 514.823C93.3965 460.533 57 383.188 57 297.352C57 133.136 190.206 0 354.509 0C518.811 0 652 133.136 652 297.352Z" fill="#EFF4FF"/>
<path d="M609.543 520H82.6053C79.2557 520 79.5147 514.823 82.8298 514.823H609.785C613.117 514.823 612.875 520 609.543 520Z" fill="#27293B"/>
<path d="M140.688 126.596L281.336 157.02L438.904 29.699L606.384 213.208L544.399 366.501L530.155 266.773L220.905 209.584L139.117 298.923L140.688 126.596Z" stroke="#F2DBB5" stroke-width="0.5" stroke-miterlimit="10"/>
<path d="M220.905 209.584L281.336 157.02L493.085 125.267L530.155 266.773L606.384 213.208" stroke="#F2DBB5" stroke-width="0.5" stroke-miterlimit="10"/>
<path d="M281.336 157.02L276.121 58.3108L438.904 29.699" stroke="#F2DBB5" stroke-width="0.5" stroke-miterlimit="10"/>
<path d="M493.085 125.267L220.905 209.584L140.688 126.596" stroke="#F2DBB5" stroke-width="0.5" stroke-miterlimit="10"/>
<g clip-path="url(#clip1_685_26588)">
<path d="M68.7567 292.35C68.7567 292.35 60.7536 291.774 61.4912 309.729C62.2289 327.684 64.0579 337.258 64.0579 337.258C64.0579 337.258 63.8255 341.241 60.7435 340.463C57.6614 339.685 51.8611 335.802 49.0014 338.704C46.0305 341.707 47.0916 346.317 51.0224 351.746C54.9634 357.175 63.1585 369.377 63.8962 370.489C64.6238 371.571 64.9067 373.613 62.724 373.421C60.5413 373.229 45.788 368.225 43.8377 375.372C41.8875 382.52 55.3474 395.834 56.7823 397.321C58.2273 398.807 58.3081 399.737 57.722 400.637C57.136 401.536 52.3361 399.383 48.0819 398.139C43.8276 396.886 38.6741 396.188 37.896 400.404C37.1179 404.62 43.0395 416.964 65.2402 429.925L75.9212 435.263L86.0262 428.813C106.822 413.688 111.481 400.819 110.288 396.704C109.086 392.589 104.033 393.802 99.9307 395.47C95.8281 397.139 91.2606 399.757 90.5937 398.928C89.9166 398.089 89.9065 397.149 91.1899 395.531C92.4732 393.914 104.539 379.315 101.881 372.4C99.2234 365.485 85.046 371.935 82.8937 372.349C80.7413 372.764 80.8221 370.712 81.4385 369.549C82.065 368.376 88.9971 355.405 92.3722 349.612C95.7472 343.819 96.3434 339.128 93.0795 336.439C89.9369 333.841 84.561 338.279 81.5699 339.361C78.5788 340.443 77.9523 336.51 77.9523 336.51C77.9523 336.51 78.8213 326.805 77.7603 308.87C76.6993 290.925 68.6052 292.371 68.6052 292.371" fill="#EBEBEB"/>
<path d="M69.3832 308.435C69.3832 308.435 69.4035 308.566 69.4237 308.809C69.4439 309.072 69.4742 309.436 69.5045 309.911C69.5752 310.902 69.6662 312.327 69.7874 314.157C70.03 317.837 70.3432 323.175 70.707 329.767C71.4346 342.95 72.2935 361.168 73.1726 381.286C74.0518 401.415 74.8602 419.633 75.517 432.816C75.8505 439.398 76.1233 444.725 76.3153 448.426C76.4062 450.256 76.477 451.681 76.5275 452.672C76.5477 453.147 76.5578 453.511 76.5679 453.774C76.5679 454.027 76.5679 454.148 76.5679 454.148C76.5679 454.148 76.5477 454.016 76.5275 453.774C76.5073 453.511 76.477 453.147 76.4467 452.672C76.3759 451.681 76.285 450.256 76.1637 448.436C75.9212 444.756 75.6079 439.418 75.2442 432.826C74.5166 419.643 73.6577 401.425 72.7785 381.297C71.8994 361.178 71.091 342.96 70.4342 329.777C70.1007 323.195 69.8279 317.868 69.6359 314.167C69.5449 312.337 69.4742 310.912 69.4237 309.921C69.4035 309.446 69.3933 309.082 69.3832 308.819C69.3832 308.566 69.3832 308.445 69.3832 308.445V308.435Z" fill="#E0E0E0"/>
<path d="M56.8833 344.446C56.8833 344.446 57.136 344.628 57.5503 345.002C57.9646 345.376 58.5405 345.932 59.2479 346.63C60.6525 348.025 62.5522 350.007 64.6036 352.231C66.6145 354.425 68.4233 356.416 69.8279 357.953C70.4544 358.63 70.9798 359.207 71.4143 359.682C71.7882 360.086 71.9903 360.319 71.9701 360.339C71.9499 360.359 71.7175 360.167 71.3032 359.793C70.8889 359.419 70.3129 358.863 69.6157 358.155C68.2212 356.74 66.3517 354.738 64.3004 352.514C62.2794 350.33 60.4504 348.359 59.0357 346.832C58.4092 346.155 57.8736 345.589 57.4391 345.114C57.0652 344.699 56.8631 344.467 56.8833 344.446Z" fill="#E0E0E0"/>
<path d="M73.0312 359.985C72.9503 359.904 76.861 355.81 81.7518 350.846C86.6527 345.872 90.6846 341.909 90.7655 341.989C90.8463 342.07 86.9458 346.165 82.0449 351.129C77.1439 356.093 73.112 360.056 73.0312 359.985Z" fill="#E0E0E0"/>
<path d="M72.9907 390.941C72.9907 390.941 73.2434 390.749 73.7385 390.466C74.3044 390.143 75.0016 389.758 75.8303 389.293C77.5885 388.303 80.0238 386.928 82.6511 385.31C85.2784 383.703 87.6127 382.166 89.2901 381.034C90.0783 380.508 90.7352 380.063 91.2808 379.699C91.7558 379.386 92.0185 379.224 92.0387 379.254C92.0589 379.285 91.8164 379.487 91.3718 379.831C90.9272 380.184 90.2703 380.68 89.4518 381.266C87.8148 382.459 85.5008 384.036 82.8532 385.654C80.2158 387.271 77.7603 388.616 75.9616 389.546C75.0623 390.011 74.3246 390.365 73.8092 390.608C73.2939 390.85 73.0008 390.961 72.9907 390.941Z" fill="#E0E0E0"/>
<path d="M55.2968 380.114C55.2968 380.114 55.5697 380.215 56.0345 380.457C56.4993 380.7 57.1562 381.074 57.9747 381.529C59.6016 382.449 61.8348 383.753 64.2802 385.209C66.7357 386.665 68.9386 388.01 70.5251 389C71.3234 389.496 71.96 389.9 72.3945 390.193C72.8291 390.486 73.0615 390.648 73.0514 390.679C73.0413 390.699 72.7785 390.577 72.3137 390.335C71.8489 390.092 71.192 389.718 70.3735 389.263C68.7466 388.343 66.5134 387.039 64.068 385.583C61.6125 384.127 59.4096 382.783 57.8231 381.792C57.0248 381.297 56.3882 380.892 55.9537 380.599C55.5192 380.306 55.2867 380.144 55.2968 380.114Z" fill="#E0E0E0"/>
<path d="M51.7803 407.44C51.7803 407.44 52.1239 407.582 52.7201 407.895C53.3769 408.259 54.2156 408.714 55.2059 409.27C57.2976 410.443 60.1675 412.091 63.3303 413.931C66.4932 415.771 69.3428 417.459 71.3941 418.693C72.3642 419.289 73.1726 419.785 73.8193 420.179C74.3852 420.533 74.6884 420.745 74.6783 420.775C74.6682 420.795 74.3347 420.634 73.7385 420.32C73.0817 419.956 72.243 419.501 71.2527 418.945C69.1609 417.773 66.2911 416.125 63.1282 414.285C59.9654 412.445 57.1157 410.756 55.0644 409.523C54.0943 408.927 53.2859 408.431 52.6392 408.037C52.0733 407.683 51.7702 407.471 51.7803 407.44Z" fill="#E0E0E0"/>
<path d="M74.2134 420.29C74.2134 420.29 74.5267 420.047 75.1431 419.663C75.8201 419.249 76.6993 418.723 77.7401 418.086C79.9329 416.752 82.9543 414.891 86.2283 412.758C89.5125 410.625 92.4328 408.613 94.5346 407.147C95.535 406.45 96.3738 405.863 97.0306 405.408C97.6268 405.004 97.9603 404.792 97.9704 404.812C97.9906 404.832 97.6874 405.095 97.1215 405.54C96.5557 405.985 95.7371 406.622 94.6963 407.38C92.6349 408.906 89.7348 410.959 86.4405 413.102C83.1564 415.245 80.1047 417.065 77.8715 418.339C76.7498 418.976 75.8404 419.471 75.2037 419.805C74.5671 420.138 74.2134 420.31 74.1932 420.29H74.2134Z" fill="#E0E0E0"/>
<path d="M90.2703 438.73H60.7232L70.3634 511.764H80.6301L90.2703 438.73Z" fill="#E0E0E0"/>
<path d="M62.2592 447.708C62.2592 447.708 62.2895 447.809 62.4209 447.971C62.5421 448.123 62.7745 448.325 63.1383 448.476C63.8356 448.78 65.0684 448.81 66.2608 448.092C67.4532 447.435 68.494 446.141 70.0906 445.565C71.6771 444.958 73.6374 445.069 75.5271 445.676C77.4369 446.262 79.0841 447.233 80.5897 448.133C82.0954 449.022 83.4696 449.821 84.7024 450.337C85.9252 450.872 86.9963 451.115 87.734 451.216C88.1078 451.267 88.3908 451.277 88.5929 451.277C88.7849 451.277 88.896 451.277 88.896 451.257C88.9162 451.156 87.2287 451.176 84.8439 450.033C83.6515 449.487 82.3076 448.669 80.8221 447.759C79.3367 446.839 77.639 445.838 75.6787 445.231C73.7385 444.604 71.6468 444.493 69.939 445.171C69.0902 445.494 68.3727 446 67.7765 446.505C67.1702 447 66.6347 447.476 66.089 447.819C65.0078 448.517 63.876 448.547 63.2091 448.315C62.532 448.082 62.3097 447.678 62.2693 447.718L62.2592 447.708Z" fill="#F5F5F5"/>
<path d="M63.3303 461.164C63.3303 461.164 63.5627 460.861 64.0276 460.375C64.5025 459.91 65.2705 459.294 66.3922 458.879C67.5037 458.455 68.9285 458.202 70.5049 458.262C72.0914 458.313 73.8092 458.667 75.6484 458.96C77.4774 459.263 79.2963 459.405 80.9131 459.182C82.5299 458.97 83.9345 458.505 85.0561 458C86.1778 457.484 87.0064 456.928 87.542 456.513C88.0876 456.099 88.3504 455.826 88.3302 455.806C88.2796 455.725 87.1378 456.746 84.9147 457.686C83.8031 458.141 82.4288 458.566 80.8524 458.738C79.2761 458.93 77.538 458.788 75.7191 458.485C73.9002 458.192 72.152 457.848 70.515 457.818C68.878 457.777 67.4027 458.081 66.2608 458.566C65.1088 459.041 64.3307 459.728 63.8861 460.254C63.6739 460.527 63.5223 460.749 63.4415 460.911C63.3505 461.073 63.3202 461.154 63.3303 461.164Z" fill="#F5F5F5"/>
<path d="M86.9256 468.362C86.9256 468.362 86.6628 468.16 86.107 467.938C85.5614 467.715 84.7227 467.493 83.6616 467.412C82.6006 467.331 81.3375 467.392 79.9632 467.624C78.5889 467.847 77.1035 468.231 75.5574 468.554C74.0113 468.878 72.5158 469.1 71.1617 469.05C69.8077 468.999 68.6052 468.706 67.6654 468.291C65.7656 467.452 65.0886 466.239 65.0179 466.32C64.9977 466.33 65.129 466.633 65.513 467.088C65.897 467.543 66.5538 468.12 67.5239 468.595C68.4839 469.07 69.7268 469.414 71.1415 469.484C72.5562 469.565 74.0922 469.343 75.6585 469.019C77.2247 468.686 78.69 468.291 80.044 468.049C81.388 467.806 82.6208 467.705 83.6515 467.735C85.7231 467.806 86.9053 468.433 86.9357 468.342L86.9256 468.362Z" fill="#F5F5F5"/>
<path d="M65.9475 478.492C65.9576 478.573 66.9985 477.835 68.8174 478.199C69.7066 478.361 70.6969 478.806 71.8185 479.321C72.9301 479.837 74.2741 480.282 75.7191 480.393C78.6192 480.676 81.2061 479.736 82.7825 478.755C83.5909 478.27 84.1568 477.754 84.5408 477.4C84.9046 477.016 85.0864 476.794 85.0561 476.774C84.9955 476.703 84.2174 477.572 82.6107 478.462C81.0242 479.341 78.5384 480.181 75.7595 479.918C72.9604 479.756 70.8182 478.088 68.878 477.865C67.9281 477.724 67.1399 477.865 66.6448 478.058C66.1496 478.25 65.9374 478.472 65.9475 478.492Z" fill="#F5F5F5"/>
<path d="M67.5947 492.515C67.5947 492.565 68.5849 492.565 70.0603 492.029C71.5457 491.534 73.3848 490.392 75.5271 489.542C76.6083 489.128 77.6795 488.875 78.6698 488.885C79.6499 488.885 80.5291 489.128 81.196 489.462C82.5501 490.139 82.9442 491.099 83.025 491.039C83.0452 491.039 82.9846 490.786 82.7421 490.412C82.4996 490.038 82.0549 489.553 81.3577 489.158C80.6706 488.764 79.7409 488.471 78.6799 488.44C77.6188 488.41 76.477 488.663 75.3654 489.087C73.1423 489.977 71.3638 491.15 69.939 491.706C68.5344 492.313 67.5845 492.434 67.6048 492.515H67.5947Z" fill="#F5F5F5"/>
<path d="M69.0397 499.036C69.0195 499.096 69.7268 499.349 70.9091 499.642C72.0914 499.935 73.7385 500.249 75.5877 500.431C77.4369 500.613 79.1144 500.623 80.327 500.572C81.5396 500.512 82.2874 500.4 82.2772 500.34C82.2772 500.198 79.2862 500.319 75.6281 499.956C71.9701 499.602 69.07 498.894 69.0296 499.036H69.0397Z" fill="#F5F5F5"/>
<path d="M600.837 374.563H414.45V460.568H600.837V374.563Z" fill="#F5F5F5"/>
<path d="M596.401 456.503H418.714V379.083H596.401V456.503ZM419.876 455.341H595.238V380.235H419.876V455.341Z" fill="#E0E0E0"/>
<path d="M646.37 374.563H600.837V460.568H646.37V374.563Z" fill="#E0E0E0"/>
<path d="M419.3 403.043H595.825C596.128 403.043 596.128 402.578 595.825 402.578H419.3C418.997 402.578 418.997 403.043 419.3 403.043Z" fill="#E0E0E0"/>
<path d="M508.133 402.81C508.659 395.177 508.608 387.089 508.194 379.446C508.174 379.143 507.739 379.143 507.719 379.446C507.305 387.089 507.254 395.177 507.78 402.81C507.8 403.043 508.123 403.043 508.133 402.81Z" fill="#E0E0E0"/>
<path d="M555.647 391.133C555.647 392.458 554.566 393.54 553.242 393.54C551.918 393.54 550.837 392.458 550.837 391.133C550.837 389.809 551.918 388.727 553.242 388.727C554.566 388.727 555.647 389.809 555.647 391.133Z" fill="#E0E0E0"/>
<path d="M463.004 391.133C463.004 392.458 461.923 393.54 460.599 393.54C459.275 393.54 458.194 392.458 458.194 391.133C458.194 389.809 459.275 388.727 460.599 388.727C461.923 388.727 463.004 389.809 463.004 391.133Z" fill="#E0E0E0"/>
<path d="M509.962 417.793C509.962 419.117 508.881 420.199 507.557 420.199C506.233 420.199 505.152 419.117 505.152 417.793C505.152 416.469 506.233 415.387 507.557 415.387C508.881 415.387 509.962 416.469 509.962 417.793Z" fill="#E0E0E0"/>
<path d="M436.731 460.557L427.141 514.554H432.538L450.231 460.557H436.731Z" fill="#E0E0E0"/>
<path d="M587.65 460.557L595.673 514.645H590.277L574.159 460.557H587.65Z" fill="#E0E0E0"/>
<path d="M623.684 460.557L632.779 514.645H627.372L610.184 460.557H623.684Z" fill="#E0E0E0"/>
<path d="M509.801 442.137C509.801 443.462 508.719 444.543 507.396 444.543C506.072 444.543 504.991 443.462 504.991 442.137C504.991 440.813 506.072 439.731 507.396 439.731C508.719 439.731 509.801 440.813 509.801 442.137Z" fill="#E0E0E0"/>
<path d="M419.3 429.672H595.825C596.128 429.672 596.128 429.207 595.825 429.207H419.3C418.997 429.207 418.997 429.672 419.3 429.672Z" fill="#E0E0E0"/>
<path d="M258.489 481.505V514.2H306.275H358.973V481.505H258.489Z" fill="#F5F5F5"/>
<path d="M254.265 472.366V481.505H362.489V472.366H306.275H254.265Z" fill="#E0E0E0"/>
<path d="M308.377 514.2H358.973V481.505H362.49V472.366H306.275V480.656L308.377 514.2Z" fill="#E0E0E0"/>
<path d="M292.927 486.772H272.545V491.696H292.927V486.772Z" fill="#E0E0E0"/>
<path d="M296.089 497.853H269.917V508.245H296.089V497.853Z" fill="white"/>
<path d="M273.949 439.711V472.406H321.736H374.434V439.711H273.949Z" fill="#F5F5F5"/>
<path d="M269.725 430.572V439.711H377.95V430.572H321.736H269.725Z" fill="#E0E0E0"/>
<path d="M323.838 472.406H374.434V439.711H377.95V430.572H321.736V438.872L323.838 472.406Z" fill="#E0E0E0"/>
<path d="M308.377 444.988H287.995V449.912H308.377V444.988Z" fill="#E0E0E0"/>
<path d="M311.55 456.059H285.378V466.451H311.55V456.059Z" fill="white"/>
<path d="M577.555 311.417C579.384 310.315 581.324 309.476 583.335 308.91L584.527 303.188L594.187 303.016L595.582 308.688C597.603 309.183 599.584 309.951 601.443 310.993L606.324 307.788L613.276 314.501L610.244 319.495C611.346 321.325 612.185 323.266 612.75 325.278L618.47 326.471L618.642 336.136L612.973 337.531C612.478 339.553 611.71 341.535 610.669 343.395L613.872 348.278L607.162 355.233L602.17 352.2C600.341 353.302 598.401 354.141 596.39 354.708L595.198 360.43L585.538 360.602L584.143 354.93C582.122 354.435 580.142 353.666 578.282 352.625L573.402 355.83L566.449 349.117L569.481 344.123C568.379 342.293 567.541 340.352 566.975 338.34L561.255 337.147L561.083 327.482L566.752 326.087C567.248 324.065 568.015 322.083 569.056 320.223L565.853 315.34L572.563 308.384L577.555 311.417ZM582.708 324.297C578.727 328.422 578.848 334.983 582.971 338.967C587.094 342.95 593.652 342.829 597.633 338.704C601.605 334.579 601.493 328.018 597.381 324.034C593.258 320.051 586.7 320.172 582.718 324.297H582.708Z" fill="#EBEBEB"/>
<path d="M271.453 314.885C274.636 312.964 278.032 311.498 281.528 310.508L283.6 300.529L300.445 300.236L302.87 310.134C306.397 311.003 309.842 312.348 313.086 314.157L321.594 308.577L333.71 320.284L328.436 328.988C330.366 332.173 331.821 335.57 332.811 339.068L342.775 341.14L343.068 357.993L333.175 360.42C332.306 363.948 330.962 367.396 329.153 370.641L334.731 379.153L323.029 391.275L314.329 385.998C311.146 387.918 307.751 389.384 304.254 390.375L302.183 400.354L285.338 400.647L282.912 390.749C279.386 389.88 275.94 388.535 272.696 386.726L264.188 392.306L252.072 380.599L257.347 371.894C255.427 368.71 253.962 365.313 252.971 361.815L243.008 359.742L242.715 342.889L252.608 340.463C253.477 336.935 254.82 333.487 256.629 330.242L251.051 321.73L262.753 309.608L271.453 314.885ZM280.427 337.329C273.495 344.517 273.697 355.961 280.871 362.897C288.056 369.832 299.495 369.63 306.427 362.452C313.359 355.264 313.157 343.819 305.982 336.884C298.798 329.949 287.359 330.151 280.427 337.329Z" fill="#EBEBEB"/>
<path d="M377.506 215.961C379.052 215.02 380.709 214.313 382.407 213.828L383.417 208.975L391.612 208.833L392.795 213.646C394.512 214.07 396.19 214.717 397.766 215.607L401.909 212.887L407.811 218.579L405.244 222.815C406.184 224.362 406.891 226.02 407.376 227.718L412.226 228.729L412.368 236.928L407.558 238.111C407.134 239.83 406.487 241.508 405.598 243.085L408.316 247.23L402.627 253.134L398.393 250.567C396.847 251.507 395.189 252.214 393.492 252.7L392.481 257.552L384.286 257.694L383.104 252.882C381.386 252.457 379.708 251.81 378.132 250.92L373.989 253.64L368.088 247.948L370.654 243.712C369.715 242.165 369.007 240.507 368.522 238.809L363.672 237.798L363.53 229.599L368.34 228.416C368.765 226.697 369.411 225.019 370.301 223.442L367.582 219.297L373.272 213.393L377.506 215.961ZM381.871 226.879C378.496 230.377 378.597 235.948 382.093 239.314C385.59 242.691 391.157 242.59 394.522 239.092C397.898 235.594 397.796 230.023 394.3 226.657C390.804 223.28 385.236 223.381 381.871 226.879Z" fill="#F5F5F5"/>
<path d="M427.879 238.92C430.597 237.282 433.487 236.029 436.468 235.19L438.237 226.677L452.606 226.424L454.678 234.866C457.689 235.604 460.619 236.746 463.398 238.293L470.664 233.532L481.001 243.52L476.504 250.951C478.152 253.67 479.395 256.562 480.233 259.544L488.732 261.313L488.984 275.689L480.546 277.762C479.809 280.775 478.667 283.707 477.121 286.487L481.88 293.756L471.897 304.098L464.469 299.599C461.751 301.237 458.861 302.491 455.88 303.33L454.112 311.842L439.742 312.095L437.671 303.653C434.66 302.915 431.729 301.763 428.95 300.226L421.685 304.988L411.347 294.999L415.844 287.568C414.207 284.849 412.954 281.958 412.105 278.975L403.597 277.206L403.344 262.83L411.782 260.757C412.519 257.745 413.671 254.813 415.207 252.032L410.448 244.764L420.432 234.421L427.859 238.92H427.879ZM435.539 258.068C429.627 264.195 429.799 273.961 435.923 279.875C442.046 285.789 451.808 285.617 457.719 279.491C463.631 273.364 463.459 263.598 457.335 257.684C451.212 251.77 441.45 251.941 435.539 258.068Z" fill="#EBEBEB"/>
<path d="M434.882 165.351C436.236 164.532 437.691 163.905 439.177 163.481L440.066 159.224L447.25 159.103L448.281 163.319C449.787 163.693 451.252 164.259 452.636 165.037L456.264 162.652L461.438 167.646L459.184 171.356C460.003 172.711 460.629 174.167 461.054 175.653L465.308 176.542L465.429 183.731L461.216 184.762C460.842 186.268 460.276 187.734 459.498 189.119L461.872 192.748L456.88 197.925L453.172 195.67C451.818 196.489 450.363 197.116 448.877 197.541L447.988 201.797L440.803 201.918L439.773 197.702C438.267 197.328 436.802 196.762 435.417 195.984L431.79 198.37L426.616 193.375L428.869 189.665C428.051 188.31 427.424 186.854 427 185.368L422.746 184.479L422.624 177.291L426.838 176.259C427.212 174.753 427.778 173.287 428.556 171.902L426.181 168.273L431.173 163.096L434.882 165.351ZM438.712 174.925C435.751 177.988 435.842 182.871 438.904 185.833C441.965 188.796 446.846 188.705 449.807 185.641C452.768 182.578 452.677 177.695 449.615 174.733C446.553 171.771 441.672 171.862 438.712 174.925Z" fill="#EBEBEB"/>
<path d="M349.02 271.292C352.526 269.169 356.255 267.571 360.105 266.469L362.388 255.49L380.921 255.167L383.589 266.055C387.469 267.015 391.259 268.491 394.836 270.483L404.203 264.336L417.542 277.216L411.731 286.8C413.853 290.308 415.45 294.039 416.551 297.891L427.515 300.175L427.839 318.717L416.956 321.386C415.996 325.268 414.52 329.059 412.53 332.638L418.663 342.01L405.79 355.355L396.21 349.542C392.704 351.665 388.975 353.262 385.125 354.364L382.841 365.343L364.308 365.667L361.641 354.778C357.76 353.818 353.971 352.342 350.394 350.35L341.026 356.497L327.688 343.617L333.498 334.033C331.376 330.525 329.769 326.795 328.678 322.943L317.714 320.658L317.391 302.116L328.274 299.447C329.234 295.565 330.709 291.774 332.7 288.195L326.556 278.823L339.43 265.479L349.009 271.292H349.02Z" fill="#0951FE"/>
<path d="M360.964 292.805H350.778V324.621H360.964V292.805Z" fill="white"/>
<path d="M376.172 300.074H365.986V324.621H376.172V300.074Z" fill="white"/>
<path d="M390.248 310.043H380.062V324.621H390.248V310.043Z" fill="white"/>
<path d="M196.383 269.047C199.89 266.924 203.618 265.327 207.468 264.225L209.752 253.246L228.285 252.922L230.952 263.81C234.833 264.771 238.622 266.247 242.199 268.238L251.567 262.092L264.905 274.972L259.095 284.556C261.217 288.064 262.814 291.794 263.915 295.646L274.879 297.931L275.202 316.472L264.319 319.141C263.359 323.024 261.884 326.815 259.893 330.394L266.027 339.765L253.153 353.11L243.574 347.297C240.067 349.42 236.338 351.018 232.488 352.12L230.205 363.099L211.672 363.422L209.004 352.534C205.124 351.574 201.335 350.098 197.757 348.106L188.39 354.253L175.051 341.373L180.862 331.789C178.74 328.281 177.133 324.55 176.042 320.698L165.078 318.413L164.754 299.872L175.638 297.203C176.598 293.321 178.073 289.53 180.064 285.951L173.92 276.579L186.793 263.234L196.373 269.047H196.383Z" fill="#0951FE"/>
<path d="M222.929 339.24C209.105 339.24 196.686 329.989 192.745 316.745C192.665 316.482 192.816 316.199 193.089 316.119C193.352 316.038 193.635 316.189 193.715 316.462C197.535 329.282 209.55 338.229 222.929 338.229C239.744 338.229 253.416 324.55 253.416 307.727C253.416 290.905 239.744 277.226 222.929 277.226C208.883 277.226 196.707 286.739 193.331 300.367C193.261 300.64 192.988 300.802 192.715 300.742C192.442 300.671 192.281 300.398 192.341 300.125C195.827 286.052 208.398 276.215 222.919 276.215C240.289 276.215 254.416 290.349 254.416 307.727C254.416 325.106 240.289 339.24 222.919 339.24H222.929Z" fill="white"/>
<path d="M222.757 329.625C212.986 329.625 204.316 323.044 201.678 313.631C201.607 313.358 201.759 313.086 202.032 313.005C202.295 312.934 202.578 313.086 202.658 313.358C205.175 322.336 213.44 328.614 222.767 328.614C234.277 328.614 243.644 319.242 243.644 307.727C243.644 296.212 234.277 286.84 222.767 286.84C213.451 286.84 205.185 293.109 202.668 302.086C202.598 302.359 202.315 302.511 202.042 302.44C201.769 302.369 201.618 302.086 201.688 301.813C204.326 292.401 212.996 285.819 222.767 285.819C234.833 285.819 244.655 295.646 244.655 307.717C244.655 319.788 234.833 329.615 222.767 329.615L222.757 329.625Z" fill="white"/>
<path d="M222.757 312.641C221.636 312.641 220.554 312.307 219.635 311.68C219.402 311.529 219.342 311.215 219.503 310.983C219.655 310.75 219.978 310.689 220.201 310.851C220.959 311.367 221.848 311.63 222.757 311.63C225.284 311.63 227.335 309.577 227.335 307.05C227.335 304.523 225.284 302.47 222.757 302.47C221.999 302.47 221.252 302.662 220.595 303.016C220.352 303.148 220.039 303.057 219.908 302.814C219.776 302.571 219.867 302.258 220.11 302.126C220.918 301.692 221.828 301.459 222.757 301.459C225.839 301.459 228.345 303.966 228.345 307.05C228.345 310.133 225.839 312.641 222.757 312.641Z" fill="white"/>
<path d="M222.929 306.858L214.764 302.875L214.926 306.423L193.23 306.929L193.473 308.526L215.189 308.172L215.249 311.771L222.929 306.858Z" fill="white"/>
<path d="M199.202 307.465L199.081 307.232C198.505 306.11 197.363 305.382 196.09 305.332L188.916 305.059L192.028 307.879L189.269 311.286L196.141 311.145C197.687 311.114 199.031 310.063 199.455 308.577L199.213 307.465H199.202Z" fill="white"/>
<path d="M222.929 320.941C217.098 320.941 211.884 317.028 210.247 311.428C210.166 311.165 210.318 310.882 210.591 310.801C210.864 310.72 211.137 310.872 211.217 311.145C212.723 316.321 217.543 319.93 222.929 319.93C229.659 319.93 235.126 314.45 235.126 307.727C235.126 301.004 229.659 295.525 222.929 295.525C217.594 295.525 212.794 299.094 211.248 304.209C211.167 304.472 210.884 304.634 210.621 304.543C210.358 304.462 210.207 304.179 210.288 303.916C211.955 298.386 217.159 294.514 222.939 294.514C230.225 294.514 236.146 300.438 236.146 307.727C236.146 315.017 230.225 320.941 222.939 320.941H222.929Z" fill="white"/>
<path d="M500.009 268.198C503.515 266.075 507.244 264.477 511.094 263.376L513.378 252.396L531.91 252.073L534.578 262.961C538.458 263.921 542.248 265.397 545.825 267.389L555.192 261.242L568.531 274.122L562.721 283.706C564.843 287.214 566.439 290.945 567.541 294.797L578.505 297.082L578.828 315.623L567.945 318.292C566.985 322.174 565.509 325.965 563.519 329.544L569.653 338.916L556.779 352.261L547.199 346.448C543.693 348.571 539.964 350.168 536.114 351.27L533.83 362.249L515.298 362.573L512.63 351.685C508.75 350.724 504.96 349.248 501.383 347.257L492.016 353.403L478.677 340.523L484.487 330.939C482.365 327.431 480.759 323.701 479.667 319.849L468.703 317.564L468.38 299.023L479.263 296.354C480.223 292.472 481.698 288.68 483.689 285.102L477.545 275.73L490.419 262.385L499.999 268.198H500.009Z" fill="#0951FE"/>
<path d="M496.462 308.92L503.566 301.813L517.268 313.995L544.158 288.104L550.746 295.211L516.248 327.694L496.462 308.92Z" fill="white"/>
<path d="M312.904 273.971C312.904 273.971 312.934 273.86 313.025 273.657C313.126 273.425 313.258 273.122 313.43 272.747C313.612 272.333 313.834 271.848 314.097 271.271C314.349 270.685 314.662 270.008 315.087 269.29C315.491 268.562 315.936 267.743 316.431 266.864C316.946 265.994 317.573 265.084 318.219 264.093C318.836 263.082 319.654 262.102 320.453 261.03C321.231 259.938 322.201 258.897 323.181 257.765C324.131 256.612 325.303 255.571 326.435 254.398C326.991 253.802 327.647 253.286 328.284 252.73C328.931 252.184 329.567 251.598 330.244 251.042C330.942 250.506 331.649 249.97 332.377 249.424C332.74 249.151 333.094 248.868 333.478 248.605C333.862 248.352 334.246 248.1 334.64 247.837C335.428 247.331 336.206 246.785 337.025 246.28C337.864 245.805 338.712 245.32 339.561 244.834C340.41 244.319 341.319 243.924 342.229 243.469C343.138 243.035 344.048 242.549 345.018 242.196C345.978 241.811 346.948 241.417 347.928 241.023C348.929 240.699 349.949 240.366 350.97 240.042C355.083 238.819 359.478 237.97 364.025 237.666C368.583 237.434 373.049 237.757 377.283 238.485C378.334 238.698 379.385 238.9 380.416 239.102C381.436 239.375 382.447 239.648 383.437 239.921C384.448 240.164 385.398 240.538 386.358 240.851C387.307 241.185 388.267 241.478 389.167 241.882C390.076 242.266 390.976 242.64 391.865 243.015C392.734 243.419 393.573 243.864 394.411 244.278C394.826 244.491 395.24 244.693 395.654 244.905C396.058 245.117 396.453 245.36 396.837 245.593C397.615 246.047 398.393 246.502 399.14 246.947C399.878 247.412 400.585 247.918 401.283 248.393C401.98 248.878 402.687 249.313 403.314 249.839C404.577 250.86 405.87 251.759 406.942 252.791C408.043 253.792 409.134 254.712 410.034 255.712C410.953 256.693 411.883 257.563 412.61 258.493C413.368 259.403 414.096 260.232 414.712 261.04C415.298 261.859 415.844 262.617 416.329 263.295C416.834 263.962 417.218 264.589 417.542 265.145C417.865 265.691 418.148 266.146 418.38 266.53C418.593 266.884 418.754 267.167 418.886 267.389C418.997 267.581 419.047 267.682 419.037 267.693C419.037 267.693 418.956 267.602 418.835 267.42L418.289 266.591C418.047 266.217 417.754 265.762 417.41 265.236C417.077 264.69 416.673 264.073 416.157 263.416C415.662 262.749 415.106 262.011 414.51 261.202C413.884 260.413 413.146 259.595 412.388 258.695C411.65 257.775 410.721 256.916 409.791 255.955C408.882 254.974 407.79 254.065 406.689 253.084C405.608 252.063 404.324 251.183 403.061 250.172C402.435 249.657 401.727 249.232 401.03 248.757C400.333 248.292 399.625 247.796 398.888 247.342C398.13 246.907 397.372 246.462 396.594 246.007C396.2 245.785 395.816 245.542 395.412 245.33L394.169 244.713C393.33 244.309 392.501 243.864 391.632 243.469C390.753 243.105 389.854 242.731 388.955 242.357C388.065 241.953 387.105 241.67 386.166 241.336C385.216 241.023 384.266 240.649 383.265 240.416C382.275 240.153 381.275 239.88 380.264 239.618C379.234 239.415 378.203 239.213 377.152 239.011C372.958 238.293 368.532 237.98 364.015 238.212C359.509 238.516 355.153 239.355 351.071 240.558C350.06 240.881 349.05 241.205 348.06 241.528C347.089 241.913 346.129 242.297 345.18 242.681C344.22 243.035 343.32 243.51 342.411 243.935C341.511 244.379 340.602 244.764 339.763 245.279C338.915 245.764 338.066 246.24 337.237 246.705C336.419 247.2 335.651 247.736 334.862 248.231C334.478 248.484 334.084 248.737 333.71 248.989C333.337 249.252 332.983 249.535 332.619 249.798C331.902 250.344 331.194 250.87 330.497 251.396C329.82 251.941 329.183 252.518 328.537 253.064C327.91 253.62 327.253 254.125 326.687 254.712C325.556 255.864 324.383 256.885 323.434 258.028C322.453 259.14 321.483 260.161 320.695 261.253C319.887 262.314 319.068 263.275 318.442 264.275C317.795 265.256 317.158 266.156 316.623 267.015C316.118 267.885 315.663 268.693 315.249 269.411C314.814 270.119 314.491 270.786 314.218 271.362C313.945 271.929 313.702 272.414 313.51 272.818C313.329 273.192 313.177 273.485 313.066 273.708C312.965 273.91 312.904 274.011 312.894 274.001L312.904 273.971Z" fill="#263238"/>
<path d="M333.832 240.538C333.832 240.538 334.226 240.224 334.984 239.739C335.741 239.243 336.873 238.607 338.298 237.869C341.158 236.403 345.301 234.704 350.091 233.582C354.88 232.47 359.347 232.156 362.56 232.207C364.167 232.227 365.47 232.308 366.36 232.409C367.249 232.51 367.744 232.581 367.744 232.611C367.744 232.652 367.239 232.642 366.35 232.611C365.46 232.571 364.157 232.551 362.57 232.571C359.377 232.611 354.961 232.985 350.222 234.087C345.483 235.2 341.36 236.817 338.48 238.192C337.035 238.88 335.883 239.466 335.105 239.901C334.317 240.325 333.872 240.548 333.852 240.517L333.832 240.538Z" fill="#263238"/>
<path d="M576.686 343.344C576.686 343.344 576.655 343.455 576.564 343.658C576.463 343.89 576.332 344.193 576.16 344.568C575.978 344.982 575.756 345.467 575.493 346.044C575.241 346.63 574.927 347.307 574.503 348.025C574.099 348.753 573.654 349.572 573.159 350.451C572.644 351.321 572.017 352.231 571.37 353.232C570.754 354.243 569.936 355.223 569.137 356.295C568.359 357.387 567.389 358.428 566.409 359.56C565.459 360.713 564.287 361.754 563.155 362.927C562.599 363.523 561.942 364.039 561.306 364.595C560.659 365.141 560.023 365.727 559.345 366.283C558.648 366.819 557.941 367.355 557.213 367.901C556.85 368.174 556.496 368.457 556.112 368.72C555.728 368.973 555.344 369.225 554.95 369.488C554.162 369.994 553.384 370.54 552.565 371.045C551.726 371.52 550.878 372.006 550.029 372.491C549.18 373.006 548.27 373.401 547.361 373.846C546.451 374.28 545.542 374.766 544.572 375.119C543.612 375.504 542.642 375.898 541.662 376.292C540.661 376.616 539.641 376.949 538.62 377.273C534.507 378.496 530.112 379.345 525.564 379.649C521.007 379.881 516.541 379.558 512.307 378.83C511.256 378.617 510.205 378.415 509.174 378.213C508.153 377.94 507.143 377.667 506.153 377.394C505.142 377.151 504.192 376.777 503.232 376.464C502.282 376.13 501.322 375.837 500.423 375.433C499.514 375.049 498.614 374.675 497.725 374.3C496.856 373.896 496.017 373.451 495.179 373.037C494.764 372.824 494.35 372.622 493.936 372.41C493.531 372.198 493.137 371.955 492.753 371.722C491.975 371.268 491.197 370.813 490.449 370.368C489.712 369.903 489.004 369.397 488.307 368.922C487.61 368.437 486.903 368.002 486.276 367.476C485.013 366.455 483.72 365.556 482.648 364.524C481.547 363.523 480.456 362.603 479.556 361.603C478.637 360.622 477.707 359.752 476.979 358.822C476.222 357.912 475.494 357.083 474.878 356.275C474.292 355.456 473.746 354.698 473.261 354.02C472.756 353.353 472.372 352.726 472.048 352.17C471.725 351.624 471.442 351.169 471.209 350.785C470.997 350.431 470.836 350.148 470.704 349.926C470.593 349.734 470.543 349.633 470.553 349.622C470.553 349.622 470.634 349.713 470.755 349.895C470.896 350.108 471.078 350.381 471.3 350.724C471.543 351.098 471.836 351.553 472.18 352.079C472.513 352.625 472.917 353.242 473.433 353.899C473.928 354.566 474.484 355.304 475.08 356.113C475.706 356.902 476.444 357.72 477.202 358.62C477.939 359.54 478.869 360.399 479.799 361.36C480.708 362.341 481.8 363.25 482.901 364.231C483.982 365.252 485.266 366.132 486.529 367.143C487.155 367.658 487.863 368.083 488.56 368.558C489.257 369.023 489.964 369.519 490.702 369.973C491.46 370.408 492.218 370.853 492.996 371.308C493.39 371.53 493.774 371.773 494.178 371.985C494.593 372.188 494.997 372.39 495.421 372.602C496.26 373.006 497.088 373.451 497.957 373.846C498.837 374.21 499.736 374.584 500.635 374.958C501.525 375.362 502.485 375.645 503.424 375.979C504.374 376.292 505.324 376.666 506.324 376.899C507.315 377.162 508.315 377.435 509.326 377.697C510.356 377.9 511.387 378.102 512.438 378.304C516.632 379.022 521.058 379.335 525.575 379.103C530.081 378.799 534.437 377.96 538.519 376.757C539.53 376.434 540.54 376.11 541.53 375.787C542.5 375.402 543.46 375.018 544.41 374.634C545.37 374.28 546.27 373.805 547.179 373.38C548.078 372.936 548.988 372.552 549.827 372.036C550.675 371.551 551.524 371.075 552.353 370.61C553.171 370.115 553.939 369.579 554.727 369.084C555.111 368.831 555.506 368.578 555.879 368.326C556.253 368.063 556.607 367.78 556.971 367.517C557.688 366.981 558.396 366.445 559.093 365.919C559.77 365.374 560.407 364.797 561.053 364.251C561.68 363.695 562.337 363.19 562.902 362.603C564.034 361.451 565.206 360.43 566.156 359.287C567.136 358.175 568.107 357.154 568.895 356.062C569.703 355.001 570.522 354.04 571.148 353.04C571.795 352.059 572.431 351.159 572.967 350.3C573.472 349.43 573.927 348.622 574.341 347.904C574.776 347.196 575.099 346.529 575.372 345.953C575.645 345.386 575.887 344.901 576.079 344.497L576.524 343.607C576.625 343.405 576.686 343.304 576.696 343.314L576.686 343.344Z" fill="#263238"/>
<path d="M556.172 379.851C556.172 379.851 555.778 380.164 555.021 380.649C554.263 381.145 553.131 381.782 551.706 382.52C548.846 383.986 544.703 385.684 539.914 386.806C535.124 387.918 530.657 388.232 527.444 388.181C525.837 388.161 524.534 388.08 523.644 387.979C522.755 387.878 522.26 387.807 522.26 387.777C522.26 387.747 522.765 387.747 523.655 387.777C524.544 387.817 525.847 387.838 527.434 387.817C530.627 387.777 535.043 387.403 539.782 386.301C544.521 385.189 548.644 383.571 551.524 382.196C552.969 381.509 554.121 380.922 554.899 380.488C555.688 380.063 556.132 379.841 556.152 379.871L556.172 379.851Z" fill="#263238"/>
<path d="M274.313 341.09C274.313 341.09 274.283 341.201 274.192 341.403C274.091 341.636 273.959 341.939 273.788 342.313C273.606 342.727 273.383 343.213 273.121 343.789C272.868 344.375 272.555 345.053 272.13 345.77C271.726 346.498 271.282 347.317 270.786 348.197C270.271 349.066 269.645 349.976 268.998 350.967C268.381 351.978 267.563 352.959 266.765 354.03C265.987 355.122 265.016 356.163 264.036 357.296C263.086 358.448 261.914 359.489 260.782 360.662C260.227 361.259 259.57 361.774 258.933 362.33C258.287 362.876 257.65 363.463 256.973 364.019C256.276 364.554 255.568 365.09 254.841 365.636C254.477 365.909 254.123 366.192 253.739 366.455C253.355 366.708 252.971 366.961 252.577 367.223C251.789 367.729 251.011 368.275 250.192 368.78C249.354 369.256 248.505 369.741 247.656 370.226C246.807 370.742 245.898 371.136 244.988 371.591C244.079 372.026 243.169 372.511 242.199 372.865C241.239 373.249 240.269 373.643 239.289 374.038C238.289 374.361 237.268 374.695 236.247 375.018C232.135 376.241 227.739 377.091 223.192 377.394C218.634 377.626 214.168 377.303 209.934 376.575C208.883 376.363 207.832 376.161 206.801 375.958C205.781 375.685 204.77 375.412 203.78 375.139C202.77 374.897 201.82 374.523 200.86 374.209C199.91 373.876 198.95 373.583 198.05 373.178C197.141 372.794 196.242 372.42 195.352 372.046C194.483 371.641 193.645 371.197 192.806 370.782C192.392 370.57 191.977 370.368 191.563 370.155C191.159 369.943 190.765 369.7 190.381 369.468C189.603 369.013 188.825 368.558 188.077 368.113C187.339 367.648 186.632 367.143 185.935 366.667C185.237 366.182 184.53 365.747 183.903 365.222C182.64 364.201 181.347 363.301 180.276 362.27C179.174 361.269 178.083 360.349 177.184 359.348C176.264 358.367 175.334 357.498 174.607 356.568C173.849 355.658 173.121 354.829 172.505 354.02C171.919 353.201 171.373 352.443 170.888 351.766C170.383 351.098 169.999 350.472 169.676 349.915C169.352 349.37 169.069 348.915 168.837 348.53C168.625 348.177 168.463 347.894 168.332 347.671C168.22 347.479 168.17 347.378 168.18 347.368C168.18 347.368 168.261 347.459 168.382 347.641L168.928 348.47C169.17 348.844 169.463 349.299 169.807 349.825C170.14 350.37 170.545 350.987 171.06 351.644C171.555 352.312 172.111 353.05 172.707 353.858C173.334 354.647 174.071 355.466 174.829 356.366C175.567 357.286 176.496 358.145 177.426 359.105C178.336 360.086 179.427 360.996 180.528 361.976C181.61 362.998 182.893 363.877 184.156 364.888C184.783 365.404 185.49 365.828 186.187 366.303C186.884 366.769 187.592 367.264 188.329 367.719C189.087 368.154 189.845 368.598 190.623 369.053C191.017 369.276 191.401 369.518 191.806 369.731C192.22 369.933 192.624 370.135 193.048 370.347C193.887 370.752 194.716 371.197 195.585 371.591C196.464 371.955 197.363 372.329 198.263 372.703C199.152 373.107 200.112 373.39 201.052 373.724C202.002 374.038 202.951 374.412 203.952 374.644C204.942 374.907 205.943 375.18 206.953 375.443C207.984 375.645 209.014 375.847 210.065 376.049C214.259 376.767 218.685 377.081 223.202 376.848C227.709 376.545 232.064 375.706 236.146 374.503C237.157 374.179 238.167 373.856 239.158 373.532C240.128 373.148 241.088 372.764 242.038 372.379C242.998 372.026 243.897 371.55 244.806 371.126C245.706 370.681 246.615 370.297 247.454 369.781C248.303 369.296 249.152 368.821 249.98 368.356C250.799 367.86 251.567 367.325 252.355 366.829C252.739 366.576 253.133 366.324 253.507 366.071C253.881 365.808 254.234 365.525 254.598 365.262C255.316 364.726 256.023 364.191 256.72 363.665C257.397 363.119 258.034 362.543 258.681 361.997C259.307 361.441 259.964 360.935 260.53 360.349C261.662 359.196 262.834 358.175 263.784 357.033C264.764 355.921 265.734 354.9 266.522 353.808C267.331 352.746 268.149 351.786 268.776 350.785C269.422 349.804 270.059 348.905 270.594 348.045C271.1 347.176 271.554 346.367 271.969 345.649C272.403 344.941 272.727 344.274 272.999 343.698C273.272 343.132 273.515 342.647 273.707 342.242C273.889 341.868 274.04 341.575 274.151 341.352C274.252 341.15 274.313 341.049 274.323 341.059L274.313 341.09Z" fill="#263238"/>
<path d="M253.81 377.596C253.81 377.596 253.416 377.91 252.658 378.395C251.9 378.89 250.768 379.527 249.344 380.265C246.484 381.731 242.341 383.43 237.551 384.552C232.761 385.664 228.295 385.977 225.081 385.927C223.475 385.906 222.171 385.826 221.282 385.724C220.393 385.623 219.898 385.553 219.898 385.522C219.898 385.482 220.403 385.492 221.292 385.522C222.181 385.563 223.485 385.583 225.071 385.563C228.265 385.522 232.68 385.148 237.42 384.046C242.159 382.934 246.282 381.317 249.162 379.942C250.607 379.254 251.759 378.668 252.537 378.233C253.325 377.808 253.77 377.586 253.79 377.616L253.81 377.596Z" fill="#263238"/>
<path d="M489.58 217.861H285.772C276.253 217.861 268.533 210.137 268.533 200.614C268.533 191.09 276.253 183.366 285.772 183.366H489.58C499.099 183.366 506.82 191.09 506.82 200.614C506.82 210.137 499.099 217.861 489.58 217.861Z" fill="#FAFAFA"/>
<path d="M489.58 217.861C489.58 217.861 490.035 217.821 490.904 217.77C491.783 217.71 493.077 217.507 494.724 217.022C496.351 216.486 498.311 215.597 500.261 214.03C502.232 212.493 504.111 210.188 505.395 207.205C506.001 205.699 506.425 204.031 506.617 202.242C506.779 200.452 506.648 198.541 506.203 196.62C505.314 192.799 502.879 188.897 499.018 186.369C497.098 185.105 494.855 184.185 492.43 183.781C490.015 183.387 487.438 183.579 484.811 183.528C479.556 183.528 473.998 183.538 468.158 183.548C421.473 183.569 356.992 183.599 285.772 183.629C281.376 183.619 277.052 185.388 273.949 188.421C270.827 191.424 268.957 195.64 268.816 199.916C268.624 204.193 270.119 208.469 272.868 211.654C275.596 214.859 279.517 216.982 283.63 217.457C285.671 217.689 287.783 217.578 289.865 217.608H296.079C300.202 217.608 304.285 217.608 308.316 217.608C316.39 217.608 324.303 217.608 332.023 217.608C362.884 217.629 390.672 217.649 414.015 217.669C437.348 217.699 456.234 217.73 469.289 217.75C475.807 217.77 480.87 217.79 484.316 217.801C486.023 217.811 487.337 217.821 488.226 217.831C489.105 217.831 489.56 217.861 489.56 217.861C489.56 217.861 489.105 217.881 488.226 217.892C487.337 217.892 486.033 217.902 484.316 217.922C480.87 217.932 475.807 217.952 469.289 217.972C456.224 217.993 437.348 218.023 414.015 218.053C390.672 218.074 362.884 218.084 332.023 218.114C324.303 218.114 316.401 218.114 308.316 218.114C304.274 218.114 300.192 218.114 296.079 218.114H289.865C287.783 218.094 285.701 218.205 283.569 217.962C279.325 217.477 275.283 215.293 272.474 211.987C269.634 208.702 268.098 204.294 268.29 199.886C268.442 195.478 270.362 191.131 273.586 188.037C276.779 184.913 281.245 183.083 285.772 183.094C356.992 183.124 421.473 183.154 468.158 183.174C473.988 183.174 479.546 183.185 484.811 183.195C487.438 183.245 490.005 183.053 492.48 183.468C494.946 183.882 497.23 184.822 499.18 186.116C503.101 188.704 505.556 192.668 506.446 196.56C506.9 198.511 507.012 200.442 506.85 202.262C506.648 204.071 506.213 205.77 505.587 207.286C504.273 210.299 502.363 212.614 500.362 214.161C498.372 215.728 496.391 216.608 494.754 217.133C493.097 217.598 491.783 217.79 490.904 217.831C490.025 217.871 489.57 217.871 489.57 217.871L489.58 217.861Z" fill="#263238"/>
<path d="M399.686 213.757H285.873C278.618 213.757 272.727 207.873 272.727 200.604C272.727 193.345 278.608 187.451 285.873 187.451H399.686C406.941 187.451 412.833 193.335 412.833 200.604C412.833 207.863 406.952 213.757 399.686 213.757Z" fill="#0951FE"/>
<g opacity="0.4">
<path d="M289.683 213.757L306.013 187.461H323.514L307.508 213.757H289.683Z" fill="white"/>
</g>
<g opacity="0.4">
<path d="M324.767 213.757L341.097 187.461H358.599L342.593 213.757H324.767Z" fill="white"/>
</g>
<g opacity="0.4">
<path d="M362.429 213.757L378.759 187.461H396.261L380.264 213.757H362.429Z" fill="white"/>
</g>
<path d="M360.913 172.357C360.913 174.349 359.418 175.592 357.023 175.592H355.224V178.059H353.152V169.112H357.023C359.418 169.112 360.913 170.355 360.913 172.357ZM358.811 172.357C358.811 171.376 358.175 170.8 356.912 170.8H355.224V173.904H356.912C358.175 173.904 358.811 173.328 358.811 172.357Z" fill="#263238"/>
<path d="M368.088 178.059L366.36 175.562H364.46V178.059H362.388V169.112H366.259C368.654 169.112 370.149 170.355 370.149 172.357C370.149 173.702 369.472 174.682 368.31 175.188L370.321 178.069H368.098L368.088 178.059ZM366.147 170.79H364.46V173.914H366.147C367.411 173.914 368.047 173.328 368.047 172.357C368.047 171.387 367.411 170.8 366.147 170.8V170.79Z" fill="#263238"/>
<path d="M371.21 173.58C371.21 170.921 373.282 168.95 376.101 168.95C378.92 168.95 380.992 170.911 380.992 173.58C380.992 176.249 378.91 178.211 376.101 178.211C373.292 178.211 371.21 176.239 371.21 173.58ZM378.91 173.58C378.91 171.882 377.708 170.719 376.111 170.719C374.514 170.719 373.312 171.882 373.312 173.58C373.312 175.279 374.514 176.441 376.111 176.441C377.708 176.441 378.91 175.279 378.91 173.58Z" fill="#263238"/>
<path d="M382.002 173.58C382.002 170.881 384.074 168.95 386.863 168.95C388.409 168.95 389.702 169.516 390.541 170.537L389.207 171.76C388.611 171.073 387.853 170.709 386.954 170.709C385.276 170.709 384.094 171.882 384.094 173.57C384.094 175.258 385.286 176.431 386.954 176.431C387.853 176.431 388.601 176.077 389.207 175.37L390.541 176.593C389.702 177.624 388.409 178.19 386.843 178.19C384.074 178.19 382.002 176.259 382.002 173.56V173.58Z" fill="#263238"/>
<path d="M398.858 176.401V178.059H391.925V169.112H398.686V170.77H393.987V172.711H398.14V174.318H393.987V176.391H398.858V176.401Z" fill="#263238"/>
<path d="M399.797 177.179L400.505 175.622C401.262 176.168 402.384 176.553 403.455 176.553C404.678 176.553 405.183 176.148 405.183 175.592C405.183 173.914 399.979 175.066 399.979 171.74C399.979 170.214 401.202 168.95 403.748 168.95C404.87 168.95 406.022 169.223 406.851 169.739L406.214 171.316C405.385 170.84 404.526 170.608 403.738 170.608C402.515 170.608 402.041 171.073 402.041 171.629C402.041 173.277 407.245 172.145 407.245 175.43C407.245 176.927 406.002 178.211 403.445 178.211C402.03 178.211 400.596 177.786 399.807 177.179H399.797Z" fill="#263238"/>
<path d="M407.952 177.179L408.659 175.622C409.417 176.168 410.539 176.553 411.61 176.553C412.833 176.553 413.338 176.148 413.338 175.592C413.338 173.914 408.134 175.066 408.134 171.74C408.134 170.214 409.357 168.95 411.903 168.95C413.025 168.95 414.177 169.223 415.005 169.739L414.369 171.316C413.54 170.84 412.681 170.608 411.893 170.608C410.67 170.608 410.195 171.073 410.195 171.629C410.195 173.277 415.399 172.145 415.399 175.43C415.399 176.927 414.156 178.211 411.6 178.211C410.185 178.211 408.75 177.786 407.962 177.179H407.952Z" fill="#263238"/>
<path d="M656 514.2C656 514.342 513.62 514.463 338.015 514.463C162.41 514.463 20 514.342 20 514.2C20 514.059 162.349 513.937 338.015 513.937C513.681 513.937 656 514.059 656 514.2Z" fill="#263238"/>
<path d="M35.2081 489.391L45.111 468.18L68.2414 481.444L56.2265 500.876C56.2265 500.876 46.8794 502.534 42.7262 499.976C38.573 497.418 35.2182 489.381 35.2182 489.381L35.2081 489.391Z" fill="#FFBE9D"/>
<path d="M55.0445 502.857L56.2267 500.886C47.7992 499.339 40.8065 495.477 35.2083 489.401L27.2961 503.959L71.0003 528C73.0415 523.683 55.0445 502.857 55.0445 502.857Z" fill="#0951FE"/>
<path d="M27.2958 503.949L29.2259 500.39L70.4847 524.826C70.4847 524.826 71.96 526.746 70.9899 527.99L27.2857 503.949H27.2958Z" fill="#263238"/>
<path d="M55.8728 503.019C55.7516 503.231 54.6299 502.736 53.2051 502.847C51.7702 502.918 50.7294 503.545 50.5778 503.352C50.406 503.201 51.4266 502.099 53.1546 501.998C54.8825 501.876 56.0345 502.847 55.8829 503.019H55.8728Z" fill="#263238"/>
<path d="M59.4096 507.437C59.349 507.669 58.2172 507.528 57.0046 508.033C55.7718 508.498 55.0442 509.378 54.8421 509.246C54.6198 509.166 55.1655 507.841 56.6913 507.245C58.2172 506.638 59.5207 507.245 59.4096 507.437Z" fill="#263238"/>
<path d="M58.9953 514.362C58.773 514.301 59.066 513.068 60.2584 512.198C61.4407 511.319 62.7038 511.41 62.6937 511.642C62.7139 511.885 61.7236 512.158 60.7536 512.886C59.7734 513.594 59.2176 514.453 58.9953 514.362Z" fill="#263238"/>
<path d="M37.6535 500.026C37.2897 500.653 36.4914 500.875 35.8649 500.512C35.2384 500.148 35.0161 499.349 35.3798 498.722C35.7436 498.095 36.5419 497.873 37.1684 498.237C37.7949 498.601 38.0173 499.399 37.6535 500.026Z" fill="#263238"/>
<path d="M139.411 498.055L150.87 473.862L174.213 474.236L162.248 497.782C162.248 497.782 154.528 503.767 149.526 503.433C144.524 503.09 139.411 498.055 139.411 498.055Z" fill="#FFBE9D"/>
<path d="M162.117 500.148L162.248 497.782C153.831 500.41 146.899 500.259 138.896 497.398C138.037 498.874 137.582 500.542 137.552 502.24L137.38 514.413L188.663 515.383C188.451 510.48 162.107 500.137 162.107 500.137L162.117 500.148Z" fill="#0951FE"/>
<path d="M137.38 514.423L137.441 510.257L186.692 512.744C186.692 512.744 188.956 513.786 188.673 515.383L137.39 514.412L137.38 514.423Z" fill="#263238"/>
<path d="M162.946 499.895C162.936 500.148 161.683 500.239 160.43 501.017C159.166 501.765 158.51 502.837 158.277 502.736C158.045 502.685 158.449 501.189 159.975 500.269C161.491 499.339 163.006 499.662 162.946 499.895Z" fill="#263238"/>
<path d="M168.281 502.23C168.332 502.473 167.24 502.877 166.371 503.919C165.472 504.94 165.229 506.082 164.987 506.062C164.754 506.092 164.603 504.626 165.714 503.352C166.806 502.069 168.281 501.988 168.281 502.23Z" fill="#263238"/>
<path d="M171.222 508.721C170.989 508.771 170.666 507.507 171.333 506.153C171.99 504.788 173.182 504.272 173.283 504.474C173.425 504.687 172.646 505.405 172.111 506.527C171.555 507.639 171.464 508.69 171.212 508.711L171.222 508.721Z" fill="#263238"/>
<path d="M144.928 505.89C144.898 506.638 144.282 507.214 143.534 507.184C142.786 507.154 142.21 506.537 142.24 505.789C142.271 505.041 142.887 504.464 143.635 504.495C144.383 504.525 144.959 505.152 144.928 505.89Z" fill="#263238"/>
<path d="M273.575 176.735C277.577 176.067 281.063 172.863 282.043 168.91C282.155 168.465 282.266 167.969 282.63 167.707C282.943 167.474 283.367 167.474 283.761 167.464C285.904 167.383 288.056 166.493 289.461 164.856C290.865 163.218 291.421 160.832 290.673 158.82C293.967 159.214 297.029 156.009 297.029 152.683C297.029 149.357 294.493 146.365 291.37 145.253C293.139 144.252 293.765 141.866 293.22 139.915C292.674 137.963 291.199 136.407 289.582 135.193C287.399 133.566 284.388 132.413 282.013 133.758C282.619 132.201 281.629 130.452 280.356 129.37C276.951 126.479 271.271 126.833 268.22 130.128C267.432 128.602 266.391 127.126 264.865 126.357C263.339 125.579 261.247 125.72 260.166 127.055C260.196 125.367 258.832 123.982 257.397 123.092C256.356 122.455 255.184 121.95 253.962 122.02C252.749 122.091 251.506 122.859 251.193 124.042C249.596 122.313 246.646 122.081 244.786 123.527C242.927 124.982 242.432 127.914 243.715 129.886C241.664 129.987 239.693 131.22 238.703 133.03C237.713 134.84 237.723 137.165 238.743 138.954C237.794 138.58 236.722 139.591 236.722 140.612C236.722 141.643 237.47 142.523 238.309 143.109C236.379 146.092 234.449 149.064 232.529 152.046C231.286 153.967 230.023 155.929 229.437 158.143C228.851 160.357 229.043 162.894 230.498 164.653" fill="#263238"/>
<path d="M279.093 168.101C283.377 160.65 280.437 148.417 272.848 144.474L246.949 133.616L244.483 137.519L212.319 187.653L230.063 214.181L243.473 197.783C243.473 197.783 253.567 202.302 263.339 191.626C268.2 186.319 274.333 176.401 279.093 168.121V168.101Z" fill="#FFBE9D"/>
<path d="M271.08 174.591C270.574 175.42 269.463 175.673 268.594 175.157C267.725 174.652 267.432 173.57 267.937 172.741C268.442 171.912 269.554 171.659 270.423 172.165C271.292 172.681 271.585 173.762 271.08 174.591Z" fill="#263238"/>
<path d="M273.646 171.771C273.323 171.841 272.737 170.224 271.1 169.142C269.483 168.04 267.715 168.091 267.674 167.767C267.644 167.616 268.078 167.383 268.856 167.353C269.624 167.312 270.746 167.525 271.767 168.202C272.777 168.879 273.394 169.83 273.626 170.547C273.868 171.265 273.808 171.74 273.656 171.771H273.646Z" fill="#263238"/>
<path d="M255.78 165.674C255.275 166.503 254.164 166.756 253.295 166.24C252.426 165.735 252.133 164.643 252.638 163.824C253.143 162.995 254.255 162.742 255.124 163.248C255.993 163.764 256.286 164.845 255.78 165.664V165.674Z" fill="#263238"/>
<path d="M257.165 161.782C256.842 161.853 256.255 160.235 254.618 159.154C253.002 158.052 251.233 158.102 251.193 157.779C251.162 157.627 251.597 157.394 252.375 157.364C253.143 157.324 254.265 157.536 255.285 158.213C256.306 158.891 256.912 159.841 257.145 160.559C257.387 161.277 257.327 161.752 257.175 161.782H257.165Z" fill="#263238"/>
<path d="M255.225 177.543C255.275 177.442 256.417 177.948 258.206 178.827C258.65 179.06 259.105 179.242 259.368 178.999C259.671 178.757 259.792 178.19 259.913 177.574C260.196 176.3 260.489 174.955 260.793 173.55C262.086 167.858 263.329 163.288 263.551 163.339C263.784 163.39 262.915 168.05 261.611 173.742C261.278 175.137 260.964 176.472 260.661 177.746C260.5 178.332 260.419 179.05 259.792 179.535C259.469 179.778 259.014 179.798 258.701 179.697C258.378 179.606 258.145 179.454 257.923 179.323C256.205 178.312 255.174 177.634 255.225 177.533V177.543Z" fill="#263238"/>
<path d="M243.473 197.763C243.473 197.763 235.156 192.981 230.417 182.962C230.417 182.962 228.547 193.85 241.148 200.614L243.483 197.763H243.473Z" fill="#EB996E"/>
<path d="M251.91 181.052C251.84 179.879 251.092 178.767 250 178.201C249.243 177.806 248.293 177.675 247.474 177.968C246.656 178.261 246.019 179.03 246.049 179.838C246.08 180.758 246.908 181.517 247.838 181.81C248.768 182.103 249.778 182.032 250.758 181.941C251.031 181.911 251.304 181.891 251.546 181.769C251.789 181.648 251.981 181.405 251.951 181.153" fill="#EB996E"/>
<path d="M249.657 175.481C249.93 175.643 248.757 177.432 249.435 179.707C250.112 181.981 252.133 183.043 251.981 183.306C251.93 183.437 251.334 183.377 250.516 182.861C249.717 182.366 248.737 181.355 248.323 179.959C247.909 178.564 248.202 177.26 248.626 176.492C249.051 175.703 249.546 175.39 249.657 175.481Z" fill="#263238"/>
<path d="M261.55 156.232C261.096 156.576 259.6 155.271 257.529 154.23C255.477 153.148 253.557 152.683 253.567 152.117C253.578 151.854 254.133 151.612 255.043 151.591C255.952 151.571 257.215 151.814 258.448 152.451C259.681 153.088 260.621 153.977 261.126 154.726C261.641 155.484 261.763 156.07 261.55 156.232Z" fill="#263238"/>
<path d="M276.193 166.604C275.657 166.786 274.788 165.654 273.444 164.734C272.13 163.774 270.776 163.319 270.766 162.753C270.776 162.49 271.201 162.227 271.938 162.207C272.666 162.186 273.687 162.439 274.596 163.086C275.505 163.733 276.092 164.613 276.304 165.3C276.526 165.998 276.435 166.493 276.183 166.594L276.193 166.604Z" fill="#263238"/>
<path d="M283.296 151.116C282.63 153.795 280.225 155.949 277.496 156.323C274.768 156.697 271.888 155.251 270.554 152.855C270.837 154.139 269.786 155.443 268.523 155.787C267.26 156.131 265.906 155.716 264.774 155.059C262.399 153.684 260.671 151.217 260.196 148.508C258.751 150.176 256.498 151.106 254.305 150.924C252.112 150.742 250.041 149.458 248.909 147.568C249.495 150.156 248.293 153.067 246.039 154.483C243.786 155.898 240.653 155.706 238.602 154.038C236.551 152.37 235.712 149.337 236.631 146.84C235.419 145 235.126 142.594 235.853 140.501C236.581 138.408 238.319 136.71 240.401 136.022C239.451 134.86 239.39 133.141 239.946 131.736C240.502 130.331 241.603 129.208 242.785 128.278C245.675 125.983 249.414 124.588 253.052 125.124C256.69 125.65 260.075 128.379 260.793 131.989C260.873 132.393 260.934 132.848 261.237 133.131C261.651 133.515 262.308 133.414 262.864 133.293C265.32 132.716 267.917 132.069 270.301 132.848C273.191 133.788 275.162 136.963 274.748 139.985C277.769 138.479 281.831 138.934 284.024 141.502C286.217 144.07 285.762 148.639 282.822 150.318" fill="#263238"/>
<path d="M240.967 153.027C239.249 155.362 237.187 157.455 234.883 159.224C233.903 159.972 232.66 160.69 231.508 160.256C230.467 159.861 229.952 158.598 230.083 157.485C230.205 156.373 230.821 155.373 231.458 154.453C233.711 151.157 236.379 148.184 239.047 145.212" fill="#263238"/>
<path d="M237.127 153.199C237.026 153.027 232.529 147.123 228.406 153.148C224.283 159.164 231.144 162.055 231.266 161.893C231.397 161.732 237.117 153.209 237.117 153.209L237.127 153.199Z" fill="#FFBE9D"/>
<path d="M231.013 158.355C231.013 158.355 230.862 158.355 230.629 158.314C230.407 158.274 230.073 158.122 229.841 157.799C229.366 157.132 229.528 155.757 230.245 154.655C230.609 154.099 231.074 153.654 231.569 153.35C232.054 153.037 232.549 152.926 232.903 153.088C233.267 153.229 233.368 153.583 233.317 153.795C233.287 154.018 233.165 154.109 233.186 154.149C233.186 154.179 233.388 154.139 233.509 153.856C233.57 153.725 233.59 153.532 233.529 153.32C233.469 153.108 233.297 152.896 233.054 152.774C232.569 152.491 231.862 152.633 231.326 152.956C230.76 153.27 230.215 153.755 229.821 154.382C229.033 155.625 228.871 157.182 229.558 158.031C229.902 158.436 230.346 158.547 230.619 158.527C230.902 158.506 231.033 158.395 231.013 158.365V158.355Z" fill="#EB996E"/>
<path d="M260.692 147.103C260.692 147.103 260.742 147.163 260.843 147.275C260.954 147.386 261.116 147.537 261.348 147.73C261.803 148.114 262.49 148.66 263.501 149.145C264.006 149.388 264.592 149.61 265.259 149.731C265.926 149.863 266.674 149.903 267.452 149.731C268.22 149.559 269.008 149.195 269.695 148.619C270.362 148.033 270.928 147.194 271.039 146.193L270.736 146.233C271.403 148.013 272.727 149.741 274.596 150.904C275.526 151.49 276.587 151.925 277.718 152.168C278.284 152.279 278.881 152.34 279.487 152.269C280.083 152.208 280.699 151.986 281.185 151.602C281.771 151.157 282.185 150.55 282.498 149.933C282.811 149.317 283.044 148.67 283.256 148.043C283.468 147.406 283.63 146.749 283.65 146.082C283.67 145.425 283.468 144.697 282.953 144.252L282.7 144.494C283.539 145.526 284.711 146.173 285.893 146.436C287.076 146.708 288.268 146.617 289.309 146.264C290.34 145.9 291.209 145.253 291.775 144.474C292.351 143.706 292.684 142.867 292.846 142.088C293.169 140.511 292.836 139.227 292.492 138.449C292.128 137.66 291.785 137.337 291.785 137.337C291.754 137.357 292.058 137.711 292.381 138.499C292.684 139.268 292.977 140.531 292.633 142.048C292.462 142.796 292.128 143.595 291.562 144.323C291.017 145.05 290.188 145.647 289.208 145.991C288.228 146.324 287.086 146.395 285.964 146.122C284.843 145.869 283.751 145.243 282.963 144.282L282.71 144.525C283.135 144.889 283.307 145.485 283.286 146.092C283.276 146.698 283.115 147.325 282.912 147.942C282.488 149.165 282.003 150.5 280.962 151.319C280.073 152.026 278.86 152.036 277.789 151.814C276.698 151.592 275.677 151.177 274.788 150.611C272.989 149.489 271.696 147.831 271.039 146.122L270.807 145.516L270.736 146.163C270.635 147.072 270.13 147.851 269.513 148.407C268.877 148.963 268.139 149.317 267.411 149.489C266.684 149.671 265.966 149.64 265.32 149.529C264.673 149.418 264.097 149.216 263.602 148.993C262.601 148.538 261.904 148.023 261.429 147.669C260.964 147.305 260.722 147.103 260.712 147.113L260.692 147.103Z" fill="white"/>
<path d="M281.154 156.839C281.154 156.839 281.215 157.031 281.437 157.304C281.649 157.577 282.023 157.94 282.569 158.244C283.115 158.537 283.852 158.81 284.721 158.719C285.146 158.668 285.621 158.486 285.934 158.082C286.237 157.708 286.409 157.111 286.126 156.596L285.823 156.798L285.904 156.899C287.197 158.436 289.077 158.921 290.33 158.881C290.966 158.871 291.471 158.749 291.805 158.638C292.138 158.517 292.31 158.426 292.3 158.406C292.28 158.335 291.552 158.658 290.33 158.628C289.137 158.608 287.379 158.092 286.187 156.667L286.106 156.576L284.923 155.221L285.803 156.778C285.984 157.111 285.883 157.556 285.651 157.86C285.419 158.163 285.035 158.325 284.671 158.385C283.913 158.486 283.206 158.264 282.68 158.021C281.609 157.486 281.205 156.798 281.154 156.849V156.839Z" fill="white"/>
<path d="M267.128 167.1C267.128 167.161 267.664 167.07 268.513 167.11C269.352 167.15 270.524 167.393 271.635 168.04C272.747 168.687 273.525 169.597 273.98 170.315C274.434 171.033 274.616 171.538 274.677 171.518C274.717 171.518 274.626 170.962 274.212 170.183C273.798 169.405 273.01 168.414 271.837 167.727C270.665 167.039 269.412 166.837 268.533 166.857C267.644 166.878 267.128 167.06 267.139 167.1H267.128Z" fill="#EB996E"/>
<path d="M251.102 156.414C251.102 156.475 251.546 156.414 252.224 156.454C252.901 156.495 253.84 156.687 254.74 157.213C255.629 157.738 256.266 158.456 256.639 159.022C257.013 159.588 257.175 160.003 257.226 159.983C257.266 159.973 257.195 159.528 256.862 158.891C256.528 158.264 255.882 157.455 254.922 156.889C253.962 156.333 252.941 156.171 252.234 156.192C251.516 156.212 251.092 156.374 251.102 156.414Z" fill="#EB996E"/>
<path d="M247.798 175.137C247.798 175.137 247.979 175.097 248.222 175.056C248.464 175.006 248.808 174.996 249.172 175.097C249.899 175.309 250.485 175.683 250.546 175.582C250.586 175.521 250.122 175.006 249.263 174.743C248.828 174.632 248.404 174.682 248.131 174.814C247.858 174.945 247.757 175.107 247.787 175.147L247.798 175.137Z" fill="#EB996E"/>
<path d="M246.07 175.269C246.15 175.34 246.575 174.965 247.151 174.602C247.727 174.227 248.242 173.995 248.212 173.894C248.192 173.803 247.575 173.884 246.949 174.288C246.322 174.692 245.979 175.208 246.059 175.269H246.07Z" fill="#EB996E"/>
<path d="M120.009 279.127C101.649 293.392 98.8495 316.017 97.5965 328.998C96.3434 341.979 86.2991 393.883 86.2991 393.883C86.2991 393.883 65.3109 426.487 57.7827 440.307C50.2544 454.117 35.2081 482.981 35.2081 482.981L60.3595 498.54C60.3595 498.54 105.549 437.012 113.492 424.87C121.444 412.728 161.986 310.508 161.986 310.508L119.999 279.147L120.009 279.127Z" fill="#263238"/>
<path d="M179.801 312.772C181.064 315.199 214.411 397.533 213.541 405.762C212.672 413.992 171.09 498.53 171.09 498.53L140.341 485.498L171.959 415.296L172.828 405.651L143.372 349.865L152.901 308.698L179.791 312.772H179.801Z" fill="#263238"/>
<path d="M157.893 323.579C158.025 323.64 154.548 331.92 150.122 342.07C145.696 352.231 141.998 360.42 141.867 360.359C141.735 360.298 145.211 352.018 149.637 341.858C154.063 331.698 157.762 323.519 157.893 323.569V323.579Z" fill="#455A64"/>
<path d="M184.348 408.492C184.399 408.613 181.731 409.25 178.538 408.462C175.334 407.703 173.253 405.924 173.344 405.843C173.435 405.702 175.577 407.228 178.659 407.956C181.731 408.714 184.338 408.34 184.348 408.502V408.492Z" fill="#455A64"/>
<path d="M183.024 416.58C182.964 416.731 180.751 415.912 177.891 415.407C175.041 414.881 172.677 414.871 172.677 414.719C172.667 414.588 175.072 414.356 177.992 414.891C180.912 415.407 183.085 416.468 183.024 416.59V416.58Z" fill="#455A64"/>
<path d="M128.124 294.554C128.124 294.554 127.932 294.767 127.528 295.08C127.123 295.393 126.507 295.818 125.729 296.293C124.163 297.244 121.879 298.376 119.191 299.185C116.503 299.983 113.967 300.307 112.138 300.368C111.218 300.398 110.48 300.388 109.975 300.347C109.46 300.307 109.187 300.277 109.187 300.236C109.187 300.145 110.319 300.155 112.117 299.993C113.916 299.842 116.402 299.458 119.039 298.669C121.677 297.87 123.95 296.829 125.547 295.96C127.144 295.1 128.073 294.473 128.124 294.544V294.554Z" fill="#455A64"/>
<path d="M236.076 210.623L262.985 245.38L319.432 268.511L313.43 280.562L241.27 255.915L217.644 207.458L236.076 210.623Z" fill="#455A64"/>
<g opacity="0.2">
<path d="M236.076 210.623L262.985 245.38L319.432 268.511L313.43 280.562L241.27 255.915L217.644 207.458L236.076 210.623Z" fill="black"/>
</g>
<path d="M209.894 190.049C208.742 188.887 208.691 187.026 209.782 185.803L213.461 181.688C213.956 181.031 214.875 180.89 215.542 181.365C220.666 185.075 240.057 199.805 240.017 204.021C239.966 208.803 231.751 213.605 231.751 213.605L209.904 190.039L209.894 190.049Z" fill="#455A64"/>
<path d="M197.07 215.768C197.07 215.768 233.105 265.59 242.502 271.342C251.9 277.095 310.914 285.203 310.914 285.203L313.207 267.743L256.286 249.485C256.286 249.485 219.15 194.73 218.2 193.153C217.25 191.576 209.924 185.661 201.84 186.693C193.756 187.724 189.653 200.493 192.442 206.811C193.503 209.217 197.08 215.779 197.08 215.779L197.07 215.768Z" fill="#455A64"/>
<path d="M210.136 186.743C210.136 186.743 199.768 182.275 189.815 191.566C184.49 196.54 135.743 264.872 132.307 269.452L118.302 279.127C141.725 300.701 159.874 318.747 184.863 325.015L197.879 282.787L237.864 246.371L210.146 186.733L210.136 186.743Z" fill="#455A64"/>
<path d="M193.17 210.623C193.17 210.623 193.311 210.774 193.534 211.088C193.786 211.452 194.099 211.917 194.483 212.483C195.292 213.696 196.494 215.445 198 217.578C201.001 221.855 205.346 227.628 210.389 233.805C215.431 239.982 220.15 245.451 223.566 249.424C225.233 251.375 226.597 252.963 227.587 254.135C228.022 254.661 228.386 255.086 228.669 255.429C228.911 255.733 229.032 255.895 229.012 255.905C228.992 255.915 228.851 255.773 228.588 255.5C228.285 255.177 227.901 254.772 227.436 254.267C226.405 253.124 225.001 251.568 223.283 249.667C219.807 245.765 215.037 240.325 209.985 234.138C204.942 227.951 200.627 222.128 197.697 217.791C196.232 215.627 195.08 213.848 194.322 212.594C193.968 212.008 193.685 211.533 193.453 211.149C193.261 210.815 193.17 210.633 193.18 210.623H193.17Z" fill="#263238"/>
<path d="M313.197 267.733C313.197 267.733 313.096 267.713 312.914 267.662L312.086 267.409C311.338 267.167 310.267 266.813 308.893 266.368C306.093 265.438 302.051 264.093 296.999 262.415C286.843 258.998 272.615 254.206 256.195 248.676L256.114 248.646L256.063 248.575C252.375 243.126 248.424 237.292 244.352 231.267C238.087 221.996 232.125 213.16 226.698 205.123C223.99 201.099 221.413 197.288 219.008 193.709C218.392 192.819 217.856 191.909 217.179 191.151C216.856 190.757 216.462 190.433 216.078 190.11C215.694 189.796 215.34 189.432 214.926 189.16C213.309 188.017 211.51 187.34 209.752 186.966C206.175 186.4 202.8 187.188 200.324 188.654C197.818 190.1 196.161 192.061 195.13 193.81C194.726 194.74 194.251 195.529 194.079 196.297C193.857 197.045 193.645 197.682 193.614 198.228C193.483 199.128 193.422 199.563 193.372 199.856C193.342 199.856 193.392 199.29 193.503 198.208C193.523 197.662 193.715 197.015 193.928 196.257C194.079 195.468 194.544 194.669 194.948 193.719C195.959 191.93 197.626 189.908 200.173 188.411C202.679 186.895 206.135 186.056 209.813 186.612C211.632 186.986 213.481 187.673 215.158 188.846C215.583 189.119 215.946 189.493 216.351 189.817C216.745 190.15 217.149 190.484 217.493 190.898C218.21 191.697 218.746 192.617 219.362 193.497C221.787 197.065 224.374 200.877 227.092 204.89C232.529 212.918 238.501 221.743 244.776 231.014C248.848 237.04 252.789 242.883 256.478 248.332L256.346 248.231C272.737 253.832 286.944 258.685 297.09 262.152C302.122 263.891 306.144 265.286 308.933 266.247C310.297 266.732 311.348 267.106 312.096 267.369C312.439 267.49 312.702 267.591 312.904 267.672C313.086 267.743 313.177 267.784 313.177 267.784L313.197 267.733Z" fill="#263238"/>
<path d="M217.644 245.38C217.644 245.38 217.482 245.643 217.119 246.068C216.765 246.492 216.199 247.069 215.482 247.746C214.037 249.111 211.874 250.819 209.227 252.316C206.579 253.802 203.992 254.762 202.082 255.288C201.122 255.551 200.344 255.733 199.799 255.814C199.253 255.905 198.95 255.945 198.94 255.905C198.92 255.824 200.112 255.541 201.971 254.924C203.831 254.317 206.357 253.306 208.974 251.841C211.581 250.375 213.744 248.727 215.239 247.453C216.735 246.179 217.583 245.299 217.644 245.36V245.38Z" fill="#263238"/>
<path d="M194.423 275.508C194.423 275.508 193.806 275.629 192.665 275.74C191.533 275.871 189.886 275.973 187.844 276.043C183.772 276.175 178.113 275.983 171.949 275.012C165.795 274.031 160.349 272.454 156.519 271.059C154.599 270.362 153.073 269.755 152.032 269.28C150.991 268.815 150.426 268.542 150.436 268.512C150.446 268.481 151.042 268.683 152.113 269.088C153.174 269.502 154.72 270.058 156.65 270.705C160.5 271.999 165.917 273.506 172.04 274.486C178.164 275.457 183.782 275.7 187.844 275.659C189.876 275.639 191.523 275.588 192.654 275.528C193.786 275.477 194.423 275.457 194.423 275.497V275.508Z" fill="#263238"/>
<path d="M195.807 269.381C195.817 269.442 194.756 269.775 192.988 270.078C191.219 270.382 188.734 270.624 185.995 270.513C183.247 270.402 180.791 269.967 179.053 269.522C177.315 269.078 176.284 268.663 176.304 268.602C176.325 268.522 177.396 268.815 179.144 269.158C180.882 269.512 183.317 269.876 186.026 269.987C188.734 270.089 191.179 269.917 192.947 269.704C194.716 269.492 195.797 269.29 195.817 269.371L195.807 269.381Z" fill="#263238"/>
<g opacity="0.2">
<path d="M199.445 219.974L215.603 247.402C215.603 247.402 206.518 253.883 202.729 254.904C202.729 254.904 211.056 252.589 217.644 249.313L226.163 253.175L199.445 219.984V219.974Z" fill="black"/>
</g>
<g opacity="0.2">
<path d="M189.663 275.689C184.318 278.581 177.558 279.723 171.222 278.834C164.876 277.934 159.015 275.012 155.205 270.827C155.205 270.827 168.392 274.416 173.455 274.982C178.517 275.548 189.663 275.689 189.663 275.689Z" fill="black"/>
</g>
<path d="M135.965 281.846C136.006 282.008 133.439 282.362 130.872 284.081C129.084 285.233 127.871 286.659 127.275 287.366L127.073 287.225C127.366 286.891 127.548 286.719 127.588 286.75C127.629 286.78 127.517 286.992 127.275 287.376L127.073 287.235C127.538 286.426 128.72 284.849 130.579 283.656C133.277 281.856 135.985 281.725 135.965 281.856V281.846Z" fill="#263238"/>
<path d="M149.274 292.664C149.385 292.735 148.101 294.767 145.949 296.768C143.797 298.78 141.685 299.913 141.614 299.791C141.533 299.66 143.483 298.346 145.585 296.384C147.697 294.423 149.142 292.573 149.274 292.664Z" fill="#263238"/>
<path d="M163.34 304.513C163.461 304.573 162.37 306.818 160.349 309.102C158.348 311.407 156.266 312.782 156.195 312.671C156.094 312.55 157.994 311.013 159.955 308.759C161.925 306.514 163.198 304.432 163.34 304.513Z" fill="#263238"/>
<path d="M178.123 310.417C178.255 310.417 178.053 312.894 176.8 315.644C175.557 318.403 173.829 320.173 173.738 320.082C173.617 319.981 175.122 318.1 176.325 315.431C177.547 312.762 177.972 310.397 178.133 310.427L178.123 310.417Z" fill="#263238"/>
<path d="M213.663 188.098C213.602 188.068 213.713 187.673 214.037 187.087C214.36 186.511 214.966 185.763 215.835 185.207C216.704 184.64 217.584 184.367 218.22 184.206C218.857 184.054 219.261 184.024 219.281 184.094C219.342 184.266 217.735 184.64 216.118 185.651C214.512 186.693 213.814 188.199 213.663 188.108V188.098Z" fill="#263238"/>
<path d="M220.726 195.033C220.605 194.983 221.272 193.385 222.868 192.021C224.455 190.646 226.142 190.221 226.163 190.353C226.223 190.504 224.697 191.121 223.212 192.425C221.706 193.709 220.858 195.114 220.726 195.033Z" fill="#263238"/>
<path d="M234.61 197.965C234.732 198.016 233.721 200.159 231.67 202.191C229.629 204.233 227.486 205.234 227.436 205.113C227.355 204.971 229.326 203.798 231.296 201.817C233.287 199.856 234.469 197.884 234.61 197.965Z" fill="#263238"/>
<path d="M312.419 268.501L320.584 257.3L326.627 255.975L339.693 253.316C339.693 253.316 341.218 254.226 339.369 256.511L338.318 257.37L343.381 257.239C343.381 257.239 343.674 259.635 341.067 260.98L332.538 263.457L329.325 264.427C329.325 264.427 336.055 264.892 338.389 264.053C340.733 263.214 342.815 263.315 342.815 263.315C342.815 263.315 344.22 264.751 342.482 266.611C340.744 268.471 335.63 269.037 334.418 269.34C333.205 269.644 328.89 269.745 328.89 269.745C328.89 269.745 330.598 270.887 333.508 270.857C336.419 270.827 339.42 270.918 339.42 270.918C339.42 270.918 339.571 273.688 337.793 274.234C336.014 274.769 328.183 274.628 328.183 274.628L326.021 275.811C326.021 275.811 320.251 281.897 318.219 282.766C316.198 283.636 310.893 285.203 310.893 285.203L312.409 268.501H312.419Z" fill="#FFBE9D"/>
<path d="M338.995 257.522C339.016 257.583 338.288 257.967 337.035 258.422C335.782 258.877 334.003 259.382 331.993 259.706C329.982 260.019 328.122 260.08 326.799 260.029C325.465 259.979 324.646 259.837 324.656 259.776C324.656 259.615 327.94 259.827 331.912 259.19C335.883 258.583 338.945 257.37 339.005 257.532L338.995 257.522Z" fill="#EB996E"/>
<path d="M443.906 473.336C443.906 473.336 422.402 448.577 414.288 423.808C406.173 399.049 410.024 401.89 410.024 401.89C410.024 401.89 420.977 425.941 429.294 437.558C437.61 449.174 452.424 466.229 452.424 466.229L443.906 473.336Z" fill="#455A64"/>
<path d="M448.19 405.752C447.493 404.539 445.654 405.176 445.856 406.551C447.17 415.245 449.999 435.657 449.888 448.901C449.746 466.098 449.888 472.75 449.888 472.75H458.841C458.841 472.75 457.254 437.204 455.233 426.356C453.819 418.753 450.807 410.322 448.19 405.752Z" fill="#455A64"/>
<path d="M453.071 469.849C453.071 469.849 458.699 458 460.437 443.108C461.175 436.779 459.861 428.226 457.901 416.802C456.951 411.272 456.739 407.067 456.769 404.145C456.79 401.941 459.7 401.223 460.781 403.144C461.862 405.075 464.985 411.656 465.783 415.791C467.946 427.064 470.401 432.695 468.532 443.391C466.652 454.087 459.72 470.556 459.72 470.556L453.071 469.838V469.849Z" fill="#455A64"/>
<path d="M461.135 470.576C461.135 470.576 484.75 419.815 486.377 412.283C488.014 404.751 493.582 387.393 494.229 388.383C494.886 389.364 495.866 398.534 491.611 409.008C487.357 419.481 469.188 472.123 469.188 472.123H461.125" fill="#455A64"/>
<path d="M450.484 468.302C450.484 468.302 450.241 468.16 449.827 467.847C449.413 467.533 448.776 467.078 447.998 466.451C446.422 465.218 444.219 463.338 441.652 460.851C436.499 455.897 430.082 448.264 424.524 438.852C418.956 429.45 415.207 420.25 412.833 413.516C411.64 410.15 410.781 407.39 410.216 405.469C409.922 404.509 409.73 403.761 409.589 403.255C409.458 402.75 409.387 402.477 409.407 402.477C409.427 402.477 409.518 402.729 409.69 403.225C409.872 403.771 410.104 404.499 410.408 405.408C411.024 407.309 411.943 410.049 413.176 413.395C415.632 420.088 419.421 429.227 424.969 438.599C430.506 447.971 436.842 455.604 441.915 460.598C444.441 463.115 446.604 465.026 448.13 466.3C448.887 466.957 449.494 467.422 449.898 467.766C450.302 468.099 450.504 468.291 450.494 468.302H450.484Z" fill="#263238"/>
<path d="M453.071 443.947C453.071 443.947 452.96 443.421 452.859 442.461C452.748 441.41 452.596 440.045 452.424 438.387C452.05 434.949 451.464 430.218 450.636 425.011C449.797 419.805 448.867 415.124 448.15 411.747C447.796 410.13 447.513 408.785 447.291 407.744C447.089 406.804 446.988 406.268 447.028 406.268C447.058 406.268 447.22 406.773 447.483 407.703C447.746 408.634 448.099 409.988 448.503 411.677C449.312 415.043 450.302 419.724 451.141 424.941C451.98 430.157 452.505 434.909 452.788 438.356C452.929 440.085 453.02 441.48 453.061 442.441C453.101 443.411 453.111 443.947 453.081 443.947H453.071Z" fill="#263238"/>
<path d="M458.598 402.76C458.598 402.76 458.71 402.972 458.881 403.407C459.063 403.882 459.296 404.509 459.589 405.297C459.902 406.116 460.256 407.127 460.599 408.32C460.953 409.513 461.408 410.858 461.751 412.384C461.933 413.142 462.135 413.941 462.337 414.77C462.539 415.599 462.681 416.479 462.853 417.378C463.237 419.178 463.479 421.139 463.762 423.181C464.227 427.296 464.479 431.856 464.328 436.638C464.136 441.419 463.56 445.949 462.802 450.023C462.368 452.045 461.994 453.986 461.478 455.755C461.236 456.645 461.034 457.514 460.771 458.323C460.508 459.132 460.256 459.92 460.013 460.658C459.558 462.155 459.013 463.469 458.578 464.632C458.154 465.804 457.719 466.785 457.355 467.574C457.012 468.332 456.729 468.938 456.517 469.403C456.325 469.818 456.214 470.03 456.193 470.03C456.173 470.03 456.254 469.798 456.426 469.363C456.618 468.888 456.87 468.271 457.174 467.503C457.517 466.704 457.921 465.713 458.315 464.541C458.72 463.368 459.245 462.064 459.68 460.557C459.912 459.809 460.155 459.031 460.397 458.222C460.64 457.403 460.832 456.544 461.074 455.654C461.569 453.885 461.933 451.964 462.347 449.942C463.075 445.888 463.631 441.379 463.823 436.627C463.974 431.876 463.732 427.347 463.297 423.242C463.024 421.2 462.802 419.249 462.438 417.459C462.266 416.559 462.135 415.68 461.953 414.851C461.761 414.022 461.579 413.223 461.408 412.465C461.094 410.938 460.66 409.594 460.336 408.401C460.023 407.198 459.69 406.187 459.407 405.358C459.154 404.569 458.942 403.932 458.79 403.447C458.659 403.002 458.588 402.77 458.608 402.77L458.598 402.76Z" fill="#263238"/>
<path d="M493.966 389.395C493.966 389.395 493.966 389.475 493.946 389.627L493.845 390.284C493.744 390.86 493.612 391.72 493.38 392.812C492.925 394.995 492.167 398.14 490.985 401.951C489.813 405.762 488.196 410.241 486.286 415.144C484.386 420.058 482.163 425.416 480.072 431.118C477.939 436.81 476.302 442.36 474.766 447.405C473.241 452.449 471.796 456.979 470.391 460.709C469.007 464.45 467.673 467.402 466.662 469.393C466.177 470.394 465.743 471.153 465.46 471.668L465.126 472.244C465.045 472.376 465.005 472.437 464.995 472.437C464.995 472.437 465.015 472.356 465.076 472.224C465.157 472.062 465.247 471.86 465.359 471.618C465.611 471.092 466.015 470.324 466.47 469.313C467.42 467.301 468.703 464.339 470.037 460.598C471.391 456.857 472.796 452.328 474.302 447.273C475.817 442.228 477.444 436.658 479.586 430.946C481.688 425.234 483.911 419.886 485.842 414.982C487.772 410.089 489.419 405.641 490.631 401.85C491.854 398.059 492.662 394.945 493.178 392.771C493.44 391.689 493.602 390.84 493.734 390.264C493.794 390.001 493.845 389.789 493.885 389.617C493.926 389.475 493.946 389.395 493.956 389.395H493.966Z" fill="#263238"/>
<path d="M421.159 378.183C419.674 376.707 417.198 378.254 417.814 380.255C418.441 382.287 419.381 384.916 420.785 387.888C424.029 394.793 433.568 419.552 438.025 433.15C442.491 446.748 448.776 472.123 448.776 472.123L458.305 470.576C458.305 470.576 449.585 428.894 441.066 413.87C434.225 401.799 427.374 384.36 421.159 378.183Z" fill="#455A64"/>
<path d="M440.632 441.662C440.632 441.662 440.834 442.057 441.127 442.805C441.41 443.553 441.794 444.645 442.228 446.01C443.107 448.729 444.179 452.53 445.26 456.746C446.341 460.972 447.24 464.814 447.867 467.594C448.15 468.908 448.392 470.02 448.584 470.9C448.746 471.678 448.817 472.123 448.776 472.123C448.746 472.123 448.605 471.709 448.392 470.94L447.523 467.675C446.796 464.804 445.836 461.033 444.775 456.868C443.693 452.652 442.673 448.85 441.885 446.111C441.511 444.817 441.187 443.735 440.945 442.865C440.712 442.097 440.611 441.672 440.642 441.662H440.632Z" fill="#263238"/>
<path d="M453.566 471.345C453.566 471.345 453.536 471.264 453.516 471.092C453.485 470.89 453.455 470.647 453.404 470.344C453.303 469.687 453.212 468.706 453.01 467.452C452.657 464.945 452.04 461.336 451.01 456.938C449.989 452.53 448.503 447.354 446.553 441.703C444.603 436.051 442.147 429.945 439.369 423.636C433.76 411.019 428.162 399.828 424.484 391.548C422.625 387.423 421.18 384.046 420.23 381.701C419.745 380.528 419.401 379.608 419.159 378.991C419.047 378.698 418.966 378.466 418.896 378.284C418.835 378.122 418.815 378.041 418.825 378.031C418.825 378.031 418.876 378.102 418.946 378.264L419.26 378.951C419.542 379.598 419.926 380.488 420.422 381.63C421.422 383.955 422.918 387.302 424.817 391.406C428.576 399.636 434.225 410.797 439.843 423.444C442.622 429.773 445.068 435.889 447.008 441.571C448.948 447.243 450.403 452.449 451.373 456.877C452.354 461.306 452.929 464.935 453.223 467.452C453.394 468.706 453.455 469.697 453.516 470.354L453.576 471.112C453.586 471.284 453.586 471.375 453.576 471.375L453.566 471.345Z" fill="#263238"/>
<path d="M458.305 470.576C458.305 470.576 458.154 470.01 457.982 468.979C457.79 467.857 457.547 466.381 457.244 464.591C456.587 460.901 455.587 455.806 454.142 450.266C452.717 444.726 451.111 439.792 449.868 436.243C449.261 434.535 448.756 433.13 448.382 432.058C448.029 431.067 447.847 430.521 447.877 430.501C447.907 430.491 448.15 431.017 448.564 431.987C448.978 432.958 449.544 434.363 450.211 436.122C451.535 439.64 453.202 444.574 454.637 450.134C456.082 455.695 457.032 460.81 457.598 464.521C457.871 466.381 458.073 467.887 458.184 468.939C458.295 469.98 458.346 470.566 458.315 470.566L458.305 470.576Z" fill="#263238"/>
<path d="M477.859 469.201H440.662V514.544H477.859V469.201Z" fill="#0951FE"/>
<g opacity="0.3">
<path d="M477.859 469.201H440.662V514.544H477.859V469.201Z" fill="black"/>
</g>
<path d="M465.995 469.201H432.992V514.544H465.995V469.201Z" fill="#0951FE"/>
</g>
</g>
<defs>
<clipPath id="clip0_685_26588">
<rect width="708" height="520" fill="white"/>
</clipPath>
<clipPath id="clip1_685_26588">
<rect width="636" height="406" fill="white" transform="translate(20 122)"/>
</clipPath>
</defs>
</svg>
