<svg width="708" height="520" viewBox="0 0 708 520" fill="none" xmlns="http://www.w3.org/2000/svg">
<g clip-path="url(#clip0_685_26914)">
<path opacity="0.78" d="M652 297.352C652 383.188 615.604 460.533 557.4 514.823C555.518 516.566 553.619 518.292 551.702 520H157.298C155.381 518.292 153.482 516.566 151.6 514.823C93.3965 460.533 57 383.188 57 297.352C57 133.136 190.206 0 354.509 0C518.811 0 652 133.136 652 297.352Z" fill="#EFF4FF"/>
<path d="M140.688 126.596L281.336 157.02L438.904 29.699L606.384 213.208L544.399 366.501L530.155 266.773L220.905 209.584L139.117 298.923L140.688 126.596Z" stroke="#F2DBB5" stroke-width="0.5" stroke-miterlimit="10"/>
<path d="M220.905 209.584L281.336 157.02L493.085 125.267L530.155 266.773L606.384 213.208" stroke="#F2DBB5" stroke-width="0.5" stroke-miterlimit="10"/>
<path d="M281.336 157.02L276.121 58.3108L438.904 29.699" stroke="#F2DBB5" stroke-width="0.5" stroke-miterlimit="10"/>
<path d="M493.085 125.267L220.905 209.584L140.688 126.596" stroke="#F2DBB5" stroke-width="0.5" stroke-miterlimit="10"/>
<g clip-path="url(#clip1_685_26914)">
<path d="M540.976 414.451H573.892V400.551H540.976V414.451Z" fill="#EBEBEB"/>
<path d="M559.336 431.977H592.252V418.078H559.336V431.977Z" fill="#EBEBEB"/>
<path d="M522.603 431.977H555.519V418.078H522.603V431.977Z" fill="#EBEBEB"/>
<path d="M98.36 431.977H131.276V418.078H98.36V431.977Z" fill="#EBEBEB"/>
<path d="M98.36 56.8997L131.276 56.8997V43.0001H98.36V56.8997Z" fill="#EBEBEB"/>
<path d="M80 74.4263H112.916V60.5267H80V74.4263Z" fill="#EBEBEB"/>
<path d="M559.336 56.9121L592.252 56.9121V43.0125H559.336V56.9121Z" fill="#EBEBEB"/>
<path d="M501.546 208.391H468.63V222.291H501.546V208.391Z" fill="#EBEBEB"/>
<path d="M483.186 190.865H450.27V204.764H483.186V190.865Z" fill="#EBEBEB"/>
<path d="M110.542 79.1213H328.985V383.943H110.542V79.1213ZM322.508 85.5929H117.018V377.459H322.508V85.5929Z" fill="#EBEBEB"/>
<path d="M223.001 87.2822H216.525V380.689H223.001V87.2822Z" fill="#EBEBEB"/>
<path d="M104.675 101.219L334.864 101.219V92.2013L104.675 92.2013V101.219Z" fill="#EBEBEB"/>
<path d="M104.675 111.38L334.864 111.38V102.362L104.675 102.362V111.38Z" fill="#EBEBEB"/>
<path d="M104.675 121.528L334.864 121.528V112.51L104.675 112.51V121.528Z" fill="#EBEBEB"/>
<path d="M104.675 131.664L334.864 131.664V122.646L104.675 122.646V131.664Z" fill="#EBEBEB"/>
<path d="M104.675 141.813L334.864 141.812V132.795L104.675 132.795V141.813Z" fill="#EBEBEB"/>
<path d="M104.675 151.961L334.864 151.961V142.943L104.675 142.943V151.961Z" fill="#EBEBEB"/>
<path d="M104.675 162.097L334.864 162.097V153.079L104.675 153.079V162.097Z" fill="#EBEBEB"/>
<path d="M104.675 172.257L334.864 172.257V163.239L104.675 163.239V172.257Z" fill="#EBEBEB"/>
<path d="M104.675 182.406L334.864 182.406V173.388L104.675 173.388V182.406Z" fill="#EBEBEB"/>
<path d="M125.533 90.3752H123.917V265.878H125.533V90.3752Z" fill="#263238"/>
<path d="M121.841 273.417H127.597L126.155 265.157H123.283L121.841 273.417Z" fill="#263238"/>
<path d="M119.691 90.3752H118.075V310.148H119.691V90.3752Z" fill="#263238"/>
<path d="M116.011 316.222H121.767L120.325 307.962H117.453L116.011 316.222Z" fill="#263238"/>
<path d="M94.6059 96.7102L344.921 96.7102V77.842L94.6059 77.842V96.7102Z" fill="#DBDBDB"/>
<path d="M555.171 164.438C577.229 151.041 584.243 122.312 570.837 100.269C557.43 78.2268 528.68 71.2181 506.621 84.6149C484.562 98.0116 477.548 126.741 490.955 148.783C504.362 170.826 533.112 177.834 555.171 164.438Z" fill="#EBEBEB"/>
<path d="M558.933 161.904C578.994 147.62 583.67 119.791 569.376 99.7446C555.083 79.6982 527.233 75.0262 507.171 89.3093C487.11 103.592 482.435 131.422 496.728 151.468C511.022 171.515 538.872 176.187 558.933 161.904Z" fill="#DBDBDB"/>
<path d="M557.301 159.59C576.089 146.204 580.459 120.134 567.063 101.36C553.668 82.5868 527.578 78.2195 508.791 91.6055C490.004 104.992 485.633 131.062 499.029 149.835C512.425 168.609 538.514 172.976 557.301 159.59Z" fill="white"/>
<path opacity="0.5" d="M573.879 116.734C554.848 128.248 523.585 147.154 506.108 157.513C501.21 153.377 497.27 148.135 494.697 142.173L552.499 88.6365C563.264 94.3007 571.244 104.523 573.879 116.734Z" fill="#EBEBEB"/>
<path opacity="0.5" d="M574.799 127.056C574.638 131.826 573.68 136.397 572.04 140.62L519.931 165.252C517.643 164.494 515.443 163.55 513.355 162.42C529.092 153.327 557.856 136.794 574.812 127.056H574.799Z" fill="#EBEBEB"/>
<path d="M533.455 86.8726H532.647V93.1951H533.455V86.8726Z" fill="#C7C7C7"/>
<path d="M514.009 91.8517L513.309 92.2554L516.472 97.7308L517.172 97.3271L514.009 91.8517Z" fill="#C7C7C7"/>
<path d="M499.67 105.86L499.266 106.56L504.745 109.721L505.149 109.022L499.67 105.86Z" fill="#C7C7C7"/>
<path d="M500.626 125.193H494.299V126H500.626V125.193Z" fill="#C7C7C7"/>
<path d="M504.749 141.409L499.271 144.572L499.675 145.271L505.154 142.108L504.749 141.409Z" fill="#C7C7C7"/>
<path d="M516.51 153.467L513.348 158.944L514.048 159.347L517.21 153.871L516.51 153.467Z" fill="#C7C7C7"/>
<path d="M533.455 157.985H532.647V164.308H533.455V157.985Z" fill="#C7C7C7"/>
<path d="M549.603 153.44L548.903 153.844L552.067 159.319L552.766 158.916L549.603 153.44Z" fill="#C7C7C7"/>
<path d="M561.346 141.452L560.942 142.151L566.421 145.313L566.825 144.614L561.346 141.452Z" fill="#C7C7C7"/>
<path d="M571.791 125.193H565.464V126H571.791V125.193Z" fill="#C7C7C7"/>
<path d="M566.393 105.902L560.915 109.065L561.319 109.764L566.797 106.601L566.393 105.902Z" fill="#C7C7C7"/>
<path d="M552.081 91.8767L548.92 97.3538L549.62 97.7571L552.781 92.28L552.081 91.8767Z" fill="#C7C7C7"/>
<path d="M533.654 89.7419L535.034 128.41L531.068 128.36L532.573 89.7295L533.654 89.7419Z" fill="#C7C7C7"/>
<path d="M557.757 112.113L531.727 128.72L529.825 125.23L557.247 111.169L557.757 112.113Z" fill="#A6A6A6"/>
<path d="M534.4 125.59C534.4 126.336 533.791 126.944 533.045 126.944C532.299 126.944 531.69 126.336 531.69 125.59C531.69 124.845 532.299 124.236 533.045 124.236C533.791 124.236 534.4 124.845 534.4 125.59Z" fill="#C7C7C7"/>
<path d="M578.678 373.286C573.308 368.019 566.359 361.66 558.142 363.933C550.41 366.069 547.452 374.503 546.072 381.522C544.282 390.577 542.902 399.719 541.46 408.836C540.006 418.041 538.639 427.257 537.321 436.486C536.575 441.691 535.829 446.896 535.108 452.1C534.748 454.709 534.387 457.305 534.027 459.913C533.679 462.472 533.244 465.018 533.107 467.602C533.057 468.422 534.35 468.546 534.537 467.764C535.531 463.416 535.941 458.907 536.588 454.497C537.234 450.063 537.868 445.629 538.514 441.194C539.807 432.387 541.137 423.593 542.467 414.786C543.797 405.979 545.165 397.185 546.569 388.391C547.763 380.938 548.322 371.671 554.935 366.752C558.565 364.057 563.189 364.02 567.304 365.597C571.654 367.262 575.135 370.367 578.541 373.448C578.653 373.547 578.802 373.385 578.702 373.286H578.678Z" fill="#263238"/>
<path d="M571.319 367.907C571.319 367.907 560.33 363.957 554.91 371.969C549.491 379.981 555.967 400.365 605.988 411.855C605.988 411.855 604.682 390.042 593.955 366.665C583.227 343.301 564.121 352.145 571.319 367.907Z" fill="#3A74FE"/>
<path d="M603.116 408.513C602.432 407.097 601.45 405.78 600.605 404.464C599.772 403.172 598.927 401.893 598.069 400.613C597.423 399.657 596.764 398.7 596.118 397.756C596.167 397.52 596.18 397.284 596.205 397.036C596.267 396.601 596.317 396.166 596.379 395.731C596.503 394.8 596.64 393.856 596.777 392.924C596.913 391.993 597.075 391.061 597.249 390.129C597.435 389.185 597.522 388.067 597.908 387.186C597.97 387.036 597.709 386.962 597.684 387.136C597.622 387.695 597.386 388.254 597.236 388.788C597.125 389.21 597.013 389.633 596.901 390.055C596.652 390.999 596.428 391.955 596.217 392.912C596.018 393.794 595.857 394.676 595.707 395.57C595.633 395.992 595.571 396.427 595.509 396.849C594.614 395.582 593.706 394.315 592.774 393.086C590.114 389.583 587.304 386.229 584.396 382.937C584.396 382.9 584.433 382.888 584.445 382.85C584.706 377.596 584.582 372.404 585.751 367.237C585.788 367.1 585.564 367.013 585.539 367.162C584.445 372.007 583.351 377.099 583.675 382.105C582.631 380.938 581.574 379.782 580.517 378.64C578.081 376.019 575.595 373.447 573.059 370.926C572.96 370.827 572.798 370.976 572.897 371.075C577.111 375.609 581.114 380.329 585.017 385.136C581.984 385.037 578.889 385.248 575.868 385.471C572.475 385.72 569.106 386.155 565.737 386.627C565.588 386.651 565.638 386.875 565.775 386.85C569.118 386.353 572.5 386.08 575.893 385.943C579.162 385.807 582.407 385.943 585.664 385.943C587.764 388.552 589.853 391.185 591.904 393.831C591.755 393.831 591.605 393.831 591.444 393.831C590.673 393.819 589.915 393.806 589.144 393.819C587.628 393.843 586.099 393.955 584.582 394.079C581.474 394.34 578.392 394.775 575.346 395.458C575.197 395.495 575.247 395.694 575.383 395.682C578.454 395.334 581.537 395.048 584.632 394.937C586.111 394.887 587.578 394.887 589.057 394.887C589.828 394.887 590.586 394.887 591.357 394.887C591.817 394.887 592.239 394.949 592.625 394.775C593.967 396.526 595.322 398.265 596.652 400.017C597.709 401.408 598.765 402.824 599.785 404.24C600.829 405.693 601.786 407.283 602.955 408.637C603.042 408.737 603.191 408.625 603.141 408.513H603.116Z" fill="#263238"/>
<path d="M576.104 379.261C574.352 378.975 572.524 379 570.759 379C568.969 379 567.192 379.049 565.402 379.112C565.24 379.112 565.253 379.348 565.414 379.335C567.229 379.211 569.031 379.174 570.846 379.199C572.599 379.223 574.352 379.397 576.104 379.348C576.167 379.348 576.167 379.273 576.104 379.261Z" fill="#263238"/>
<path d="M591.804 383.285C592.016 381.584 592.227 379.869 592.587 378.18C592.625 378.019 592.389 377.969 592.364 378.13C592.103 379.807 591.779 381.484 591.531 383.161C591.407 384.006 591.295 384.85 591.183 385.683C591.083 386.453 590.909 387.285 590.984 388.067C590.996 388.217 591.245 388.229 591.282 388.092C591.481 387.335 591.469 386.49 591.543 385.707C591.618 384.9 591.705 384.08 591.804 383.273V383.285Z" fill="#263238"/>
<path d="M588.523 364.367C588.088 366.032 587.652 367.709 587.342 369.398C587.18 370.255 587.056 371.112 586.944 371.982C586.832 372.802 586.683 373.671 586.782 374.503C586.782 374.565 586.894 374.578 586.907 374.503C587.155 373.733 587.193 372.889 587.304 372.094C587.416 371.261 587.541 370.429 587.69 369.609C587.988 367.87 588.299 366.144 588.746 364.429C588.784 364.293 588.572 364.218 588.535 364.355L588.523 364.367Z" fill="#263238"/>
<path d="M523.386 465.751C523.113 462.609 522.802 459.454 522.467 456.323C521.808 450.1 521.049 443.877 520.217 437.679C519.384 431.493 518.588 425.295 517.594 419.134C517.134 416.314 516.661 413.407 515.692 410.712C514.847 408.389 513.454 406.29 511.018 405.445C505.138 403.421 501.16 409.507 498.786 413.83C498.712 413.954 498.898 414.053 498.985 413.942C500.402 411.904 504.343 406.166 508.805 406.427C511.813 406.613 514.213 408.737 515.655 416.215C519.247 434.859 522.491 472.707 522.864 475.192C523.063 476.508 523.995 476.446 523.995 475.043C524.008 471.95 523.647 468.844 523.386 465.764V465.751Z" fill="#263238"/>
<path d="M500.365 411.494C500.365 411.494 505.511 393.347 494.137 402.414C475.205 417.519 474.534 450.386 474.534 450.386C474.534 450.386 508.184 430.859 512.373 417.978C518.601 398.787 500.365 411.494 500.365 411.494Z" fill="#3A74FE"/>
<path d="M506.742 420.413C504.107 420.947 501.422 421.295 498.761 421.68C497.493 421.866 496.238 422.04 494.97 422.214C494.112 422.326 493.255 422.413 492.397 422.512C494.908 419.059 497.431 415.631 499.83 412.103C499.917 411.966 499.719 411.83 499.607 411.942C497.605 413.979 495.753 416.165 493.988 418.426C493.491 417.022 492.994 415.618 492.496 414.215C491.925 412.587 491.315 410.973 490.893 409.296C490.856 409.159 490.632 409.221 490.682 409.358C491.141 411.022 491.465 412.724 491.912 414.389C492.347 416.003 492.832 417.593 493.404 419.158C492.173 420.761 490.992 422.4 489.836 424.052C489.252 422.413 488.543 420.823 488.034 419.158C487.996 419.022 487.773 419.084 487.822 419.221C488.432 421.059 488.755 422.984 489.314 424.835C488.543 425.965 487.773 427.096 487.027 428.226C485.672 430.325 484.392 432.462 483.136 434.611C482.937 434.722 482.813 434.884 482.838 435.12C480.712 438.797 478.686 442.523 476.697 446.287C476.635 446.411 476.821 446.523 476.896 446.399C478.897 442.685 481.11 439.07 483.422 435.505C483.422 435.505 483.434 435.505 483.447 435.505C483.696 435.368 484.242 435.356 484.553 435.294C484.939 435.219 485.324 435.132 485.709 435.045C486.579 434.859 487.437 434.635 488.307 434.412C490.01 433.99 491.701 433.592 493.441 433.294C493.578 433.269 493.516 433.046 493.379 433.083C491.34 433.468 489.302 433.704 487.238 433.94C486.269 434.052 485.299 434.176 484.329 434.337C484.292 434.337 484.242 434.35 484.193 434.362C485.399 432.524 486.629 430.698 487.872 428.897C489.09 427.121 490.346 425.369 491.614 423.63C492.782 423.469 493.938 423.158 495.094 422.935C496.4 422.686 497.705 422.438 498.998 422.177C501.608 421.655 504.194 421.084 506.816 420.649C506.953 420.624 506.891 420.401 506.754 420.438L506.742 420.413Z" fill="#263238"/>
<path d="M486.517 422.202C486.356 421.717 486.219 421.245 486.057 420.761C485.734 419.755 485.498 418.748 485.287 417.717C485.262 417.581 485.038 417.643 485.075 417.78C485.299 418.798 485.535 419.829 485.771 420.848C486.008 421.854 486.256 422.91 486.654 423.866C486.753 424.102 487.114 424.003 487.039 423.754C486.89 423.233 486.691 422.723 486.517 422.214V422.202Z" fill="#263238"/>
<path d="M510.185 416.202C508.656 416.438 507.102 416.537 505.561 416.674C504.007 416.811 502.478 417.022 500.937 417.258C500.85 417.27 500.85 417.395 500.937 417.395C502.491 417.283 504.02 417.171 505.561 416.972C507.102 416.774 508.631 416.538 510.185 416.438C510.334 416.438 510.322 416.19 510.185 416.215V416.202Z" fill="#263238"/>
<path d="M548.148 442.772C547.551 429.406 546.706 416.066 545.364 402.762C544.692 396.129 543.947 389.509 543.014 382.913C542.094 376.454 540.988 369.982 539.186 363.697C537.806 358.89 536.003 354.058 532.784 350.145C529.614 346.294 524.928 343.872 519.856 344.506C514.001 345.226 509.29 348.915 505.213 352.915C500.638 357.412 496.449 362.306 492.21 367.113C491.141 368.33 490.072 369.547 489.016 370.777C488.916 370.889 489.078 371.038 489.177 370.939C493.317 366.181 497.618 361.56 502.118 357.151C506.282 353.064 510.558 348.605 516.326 346.928C518.998 346.145 521.895 345.934 524.58 346.729C526.755 347.375 528.657 348.679 530.223 350.294C533.468 353.66 535.295 358.231 536.588 362.653C540.18 374.938 541.473 387.819 542.803 400.502C544.158 413.395 545.078 426.313 545.724 439.256C546.37 452.262 546.88 465.292 548.136 478.26C548.285 479.862 548.496 481.452 548.707 483.054C548.844 484.123 550.51 484.135 550.423 483.017C549.366 469.614 548.745 456.199 548.136 442.772H548.148Z" fill="#263238"/>
<path d="M504.467 354.368C504.467 354.368 512.099 340.245 503.075 335.711C494.05 331.177 463.844 364.864 455.031 414.128C455.031 414.128 503.808 392.564 520.378 371.075C536.948 349.586 518.166 344.853 504.467 354.368Z" fill="#3A74FE"/>
<path d="M511.639 365.858C506.158 365.87 500.688 365.448 495.206 365.485C496.238 364.305 497.257 363.125 498.301 361.958C499.731 360.343 501.372 358.765 502.59 356.977C502.665 356.865 502.503 356.703 502.391 356.79C500.875 357.983 499.569 359.548 498.239 360.951C496.872 362.405 495.505 363.87 494.137 365.336C492.036 367.597 489.985 369.907 487.934 372.218C487.934 371.994 487.934 371.771 487.934 371.559C487.934 370.603 487.934 369.646 487.934 368.678C487.947 366.814 487.972 364.964 487.996 363.1C488.034 359.337 488.021 355.548 488.282 351.784C488.282 351.635 488.071 351.648 488.059 351.784C487.798 355.561 487.412 359.324 487.213 363.113C487.126 364.976 487.077 366.827 487.052 368.69C487.052 369.646 487.027 370.603 487.027 371.572C487.027 372.093 487.014 372.652 487.052 373.187C486.729 373.547 486.405 373.895 486.082 374.267C481.707 379.261 477.542 384.428 473.502 389.682C473.502 389.397 473.453 389.098 473.428 388.813C473.366 388.229 473.304 387.658 473.241 387.074C473.105 385.819 472.931 384.565 472.744 383.31C472.57 382.13 472.384 380.962 472.185 379.795C471.961 378.478 471.638 377.149 471.538 375.807C471.538 375.646 471.277 375.683 471.315 375.845C471.601 377.149 471.65 378.528 471.775 379.857C471.886 381.062 471.998 382.267 472.11 383.472C472.222 384.676 472.334 385.881 472.458 387.086C472.52 387.67 472.57 388.241 472.632 388.825C472.67 389.111 472.694 389.409 472.744 389.695C472.794 390.08 472.856 390.129 472.98 390.378C472.284 391.285 471.588 392.191 470.892 393.098C468.12 396.75 465.41 400.452 462.7 404.153C462.613 404.265 462.775 404.426 462.862 404.315C465.435 400.961 468.083 397.669 470.768 394.415C472.769 394.502 474.82 394.353 476.834 394.315C478.947 394.278 481.06 394.266 483.186 394.266C483.335 394.266 483.323 394.042 483.186 394.042C481.073 394.079 478.959 394.117 476.834 394.117C474.907 394.117 472.943 394.03 471.004 394.129C473.366 391.26 475.74 388.415 478.139 385.583C479.009 384.552 479.892 383.521 480.762 382.478C481.557 382.639 482.403 382.565 483.211 382.565C484.168 382.565 485.137 382.565 486.095 382.565C487.897 382.565 489.699 382.515 491.502 382.49C495.231 382.428 498.948 382.304 502.677 382.304C502.826 382.304 502.814 382.08 502.677 382.08C498.948 382.031 495.219 381.869 491.489 381.782C489.687 381.733 487.885 381.683 486.082 381.658C485.125 381.646 484.155 381.633 483.198 381.621C482.651 381.621 482.092 381.571 481.533 381.596C483.584 379.174 485.622 376.739 487.673 374.317C487.723 374.292 487.76 374.242 487.785 374.18C489.786 371.82 491.788 369.473 493.802 367.125C494.075 366.802 494.361 366.491 494.634 366.168C500.315 366.342 505.996 365.97 511.677 366.082C511.826 366.082 511.813 365.858 511.677 365.858H511.639Z" fill="#263238"/>
<path d="M508.83 375.534C508.383 375.534 507.948 375.534 507.5 375.534C507.363 375.534 507.376 375.733 507.5 375.733C507.948 375.733 508.383 375.733 508.83 375.733C508.979 375.733 508.967 375.509 508.83 375.509V375.534Z" fill="#263238"/>
<path d="M505.872 375.559C504.119 375.534 502.354 375.497 500.601 375.447C499.719 375.423 498.848 375.398 497.966 375.36C497.183 375.336 496.288 375.211 495.517 375.385C495.43 375.41 495.442 375.522 495.517 375.547C496.275 375.77 497.183 375.708 497.978 375.721C498.861 375.733 499.731 375.745 500.614 375.758C502.366 375.77 504.119 375.783 505.884 375.77C506.033 375.77 506.021 375.547 505.884 375.547L505.872 375.559Z" fill="#263238"/>
<path d="M490.545 392.005C486.977 391.508 483.372 390.999 479.755 391.036C479.705 391.036 479.705 391.111 479.755 391.111C483.335 391.446 486.927 391.645 490.483 392.229C490.632 392.253 490.682 392.03 490.532 392.005H490.545Z" fill="#263238"/>
<path d="M475.877 376.329C475.839 376.019 475.802 375.708 475.765 375.385C475.678 374.677 475.566 373.982 475.454 373.274C475.243 371.932 475.007 370.603 474.758 369.274C474.733 369.15 474.522 369.187 474.534 369.311C474.708 370.69 474.857 372.069 474.982 373.447C475.044 374.131 475.094 374.801 475.156 375.485C475.205 376.093 475.156 376.863 475.429 377.422C475.529 377.633 475.852 377.547 475.902 377.348C475.989 377.012 475.914 376.677 475.877 376.342V376.329Z" fill="#263238"/>
<path d="M547.663 336.233C545.911 332.991 543.698 328.693 539.335 328.966C535.742 329.19 534.114 332.854 533.343 335.897C530.969 345.276 530.795 355.175 530.335 364.79C529.353 385.111 528.483 405.445 528.346 425.791C528.309 431.431 528.334 437.07 528.383 442.709C528.433 448.461 528.421 454.249 528.781 459.988C528.819 460.534 529.627 460.509 529.627 459.963C529.664 455.044 529.49 450.125 529.465 445.206C529.44 440.411 529.49 435.604 529.564 430.81C529.726 421.084 529.987 411.37 530.348 401.644C530.708 391.98 531.131 382.329 531.541 372.677C531.74 367.858 531.951 363.026 532.162 358.206C532.374 353.536 532.573 348.853 533.107 344.207C533.405 341.599 533.791 339.003 534.338 336.432C534.723 334.606 535.282 332.631 536.588 331.215C538.303 329.364 540.914 329.488 542.952 330.755C545.065 332.059 546.346 334.233 547.464 336.382C547.527 336.506 547.725 336.382 547.651 336.258L547.663 336.233Z" fill="#263238"/>
<path d="M546.482 334.68C546.482 334.68 542.902 322.035 550.821 328.358C564.01 338.879 564.469 361.771 564.469 361.771C564.469 361.771 541.025 348.17 538.117 339.189C533.778 325.824 546.482 334.668 546.482 334.668V334.68Z" fill="#3A74FE"/>
<path d="M559.547 352.393C559.336 352.046 559.099 351.698 558.876 351.362C558.938 351.015 558.876 350.617 558.876 350.282C558.876 349.735 558.876 349.189 558.876 348.655C558.901 347.586 558.938 346.518 558.988 345.45C558.988 345.301 558.764 345.313 558.764 345.45C558.714 346.493 558.664 347.549 558.64 348.592C558.627 349.114 558.602 349.636 558.59 350.17C558.59 350.369 558.553 350.605 558.54 350.841C557.62 349.412 556.675 347.996 555.693 346.605C555.408 346.207 555.109 345.81 554.823 345.413C554.612 344.059 554.736 342.643 554.749 341.289C554.761 339.823 554.786 338.345 554.836 336.879C554.836 336.73 554.612 336.742 554.612 336.879C554.575 338.407 554.488 339.935 554.413 341.463C554.363 342.543 554.264 343.649 554.326 344.729C552.064 341.649 549.665 338.693 547.228 335.736C547.154 335.637 546.98 335.773 547.054 335.873C548.558 337.773 550 339.736 551.417 341.711C548.658 341.065 545.848 340.692 543.052 340.295C542.915 340.27 542.853 340.494 543.002 340.518C545.973 340.966 548.882 341.711 551.815 342.357C551.84 342.357 551.852 342.357 551.877 342.357C552.996 343.934 554.115 345.524 555.209 347.114C555.656 347.76 556.091 348.419 556.539 349.077C556.501 349.077 556.452 349.077 556.414 349.064C556.116 349.027 555.805 348.977 555.507 348.94C554.861 348.866 554.202 348.816 553.555 348.754C552.2 348.642 550.846 348.58 549.491 348.505C549.341 348.505 549.354 348.729 549.491 348.729C550.821 348.754 552.151 348.866 553.468 349.002C554.165 349.077 554.861 349.176 555.569 349.251C555.88 349.288 556.178 349.325 556.489 349.363C556.576 349.363 556.663 349.387 556.763 349.4C557.508 350.505 558.267 351.611 559.012 352.716C560.33 354.666 561.523 356.766 562.928 358.654C563.015 358.766 563.164 358.654 563.115 358.542C562.133 356.405 560.765 354.393 559.535 352.393H559.547Z" fill="#263238"/>
<path d="M553.705 338.109C553.705 337.612 553.705 337.127 553.705 336.631C553.705 335.6 553.692 334.556 553.829 333.538C553.854 333.376 553.605 333.351 553.605 333.513C553.605 334.531 553.493 335.562 553.444 336.581C553.419 337.09 553.419 337.599 553.419 338.121C553.419 338.357 553.419 338.593 553.419 338.829C553.419 339.065 553.394 339.338 553.468 339.562C553.506 339.661 553.63 339.649 553.667 339.562C553.742 339.351 553.705 339.102 553.692 338.879C553.692 338.618 553.692 338.37 553.692 338.109H553.705Z" fill="#263238"/>
<path d="M550.808 343.338C549.938 343.189 549.043 343.139 548.161 343.065C547.191 342.978 546.234 342.903 545.264 342.779C545.103 342.754 545.078 342.99 545.239 343.003C547.092 343.127 548.931 343.45 550.783 343.512C550.883 343.512 550.908 343.351 550.808 343.338Z" fill="#263238"/>
<path d="M558.18 343.425C558.242 343.524 558.204 343.798 558.204 343.909V344.319C558.204 344.617 558.204 344.903 558.204 345.201V346.083C558.204 346.319 558.13 346.642 558.242 346.853C558.254 346.891 558.316 346.878 558.329 346.853C558.391 346.741 558.378 346.617 558.378 346.481C558.378 346.344 558.378 346.207 558.378 346.071C558.378 345.773 558.378 345.487 558.378 345.189C558.378 344.891 558.378 344.605 558.378 344.307V343.897C558.378 343.773 558.329 343.512 558.403 343.413C558.552 343.214 558.055 343.201 558.204 343.413L558.18 343.425Z" fill="#263238"/>
<path d="M548.21 403.694C543.275 399.992 538.85 394.676 532.225 394.427C526.755 394.216 522.914 398.328 520.726 402.911C519.57 405.333 518.775 407.892 518.041 410.463C517.047 413.929 516.127 417.394 515.244 420.897C513.529 427.766 512.05 434.698 510.856 441.678C510.185 445.566 509.564 449.467 509.079 453.392C508.582 457.342 507.935 461.404 507.923 465.378C507.923 466.074 509.004 466.211 509.141 465.515C509.812 462.236 510.086 458.857 510.57 455.553C511.055 452.224 511.565 448.895 512.124 445.579C513.255 438.946 514.548 432.325 516.052 425.766C517.469 419.568 518.862 413.283 520.863 407.246C522.292 402.923 524.592 397.868 529.278 396.315C536.389 393.943 542.853 399.967 548.061 403.867C548.173 403.954 548.335 403.793 548.223 403.706L548.21 403.694Z" fill="#263238"/>
<path d="M543.101 400.154C543.101 400.154 538.564 387.186 545.127 384.639C554.972 380.826 580.754 409.842 575.707 454.299C575.707 454.299 555.793 443.33 541.075 430.996C526.37 418.661 522.603 402.551 529.08 398.39C535.556 394.228 543.089 400.154 543.089 400.154H543.101Z" fill="#3A74FE"/>
<path d="M572.748 444.784C572.176 443.219 571.157 441.753 570.349 440.3C569.504 438.784 568.659 437.256 567.776 435.766C566.061 432.847 564.358 429.903 562.605 427.009C562.319 426.537 562.021 426.077 561.747 425.605C561.784 425.431 561.822 425.257 561.859 425.083C561.959 424.649 562.058 424.226 562.157 423.792C562.381 422.823 562.543 421.854 562.729 420.885C563.09 418.984 563.413 417.059 563.935 415.184C563.972 415.047 563.749 414.997 563.711 415.146C563.301 417.047 562.704 418.922 562.145 420.773C561.871 421.692 561.573 422.599 561.325 423.531C561.238 423.854 561.163 424.164 561.076 424.487C558.963 421.022 556.8 417.568 554.488 414.227C554.687 413.792 554.662 413.295 554.724 412.799C554.798 412.153 554.873 411.494 554.948 410.848C555.122 409.383 555.283 407.929 555.507 406.464C555.93 403.594 556.352 400.762 557.073 397.943C557.111 397.806 556.887 397.769 556.85 397.905C556.141 400.7 555.37 403.507 554.836 406.339C554.575 407.731 554.326 409.134 554.14 410.538C554.053 411.246 553.978 411.942 553.903 412.65C553.879 412.861 553.854 413.072 553.816 413.283C553.096 412.277 552.387 411.271 551.641 410.289C549.366 407.296 547.005 404.377 544.63 401.47C544.543 401.358 544.357 401.483 544.444 401.594C548.62 406.7 552.151 412.351 555.644 417.941C556.29 418.984 556.937 420.04 557.583 421.084C557.372 421.059 557.148 421.034 556.949 421.009C556.116 420.897 555.271 420.848 554.438 420.773C552.76 420.612 551.082 420.475 549.404 420.338C546.047 420.078 542.679 419.866 539.335 419.506C539.186 419.494 539.148 419.717 539.298 419.73C542.691 420.115 546.06 420.661 549.441 421.146C551.107 421.382 552.76 421.605 554.426 421.817C555.569 421.966 557.011 422.301 558.267 422.214C559.584 424.351 560.914 426.487 562.22 428.636C561.934 428.599 561.623 428.611 561.325 428.599C560.765 428.599 560.206 428.599 559.646 428.599C558.602 428.599 557.571 428.599 556.526 428.599C554.363 428.599 552.201 428.648 550.05 428.636C549.901 428.636 549.926 428.86 550.075 428.86C552.263 428.884 554.45 428.996 556.638 429.108C557.67 429.158 558.714 429.22 559.746 429.294C560.268 429.332 560.778 429.369 561.3 429.406C561.76 429.431 562.244 429.518 562.667 429.356C563.786 431.182 564.917 432.996 566.036 434.822C567.067 436.499 568.112 438.176 569.168 439.84C570.237 441.505 571.232 443.43 572.549 444.908C572.636 445.007 572.823 444.933 572.773 444.796L572.748 444.784Z" fill="#263238"/>
<path d="M563.251 408.849C563.09 410.265 562.717 411.693 562.356 413.072C561.996 414.513 561.573 415.941 561.101 417.345C561.039 417.544 561.3 417.63 561.362 417.432C561.809 416.028 562.195 414.612 562.543 413.196C562.891 411.768 563.115 410.314 563.463 408.886C563.5 408.749 563.251 408.699 563.239 408.849H563.251Z" fill="#263238"/>
<path d="M548.62 417.531C548.31 417.221 547.962 417.183 547.539 417.121C546.917 417.034 546.284 416.947 545.662 416.86C544.493 416.699 543.325 416.575 542.157 416.438C539.733 416.152 537.296 415.916 534.872 415.618C534.723 415.606 534.686 415.817 534.835 415.842C537.122 416.115 539.397 416.463 541.684 416.761C542.803 416.91 543.922 417.071 545.04 417.196C545.575 417.258 546.122 417.32 546.656 417.382C547.253 417.444 547.962 417.432 548.509 417.693C548.62 417.742 548.695 417.606 548.62 417.519V417.531Z" fill="#263238"/>
<path d="M563.214 437.082C562.07 436.983 560.914 436.946 559.771 436.909C559.186 436.896 558.615 436.871 558.03 436.859C557.757 436.859 557.471 436.846 557.198 436.834C556.85 436.834 556.452 436.859 556.116 436.772C555.954 436.735 555.942 437.02 556.116 436.995C556.439 436.946 556.812 436.995 557.135 437.033C557.434 437.045 557.732 437.07 558.043 437.082C558.627 437.12 559.199 437.157 559.783 437.182C560.927 437.256 562.083 437.318 563.226 437.331C563.363 437.331 563.376 437.095 563.226 437.082H563.214Z" fill="#263238"/>
<path d="M570.237 432.114C570.374 431.468 570.498 430.81 570.61 430.164C570.846 428.884 571.083 427.605 571.319 426.326C571.344 426.176 571.132 426.139 571.095 426.288C570.809 427.53 570.536 428.785 570.25 430.027C570.113 430.648 569.964 431.269 569.839 431.903C569.777 432.188 569.715 432.487 569.665 432.772C569.603 433.07 569.504 433.381 569.566 433.691C569.591 433.791 569.74 433.878 569.815 433.766C570.113 433.306 570.138 432.648 570.25 432.126L570.237 432.114Z" fill="#263238"/>
<path d="M502.801 460.398L504.181 476.161L508.892 529.362H550.597L556.489 476.161L558.229 460.398H502.801Z" fill="#455A64"/>
<path d="M502.801 460.398L504.181 476.161H556.489L558.229 460.398H502.801Z" fill="#263238"/>
<path d="M498.674 468.882H562.369V456.1H498.674V468.882Z" fill="#455A64"/>
<path d="M275.396 429.816C275.396 429.816 275.396 429.878 275.434 429.99C275.434 430.027 275.434 430.064 275.458 430.114C275.458 430.213 275.496 430.313 275.521 430.449L275.558 430.673C275.595 430.81 275.62 430.971 275.645 431.157C275.67 431.269 275.682 431.381 275.707 431.505C275.744 431.754 275.794 432.027 275.856 432.325C275.943 432.797 276.043 433.331 276.142 433.927C276.304 434.809 276.49 435.815 276.702 436.958C276.764 437.281 276.826 437.629 276.888 437.989C276.975 438.461 277.062 438.958 277.161 439.467C277.261 440.026 277.36 440.61 277.472 441.219C277.472 441.231 277.472 441.244 277.472 441.256C277.547 441.678 277.634 442.113 277.708 442.56C277.945 443.889 278.193 445.305 278.479 446.821C278.479 446.858 278.504 446.895 278.504 446.933C278.802 448.622 279.125 450.436 279.474 452.336C279.561 452.833 279.66 453.33 279.759 453.827C279.859 454.348 279.958 454.87 280.045 455.392C280.045 455.404 280.045 455.416 280.045 455.429C280.095 455.752 280.157 456.087 280.232 456.423V456.447C280.704 459.093 281.214 461.888 281.761 464.844C281.947 465.838 282.121 466.844 282.308 467.863C282.668 469.85 283.041 471.887 283.426 473.987C283.526 474.471 283.613 474.955 283.687 475.452C284.247 478.496 284.819 481.663 285.415 484.942C285.49 485.278 285.54 485.613 285.602 485.948C285.888 487.489 286.174 489.041 286.447 490.631C286.484 490.755 286.509 490.88 286.522 491.004C286.658 491.749 286.795 492.507 286.932 493.265C287.479 496.295 288.038 499.401 288.622 502.568C288.772 503.351 288.921 504.146 289.057 504.953C289.343 506.556 289.642 508.17 289.94 509.798C290.313 511.822 290.686 513.859 291.059 515.934C291.432 517.996 291.805 520.082 292.19 522.182C292.389 523.238 292.575 524.293 292.774 525.349C292.998 526.616 293.234 527.883 293.458 529.163H400.759C387.508 474.148 376.333 429.816 376.333 429.816H275.384H275.396Z" fill="#455A64"/>
<path d="M291.631 442.2C297.013 471.192 302.445 500.183 307.94 529.162H309.431C303.726 500.109 297.846 471.105 291.991 442.088C291.941 441.852 291.593 441.964 291.631 442.2Z" fill="#37474F"/>
<path d="M275.409 429.816C275.409 429.816 275.409 429.878 275.434 429.99C275.434 430.027 275.434 430.064 275.458 430.114C275.483 430.201 275.496 430.313 275.521 430.449L275.558 430.673C275.595 430.81 275.62 430.971 275.645 431.157C275.67 431.269 275.682 431.381 275.707 431.505C275.757 431.754 275.807 432.027 275.856 432.325C275.943 432.797 276.043 433.331 276.142 433.927C276.316 434.809 276.49 435.815 276.702 436.958C276.764 437.281 276.826 437.629 276.888 437.989C276.975 438.461 277.062 438.958 277.161 439.467C277.261 440.026 277.36 440.61 277.472 441.219C277.472 441.231 277.472 441.244 277.472 441.256C277.547 441.678 277.634 442.113 277.708 442.56C277.957 443.889 278.206 445.305 278.479 446.821C278.479 446.858 278.504 446.895 278.504 446.933C278.815 448.622 279.138 450.411 279.486 452.311C279.585 452.808 279.672 453.317 279.759 453.827C279.859 454.348 279.958 454.87 280.045 455.392C280.045 455.404 280.045 455.416 280.045 455.429C280.12 455.752 280.17 456.087 280.232 456.423V456.447C280.717 459.081 281.226 461.888 281.761 464.844C281.947 465.838 282.121 466.844 282.308 467.863C282.681 469.85 283.054 471.887 283.426 473.987C283.526 474.471 283.613 474.955 283.687 475.452C284.259 478.508 284.831 481.675 285.415 484.942C285.49 485.278 285.54 485.613 285.602 485.948C285.888 487.489 286.174 489.041 286.447 490.631C286.484 490.755 286.509 490.88 286.522 491.004C286.658 491.749 286.795 492.507 286.932 493.265C287.491 496.295 288.051 499.401 288.622 502.568C288.772 503.351 288.921 504.146 289.057 504.953C289.356 506.556 289.642 508.17 289.94 509.798C290.313 511.822 290.686 513.859 291.059 515.934C291.432 517.996 291.817 520.082 292.19 522.182C292.389 523.238 292.575 524.293 292.774 525.349C292.998 526.616 293.234 527.883 293.47 529.163H347.257L351.571 485.042L351.72 483.477L351.894 481.787L352.739 473.142L353.473 465.652L356.978 429.816H275.396H275.409Z" fill="#263238"/>
<path d="M214.362 529.163H330.228C330.426 518.505 330.638 508.195 330.899 498.469C330.899 498.221 330.899 497.985 330.924 497.749C330.924 497.749 344.448 489.749 351.732 483.477C353.15 482.272 354.33 481.116 355.138 480.098C355.138 480.098 355.138 480.09 355.138 480.073C359.8 474.123 364.474 451.293 374.145 429.816H232.461C209.39 474.583 211.006 510.419 214.362 529.163Z" fill="#455A64"/>
<path d="M358.495 478.57C351.596 481.39 345.405 485.725 339.277 489.911C332.925 494.258 327.095 499.277 320.979 503.935C320.743 504.108 320.967 504.506 321.228 504.332C327.679 500.221 334.429 496.606 340.806 492.37C346.996 488.259 353.435 484.259 358.805 479.079C359.017 478.881 358.781 478.458 358.495 478.57Z" fill="#263238"/>
<path d="M359.365 438.747C358.544 443.157 357.475 447.516 356.518 451.901C355.623 456.013 354.964 460.211 353.883 464.273C352.826 468.211 351.148 471.825 348.115 474.645C346.499 476.148 344.722 477.477 343.006 478.843C342.074 479.589 341.079 480.297 340.11 481.042C340.234 480.458 340.334 479.862 340.446 479.266C340.744 477.589 341.017 475.924 341.303 474.247C341.925 470.533 342.521 466.819 343.093 463.093C344.212 455.777 345.244 448.386 346.773 441.144C346.835 440.846 346.387 440.734 346.313 441.032C344.485 448.212 342.472 455.305 340.893 462.546C340.11 466.099 337.338 483.626 337.214 484.868C337.089 486.147 336.977 487.439 336.94 488.718C336.89 489.985 336.642 491.401 336.94 492.656C337.015 492.979 337.4 492.929 337.537 492.706H337.549C338.183 491.6 338.345 490.147 338.668 488.905C338.991 487.65 339.277 486.383 339.501 485.116C339.588 484.657 339.65 484.184 339.712 483.712C341.44 482.669 343.044 481.278 344.659 480.11C346.4 478.856 348.177 477.626 349.818 476.235C352.976 473.577 354.94 470.335 356.12 466.397C357.339 462.323 357.712 458.013 358.184 453.802C358.743 448.821 359.154 443.815 359.85 438.846C359.887 438.548 359.452 438.436 359.39 438.734L359.365 438.747Z" fill="#263238"/>
<path d="M241.461 469.453C243.313 468.484 250.473 470.198 263.513 467.974C266.024 467.54 268.535 466.77 270.548 465.117C273.942 462.347 276.515 457.888 278.579 454.075C280.841 449.889 283.128 445.107 284.197 440.436C284.259 440.15 284.682 440.287 284.632 440.56C284.147 443.256 283.874 445.951 283.165 448.622C282.494 451.131 281.525 453.578 280.468 455.938C278.492 460.36 276.192 465.105 272.226 468.099C268.062 471.229 262.257 471.813 257.21 472.173C254.289 472.372 242.853 472.073 241.312 470.434C241.038 470.148 241.1 469.639 241.461 469.453Z" fill="#263238"/>
<path d="M331.483 261.63C359.7 277.306 464.316 317.402 487.835 303.093C505.325 292.46 502.826 269.642 487.947 254.922C475.007 242.116 378.048 238.514 350.912 237.768C325.069 237.06 303.775 246.227 331.483 261.63Z" fill="#FFBE9D"/>
<path d="M400.995 296.981L443.135 239.209C443.135 239.209 370.217 232.116 339.426 234.775C307.33 237.545 300.755 250.09 339.501 267.94C377.663 285.516 400.995 296.981 400.995 296.981Z" fill="#3A74FE"/>
<path d="M393.885 285.839C394.73 284.348 395.786 282.97 396.756 281.566C397.763 280.125 398.757 278.672 399.752 277.231C401.778 274.3 403.854 271.405 405.942 268.524C410.119 262.76 414.271 256.984 418.534 251.295C419.703 249.73 420.884 248.165 422.102 246.637C423.382 245.022 424.775 243.507 426.042 241.892C426.117 241.793 426.254 241.917 426.192 242.016C425.197 243.47 424.327 245.022 423.345 246.476C422.338 247.979 421.306 249.469 420.262 250.935C418.199 253.829 416.11 256.723 414.01 259.593C409.858 265.232 405.731 270.896 401.455 276.448C400.261 278.001 399.056 279.541 397.862 281.094C396.619 282.721 395.426 284.435 394.034 285.938C393.959 286.013 393.81 285.938 393.872 285.839H393.885Z" fill="#263238"/>
<path d="M365.704 243.842C364.971 245.507 364.337 247.221 364.076 249.097C365.344 247.681 366.227 246.078 367.01 244.439C367.743 242.774 368.377 241.072 368.638 239.184C367.37 240.6 366.5 242.203 365.704 243.842ZM381.578 271.269C379.913 270.536 378.21 269.89 376.32 269.642C377.737 270.909 379.341 271.778 380.982 272.561C382.647 273.294 384.363 273.939 386.24 274.188C384.823 272.921 383.219 272.051 381.578 271.269ZM337.835 251.593C336.169 250.86 334.466 250.215 332.577 249.966C333.994 251.233 335.598 252.103 337.238 252.885C338.904 253.618 340.62 254.264 342.497 254.512C341.079 253.258 339.476 252.376 337.835 251.593ZM401.43 248.687C400.771 246.997 400.025 245.333 398.869 243.818C398.981 245.718 399.491 247.469 400.1 249.184C400.759 250.885 401.505 252.537 402.661 254.053C402.561 252.152 402.039 250.401 401.43 248.687ZM414.209 269.803C412.518 270.461 410.852 271.219 409.336 272.362C411.238 272.25 412.99 271.741 414.706 271.132C416.409 270.474 418.062 269.729 419.579 268.573C417.677 268.685 415.924 269.195 414.209 269.803Z" fill="white"/>
<path d="M339.513 267.94C377.675 285.516 401.007 296.981 401.007 296.981L414.47 278.511L313.459 243.979C310.538 249.842 318.108 258.077 339.513 267.94Z" fill="#263238"/>
<path d="M428.603 134.298C420.772 123.404 400.821 108.262 380.895 96.4743C371.224 90.748 341.726 77.2708 336.766 84.3386C331.806 91.4188 340.073 96.1265 340.073 96.1265C340.073 96.1265 326.759 92.2883 322.409 99.8654C318.058 107.442 331.172 114.349 331.172 114.349C331.172 114.349 317.213 111.405 313.409 119.28C309.618 127.155 323.963 131.875 323.963 131.875C323.963 131.875 311.321 128.596 310.923 136.384C310.451 145.763 334.442 149.191 344.809 156.048C347.158 157.6 390.292 191.026 390.292 191.026L428.578 134.285L428.603 134.298Z" fill="#FFBE9D"/>
<path d="M324.124 132.099C341.763 134.658 349.035 138.831 362.373 150.222C362.634 150.445 363.019 150.11 362.771 149.849C350.726 137.502 342.36 130.969 324.211 131.242C323.329 131.254 323.291 131.975 324.137 132.099H324.124Z" fill="#263238"/>
<path d="M330.513 114.026C348.6 118.286 356.531 122.733 371.373 133.639C371.584 133.788 371.87 133.453 371.671 133.279C358.01 121.367 349.507 115.032 330.874 113.144C330.029 113.057 329.693 113.827 330.513 114.026Z" fill="#263238"/>
<path d="M341.552 96.5613C358.768 101.952 367.668 106.449 380.721 118.883C381.031 119.181 381.491 118.758 381.205 118.435C369.135 104.461 358.06 98.7599 341.776 96.052C340.669 95.8657 340.47 96.2135 341.552 96.5613Z" fill="#263238"/>
<path d="M397.092 201.783C397.092 201.783 375.288 196.989 366.164 192.765C357.04 188.542 328.873 160.321 334.628 153.899C342.061 145.601 361.528 158.693 370.229 166.345C370.229 166.345 387.396 147.129 403.406 153.501C419.417 159.873 397.079 201.783 397.079 201.783H397.092Z" fill="#FFBE9D"/>
<path d="M337.437 152.284C349.669 149.601 360.446 160.383 369.446 167.19C370.13 167.711 370.789 167.339 371.074 166.742C378.806 159.165 391.921 150.744 403.158 152.868C403.481 152.93 403.618 152.47 403.295 152.371C391.56 148.458 377.998 155.687 370.055 164.519C360.944 157.401 349.657 147.054 337.4 152.184C337.325 152.209 337.35 152.321 337.437 152.296V152.284Z" fill="#263238"/>
<path d="M500.004 282.87C499.221 307.005 470.581 305.341 458.213 293.863C429.163 266.934 386.339 212.019 374.729 178.158C370.987 167.264 414.855 119.392 423.382 128.286C438.523 144.061 501.596 233.905 500.004 282.87Z" fill="#FFBE9D"/>
<path d="M426.44 259.667C428.578 261.829 430.629 264.064 432.68 266.3C434.744 268.524 436.745 270.809 438.759 273.07L444.738 279.914C445.72 281.069 446.727 282.2 447.746 283.318C448.728 284.473 449.772 285.566 450.804 286.696C448.38 284.846 446.192 282.721 444.042 280.56C441.891 278.411 439.84 276.163 437.827 273.89C435.825 271.604 433.849 269.294 431.959 266.921C430.058 264.549 428.193 262.164 426.44 259.667Z" fill="#263238"/>
<path d="M438.622 273.853C439.642 275.318 440.524 276.734 441.407 278.2C441.829 278.933 442.264 279.666 442.662 280.436C443.06 281.194 443.458 281.964 443.769 282.821C442.327 281.74 441.245 280.337 440.338 278.834C439.903 278.076 439.505 277.281 439.206 276.449C438.908 275.616 438.66 274.759 438.635 273.853H438.622Z" fill="#263238"/>
<path d="M387.01 453.628H219.322C219.322 453.628 244.941 293.739 306.746 239.06C314.379 232.303 331.62 233.843 342.857 239.42C346.872 241.42 361.279 261.555 365.394 280.61C369.471 299.639 387.458 453.056 387.01 453.628Z" fill="#3A74FE"/>
<path d="M287.379 285.181C285.676 285.839 284.023 286.584 282.507 287.74C284.408 287.628 286.161 287.119 287.877 286.51C289.567 285.852 291.233 285.106 292.749 283.951C290.847 284.063 289.095 284.572 287.379 285.181ZM368.974 303.763C368.899 303.801 368.837 303.863 368.762 303.912C368.837 303.912 368.912 303.912 368.986 303.888C368.986 303.85 368.986 303.801 368.986 303.763H368.974ZM325.392 328.979C323.702 329.637 322.036 330.395 320.519 331.538C322.421 331.426 324.174 330.917 325.889 330.308C327.592 329.65 329.246 328.904 330.762 327.749C328.86 327.861 327.108 328.37 325.392 328.979ZM302.607 398.415C300.904 399.073 299.251 399.831 297.734 400.986C299.636 400.874 301.389 400.365 303.104 399.756C304.795 399.098 306.46 398.34 307.977 397.185C306.075 397.297 304.322 397.806 302.607 398.415ZM264.234 350.008C262.543 350.667 260.877 351.424 259.361 352.567C261.263 352.455 263.015 351.946 264.731 351.337C266.421 350.679 268.087 349.934 269.604 348.779C267.702 348.89 265.949 349.4 264.234 350.008ZM229.826 446.573C228.135 447.231 226.47 447.976 224.953 449.131C226.855 449.02 228.608 448.51 230.323 447.902C232.026 447.243 233.679 446.486 235.196 445.33C233.294 445.442 231.541 445.964 229.826 446.573ZM303.9 440.523C302.209 441.182 300.543 441.927 299.027 443.082C300.929 442.97 302.681 442.461 304.397 441.852C306.1 441.194 307.753 440.436 309.27 439.281C307.368 439.393 305.615 439.902 303.9 440.523ZM386.426 447.33C385.22 447.554 384.077 447.914 382.933 448.324C381.23 448.982 379.577 449.74 378.06 450.883C379.962 450.771 381.703 450.262 383.43 449.653C384.487 449.243 385.531 448.796 386.538 448.237C386.501 447.951 386.476 447.641 386.426 447.33ZM351.757 396.527C350.067 397.185 348.401 397.93 346.885 399.085C348.786 398.974 350.539 398.464 352.255 397.856C353.958 397.197 355.611 396.452 357.127 395.297C355.225 395.396 353.473 395.918 351.757 396.527ZM304.658 259.307C303.999 257.618 303.253 255.953 302.097 254.438C302.209 256.338 302.719 258.09 303.328 259.804C303.987 261.506 304.732 263.158 305.889 264.673C305.789 262.773 305.267 261.021 304.658 259.307ZM267.751 446.846C267.093 445.144 266.347 443.492 265.191 441.977C265.303 443.877 265.812 445.629 266.421 447.343C267.08 449.032 267.826 450.697 268.982 452.212C268.883 450.311 268.361 448.56 267.751 446.846ZM260.393 400.154C259.734 398.464 258.976 396.8 257.819 395.297C257.931 397.185 258.441 398.936 259.05 400.651C259.709 402.352 260.467 404.017 261.623 405.52C261.511 403.619 261.002 401.868 260.393 400.154ZM324.199 372.404C323.54 370.702 322.782 369.05 321.638 367.535C321.75 369.435 322.26 371.187 322.869 372.901C323.528 374.59 324.273 376.255 325.429 377.77C325.318 375.87 324.808 374.118 324.199 372.404ZM301.625 312.545C300.966 310.856 300.208 309.191 299.052 307.676C299.164 309.577 299.673 311.328 300.282 313.042C300.941 314.744 301.699 316.396 302.855 317.911C302.744 316.011 302.234 314.259 301.625 312.545ZM332.527 449.119C332.627 450.709 332.987 452.187 333.46 453.628H334.951C334.317 452.05 333.584 450.523 332.527 449.119ZM380.049 414.351C379.391 412.65 378.632 410.985 377.476 409.482C377.588 411.37 378.11 413.122 378.707 414.836C379.366 416.538 380.124 418.202 381.28 419.705C381.168 417.805 380.658 416.066 380.049 414.351ZM351.012 278.361C350.353 276.672 349.594 275.008 348.438 273.505C348.563 275.393 349.072 277.144 349.681 278.858C350.328 280.56 351.086 282.225 352.242 283.728C352.13 281.827 351.621 280.076 351.012 278.361ZM337.835 251.593C336.169 250.86 334.466 250.214 332.577 249.966C333.994 251.233 335.598 252.103 337.238 252.885C338.904 253.618 340.62 254.264 342.497 254.512C341.079 253.258 339.476 252.376 337.835 251.593ZM282.954 377.124C281.301 376.379 279.585 375.746 277.696 375.485C279.125 376.752 280.717 377.634 282.37 378.416C284.036 379.149 285.739 379.783 287.628 380.043C286.198 378.776 284.607 377.907 282.954 377.124ZM239.584 420.786C237.918 420.053 236.215 419.407 234.326 419.158C235.743 420.425 237.346 421.295 238.987 422.077C240.653 422.81 242.368 423.456 244.245 423.705C242.828 422.438 241.225 421.568 239.584 420.786ZM352.976 431.667C351.31 430.934 349.607 430.288 347.717 430.04C349.134 431.307 350.738 432.176 352.379 432.959C354.045 433.692 355.76 434.337 357.637 434.586C356.22 433.331 354.616 432.449 352.976 431.667ZM349.371 362.417C347.705 361.684 345.99 361.039 344.113 360.79C345.53 362.057 347.133 362.939 348.774 363.709C350.44 364.442 352.143 365.088 354.032 365.349C352.615 364.082 351.012 363.2 349.371 362.417ZM337.835 303.639C336.169 302.906 334.466 302.26 332.577 302.012C333.994 303.279 335.598 304.148 337.238 304.931C338.904 305.664 340.62 306.31 342.497 306.558C341.079 305.291 339.476 304.422 337.835 303.639ZM268.721 319.924C267.988 321.576 267.341 323.29 267.093 325.178C268.361 323.749 269.231 322.159 270.014 320.507C270.747 318.843 271.394 317.141 271.642 315.253C270.374 316.682 269.504 318.272 268.721 319.924ZM324.423 416.413C323.677 418.078 323.043 419.792 322.782 421.668C324.05 420.252 324.932 418.649 325.715 417.01C326.449 415.345 327.083 413.643 327.344 411.755C326.076 413.184 325.206 414.774 324.423 416.413ZM358.52 331.24C357.786 332.904 357.14 334.618 356.891 336.506C358.159 335.078 359.029 333.475 359.812 331.836C360.546 330.171 361.192 328.47 361.441 326.581C360.173 328.01 359.303 329.6 358.52 331.24ZM282.295 421.382C281.562 423.046 280.915 424.748 280.667 426.636C281.935 425.208 282.805 423.618 283.588 421.966C284.321 420.301 284.968 418.599 285.216 416.711C283.961 418.14 283.078 419.73 282.295 421.382ZM238.639 374.727C237.906 376.391 237.259 378.106 237.011 379.994C238.279 378.565 239.149 376.963 239.932 375.323C240.665 373.659 241.312 371.957 241.56 370.069C240.305 371.497 239.422 373.087 238.639 374.727ZM298.032 348.679C297.287 350.344 296.653 352.058 296.404 353.946C297.659 352.517 298.542 350.915 299.325 349.275C300.059 347.611 300.693 345.909 300.954 344.021C299.686 345.45 298.815 347.04 298.032 348.679ZM319.873 280.585C319.14 282.249 318.506 283.964 318.245 285.839C319.512 284.423 320.395 282.821 321.178 281.181C321.912 279.517 322.545 277.815 322.807 275.927C321.539 277.343 320.668 278.945 319.873 280.585Z" fill="white"/>
<path d="M277.994 459.392C278.032 450.001 280.717 393.347 279.101 374.764C278.566 368.541 300.083 299.08 305.64 275.753C310.861 253.854 299.711 244.19 283.339 264.81C269.728 281.939 234.152 348.89 226.979 366.765C219.807 384.639 212.299 444.858 212.361 457.59C212.411 467.664 277.969 468.658 277.994 459.392Z" fill="#FFBE9D"/>
<path d="M285.117 540.069C278.666 543.323 273.445 537.957 273.445 537.957C273.445 537.957 270.598 542.975 265.278 544.516C259.187 546.279 253.73 537.51 253.73 537.51C253.73 537.51 249.789 541.982 244.009 543.05C238.005 544.155 231.243 536.081 231.243 536.081C231.243 536.081 225.289 538.243 219.62 535.572C209.937 531.014 208.01 514.804 206.68 504.506C205.35 494.209 211.963 460.795 212.498 454.883L277.82 448.746C277.82 448.746 296.938 493.215 296.777 505.55C296.64 515.934 292.352 536.442 285.117 540.094V540.069Z" fill="#FFBE9D"/>
<path d="M273.718 537.709C276.503 526.703 275.894 515.462 275.906 504.221C275.906 503.972 275.508 503.972 275.521 504.221C275.632 515.412 273.519 526.467 273.184 537.634C273.184 537.945 273.644 537.994 273.718 537.696V537.709Z" fill="#263238"/>
<path d="M254.563 537.175C255.122 534.665 254.849 531.982 254.724 529.436C254.587 526.691 254.413 523.958 254.19 521.225C253.742 515.748 253.17 510.282 252.449 504.842C252.412 504.606 252.039 504.593 252.064 504.842C252.499 510.295 252.847 515.76 253.059 521.238C253.158 523.971 253.233 526.716 253.295 529.448C253.357 531.995 253.195 534.69 253.817 537.175C253.904 537.547 254.488 537.547 254.575 537.175H254.563Z" fill="#263238"/>
<path d="M231.23 535.845C231.802 533.684 231.23 531.063 231.007 528.865C230.746 526.38 230.509 523.884 230.286 521.387C229.826 516.406 229.378 511.412 229.105 506.419C229.092 506.171 228.707 506.171 228.719 506.419C228.981 511.499 229.167 516.58 229.465 521.66C229.614 524.157 229.776 526.641 229.95 529.138C230.099 531.262 230.05 533.92 230.982 535.87C231.032 535.982 231.206 535.945 231.23 535.833V535.845Z" fill="#263238"/>
<path d="M292.265 347.512L224.53 347.735C224.53 347.735 261.536 284.56 281.748 261.195C302.818 236.837 316.84 238.886 308.586 280.697C300.456 321.899 292.265 347.512 292.265 347.512Z" fill="#3A74FE"/>
<path d="M268.721 319.924C267.988 321.576 267.341 323.29 267.093 325.178C268.361 323.749 269.231 322.159 270.014 320.507C270.747 318.843 271.394 317.141 271.642 315.253C270.374 316.682 269.504 318.272 268.721 319.924ZM278.815 264.698C278.579 264.984 278.355 265.257 278.119 265.555C278.989 265.841 279.884 266.064 280.816 266.188C280.182 265.617 279.511 265.133 278.815 264.698ZM257.161 299.428C256.825 298.559 256.465 297.702 256.029 296.869C255.768 297.279 255.507 297.677 255.234 298.087C255.408 298.72 255.607 299.329 255.818 299.925C256.477 301.627 257.235 303.279 258.391 304.794C258.279 302.894 257.77 301.142 257.161 299.428ZM301.625 312.545C300.966 310.856 300.208 309.191 299.052 307.676C299.164 309.577 299.673 311.328 300.282 313.042C300.531 313.676 300.792 314.309 301.065 314.918C301.252 314.148 301.438 313.377 301.637 312.582C301.637 312.57 301.625 312.558 301.625 312.545ZM304.658 259.307C303.999 257.618 303.253 255.953 302.097 254.438C302.209 256.338 302.719 258.09 303.328 259.804C303.987 261.506 304.732 263.158 305.889 264.673C305.789 262.773 305.267 261.021 304.658 259.307ZM236.762 332.767C235.084 333.413 233.443 334.171 231.939 335.289C231.939 335.301 231.902 335.314 231.889 335.326H231.914C233.804 335.214 235.556 334.705 237.259 334.096C238.962 333.438 240.616 332.693 242.132 331.538C240.23 331.649 238.477 332.159 236.762 332.767ZM287.379 285.181C285.676 285.839 284.023 286.584 282.507 287.74C284.408 287.628 286.161 287.119 287.877 286.51C289.567 285.852 291.233 285.106 292.749 283.951C290.847 284.063 289.095 284.572 287.379 285.181Z" fill="white"/>
<path d="M235.631 336.817C237.334 336.63 239.074 336.68 240.777 336.655C242.53 336.631 244.295 336.593 246.048 336.556C249.615 336.481 253.17 336.481 256.738 336.481C263.861 336.494 270.971 336.481 278.094 336.63C280.045 336.668 282.009 336.717 283.961 336.804C286.012 336.891 288.063 337.14 290.114 337.227C290.238 337.227 290.226 337.413 290.102 337.425C288.337 337.475 286.584 337.674 284.819 337.724C283.016 337.786 281.201 337.823 279.386 337.835C275.831 337.86 272.264 337.86 268.709 337.823C261.698 337.761 254.687 337.711 247.676 337.5C245.724 337.438 243.76 337.363 241.809 337.301C239.77 337.239 237.669 337.289 235.643 337.028C235.544 337.016 235.519 336.854 235.643 336.842L235.631 336.817Z" fill="#263238"/>
<path d="M301.302 316.11C302.719 313.899 303.813 311.465 304.297 308.881C304.297 308.831 304.235 308.806 304.21 308.856C303.465 311.08 302.582 313.253 301.476 315.315C301.687 314.384 301.898 313.44 302.097 312.508C302.843 309.129 303.614 305.751 304.198 302.335C304.198 302.285 304.123 302.26 304.111 302.31C302.408 308.111 300.966 313.986 299.4 319.824C297.809 325.737 296.255 331.674 294.689 337.599C293.843 340.829 292.973 344.059 292.202 347.313C291.096 347.412 290.238 347.375 289.269 347.462C288.995 347.487 288.983 347.934 289.269 347.959C290.499 348.033 292.911 348.021 292.948 347.897C296.329 337.488 298.903 326.805 301.302 316.123V316.11Z" fill="#263238"/>
<path d="M302.458 248.053C307.318 256.847 314.341 264.524 322.608 269.53C326.784 272.064 331.359 274.026 336.132 274.25C338.568 274.362 341.266 274.101 343.367 272.722C345.405 271.38 346.934 269.232 348.065 266.983C349.333 264.449 350.154 261.63 350.639 258.785C351.173 255.593 351.521 252.314 351.621 249.059C351.621 248.935 351.807 248.96 351.795 249.084C351.708 252.177 351.857 255.27 351.546 258.35C351.273 261.083 350.775 263.779 349.818 266.313C348.898 268.747 347.556 271.045 345.766 272.821C343.814 274.759 341.403 275.641 338.755 275.877C333.696 276.324 328.624 274.709 324.087 272.225C319.699 269.828 315.547 266.549 312.017 262.822C308.027 258.586 304.67 253.605 302.172 248.202C302.085 248.016 302.346 247.904 302.445 248.078L302.458 248.053Z" fill="#263238"/>
<path d="M340.396 267.393C330.824 270.064 313.645 255.978 306.609 244.277C306.137 243.47 307.045 234.775 307.654 224.167C308.002 217.72 308.225 210.54 307.964 203.969C307.902 202.616 349.594 212.317 349.594 212.317C349.594 212.317 346.089 226.254 346.624 237.694C346.673 238.65 346.81 239.532 347.021 240.377C347.046 240.501 347.083 240.65 347.096 240.824C348.14 245.917 349.657 264.797 340.396 267.381V267.393Z" fill="#FFBE9D"/>
<path d="M342.857 241.221C344.398 241.197 345.791 241.072 347.083 240.824C347.071 240.65 347.021 240.513 347.009 240.377C346.798 239.544 346.673 238.65 346.624 237.694C346.089 226.254 349.582 212.317 349.582 212.317C349.582 212.317 315.746 204.441 309.083 203.858C310.662 211.397 318.53 241.644 342.869 241.209L342.857 241.221Z" fill="#263238"/>
<path d="M310.948 146.806C303.465 160.147 302.023 203.05 310.177 214.466C322.011 231.011 345.865 237.545 361.068 222.304C375.798 207.534 376.706 151.576 367.171 140.744C353.125 124.783 321.999 127.106 310.948 146.794V146.806Z" fill="#FFBE9D"/>
<path d="M360.31 151.427C356.717 155.725 351.161 158.01 345.567 157.215C340.122 156.433 334.665 152.793 332.614 147.564C332.552 147.402 332.316 147.502 332.378 147.663C334.566 153.24 339.215 157.787 345.368 158.519C351.148 159.203 357.289 156.433 360.62 151.688C360.77 151.476 360.471 151.228 360.31 151.439V151.427Z" fill="#263238"/>
<path d="M344.162 116.672C337.4 114.858 329.991 118.112 325.989 123.665C323.565 127.044 322.384 130.857 321.862 134.944C321.837 135.105 322.086 135.142 322.123 134.981C323.266 128.609 327.269 122.162 333.199 119.255C338.904 116.473 345.43 117.044 350.117 121.466C352.565 123.777 354.231 126.907 354.666 130.248C354.716 130.621 355.275 130.559 355.25 130.186C354.84 123.876 350.278 118.324 344.162 116.672Z" fill="#263238"/>
<path d="M395.003 132.261C393.512 127.901 390.379 124.199 386.439 121.864C380.907 118.585 374.742 119.206 368.626 119.938C368.464 119.963 368.489 120.212 368.651 120.199C373.859 119.591 379.179 119.28 384.027 121.64C387.98 123.565 391.311 126.845 393.139 130.857C396.918 139.204 393.698 149.688 385.78 154.358C381.305 157.004 375.711 157.675 370.726 156.172C370.528 156.11 370.391 156.395 370.59 156.47C379.689 159.488 390.255 155.166 394.195 146.322C396.147 141.962 396.557 136.807 395.003 132.261Z" fill="#263238"/>
<path d="M308.536 152.557C308.536 152.557 309.282 139.465 312.676 135.453C316.069 131.441 323.59 130.509 323.59 130.509C323.59 130.509 327.965 119.417 338.544 118.671C348.041 118.001 354.467 126.373 354.467 126.373C354.467 126.373 367.594 113.318 382.635 120.709C396.905 127.727 395.115 149.427 381.317 156.383C371.634 161.265 358.259 152.818 358.259 152.818C356.991 153.004 344.05 161.053 334.031 149.564C334.031 149.564 325.156 156.52 320.022 151.663C320.022 151.663 313.185 154.917 308.549 152.582L308.536 152.557Z" fill="#263238"/>
<path opacity="0.2" d="M319.289 137.366C318.829 143.85 317.337 162.308 314.975 166.37C312.539 170.581 306.982 181.002 304.695 181.748C304.931 167.798 307.169 153.526 310.96 146.806C313.086 143.03 315.945 139.875 319.289 137.378V137.366Z" fill="#263238"/>
<path d="M310.662 181.524C310.662 181.524 303.924 166.283 297.187 168.419C290.437 170.568 293.669 191.374 300.282 195.436C306.908 199.498 310.786 193.448 310.786 193.448L310.662 181.524Z" fill="#FFBE9D"/>
<path d="M298.256 174.357C298.144 174.319 298.095 174.481 298.182 174.543C302.793 177.561 304.509 182.716 305.416 187.896C304.297 185.747 302.458 184.331 299.636 185.623C299.487 185.685 299.574 185.921 299.723 185.921C301.861 185.884 303.266 186.53 304.335 188.442C305.081 189.796 305.466 191.399 305.901 192.877C306.05 193.374 306.908 193.287 306.833 192.74C306.833 192.703 306.833 192.653 306.821 192.616C308.201 186.256 305.006 176.356 298.269 174.357H298.256Z" fill="#263238"/>
<path d="M340.595 180.779C340.582 180.667 340.359 180.903 340.359 181.027C340.346 183.921 339.836 187.225 337.176 188.095C337.089 188.12 337.102 188.269 337.189 188.256C340.396 187.933 341.03 183.524 340.582 180.779H340.595Z" fill="#263238"/>
<path d="M338.133 177.673C333.497 177.139 332.776 186.455 337.077 186.94C341.303 187.424 342.024 178.12 338.133 177.673Z" fill="#263238"/>
<path d="M358.743 182.008C358.768 181.897 358.955 182.157 358.942 182.282C358.631 185.163 358.756 188.505 361.292 189.66C361.366 189.697 361.354 189.846 361.254 189.821C358.109 189.126 357.985 184.679 358.743 182.008Z" fill="#263238"/>
<path d="M361.553 179.201C366.214 179.201 365.866 188.53 361.553 188.53C357.301 188.53 357.649 179.201 361.553 179.201Z" fill="#263238"/>
<path d="M333.497 171.897C334.591 171.177 335.722 170.692 336.878 170.084C338.183 169.401 339.153 168.73 340.682 168.891C341.502 168.978 342.248 169.935 342.236 170.742C342.211 172.618 340.818 173.847 339.277 174.729C337.611 175.686 336.082 175.996 334.181 175.698C332.341 175.4 332.055 172.866 333.497 171.91V171.897Z" fill="#263238"/>
<path d="M367.333 175.586C366.388 174.68 365.356 173.997 364.337 173.202C363.181 172.295 362.348 171.463 360.807 171.351C359.986 171.289 359.079 172.096 358.942 172.891C358.631 174.729 359.775 176.195 361.13 177.338C362.597 178.58 364.051 179.164 365.965 179.201C367.83 179.238 368.563 176.791 367.32 175.599L367.333 175.586Z" fill="#263238"/>
<path d="M341.639 203.323C345.405 202.131 350.067 202.938 353.025 203.51C353.361 203.485 353.709 202.851 353.784 202.541V202.516C353.784 202.417 354.032 196.405 354.032 196.405C354.803 196.864 358.768 198.988 358.781 197.833C358.88 188.306 358.992 177.71 357.078 168.208C357.028 167.885 356.543 167.935 356.556 168.245C356.096 177.4 357.252 186.567 356.941 195.771C355.673 195.187 353.609 194.119 352.453 194.057C352.13 194.119 352.528 200.529 352.354 201.51C352.354 201.51 346.648 199.361 341.689 202.044C340.396 202.74 339.849 203.87 341.651 203.299L341.639 203.323Z" fill="#263238"/>
<path d="M335.498 207.174C336.145 207.882 336.766 208.851 337.798 209.012C338.792 209.162 339.986 208.789 340.918 208.491C341.005 208.466 341.092 208.565 341.03 208.64C340.222 209.683 338.606 210.279 337.301 209.956C336.02 209.646 335.448 208.491 335.212 207.286C335.175 207.112 335.399 207.075 335.498 207.174Z" fill="#263238"/>
<path d="M322.558 174.145C318.617 174.145 320.731 166.705 321.563 164.121C322.359 161.5 322.558 155.774 322.558 155.774C322.558 155.774 322.769 161.5 323.59 164.121C324.41 166.705 326.536 174.145 322.558 174.145Z" fill="white"/>
<path d="M371.882 194.281C372.193 190.865 372.429 187.461 372.591 184.045C372.728 180.63 372.84 177.226 372.827 173.81C372.852 170.407 372.753 166.991 372.591 163.587C372.541 161.886 372.405 160.184 372.28 158.47C372.206 156.755 371.982 155.066 371.882 153.34C372.641 156.681 373.213 160.084 373.536 163.5C373.921 166.916 374.045 170.357 374.058 173.798C374.058 177.238 373.896 180.679 373.536 184.095C373.349 185.809 373.138 187.511 372.889 189.213C372.591 190.902 372.305 192.604 371.882 194.268V194.281Z" fill="#263238"/>
<path d="M291.046 140.459C294.428 135.316 296.329 129.528 296.329 123.416C296.329 101.815 272.599 84.3013 243.338 84.3013C214.076 84.3013 190.371 101.815 190.371 123.416C190.371 145.017 214.089 162.531 243.338 162.531C257.521 162.531 270.387 158.42 279.896 151.712L298.144 156.346L291.046 140.471V140.459Z" fill="white"/>
<path d="M291.046 140.459C294.104 135.614 295.932 130 296.019 124.323C296.106 118.647 294.502 113.007 291.544 108.2C288.61 103.381 284.558 99.2941 279.958 96.0272C275.347 92.7604 270.188 90.3009 264.818 88.5619C259.435 86.8105 253.829 85.8168 248.198 85.4814C242.555 85.1709 236.874 85.4069 231.33 86.413C225.773 87.3943 220.341 89.0712 215.282 91.4934C210.223 93.9156 205.499 97.083 201.559 101.033C197.631 104.971 194.523 109.74 192.919 115.007C191.291 120.249 191.154 125.963 192.708 131.242C194.225 136.546 197.258 141.365 201.136 145.365C205.014 149.377 209.701 152.594 214.735 155.079C219.782 157.575 225.214 159.265 230.746 160.321C236.29 161.376 241.97 161.774 247.626 161.476C258.913 160.929 270.2 157.613 279.573 151.216L279.797 151.067L280.045 151.129L298.231 156.023L297.883 156.433L291.059 140.434L291.046 140.459ZM291.046 140.459L298.418 156.209L298.679 156.768L298.07 156.619L279.747 152.247L280.219 152.16C275.533 155.576 270.238 158.122 264.743 159.96C259.249 161.799 253.494 162.879 247.713 163.277C241.921 163.687 236.078 163.376 230.348 162.395C224.63 161.352 218.999 159.637 213.753 157.079C208.507 154.532 203.585 151.203 199.458 146.992C195.343 142.794 192.049 137.664 190.384 131.938C188.681 126.224 188.755 120.001 190.52 114.312C192.298 108.61 195.679 103.53 199.843 99.3934C204.02 95.2322 208.992 91.9654 214.263 89.4811C219.546 86.9844 225.177 85.2827 230.92 84.3138C242.393 82.3636 254.339 83.171 265.34 86.9471C270.834 88.8228 276.092 91.4437 280.779 94.8969C285.453 98.3376 289.592 102.611 292.463 107.691C295.372 112.734 296.851 118.585 296.59 124.373C296.354 130.174 294.278 135.776 291.034 140.496L291.046 140.459Z" fill="#263238"/>
<path d="M201.186 119.23C201.186 118.684 201.608 118.274 202.143 118.274C202.677 118.274 203.125 118.696 203.125 119.23V129.54C203.125 130.087 202.665 130.497 202.143 130.497C201.621 130.497 201.186 130.074 201.186 129.54V119.23Z" fill="#263238"/>
<path d="M206.021 122.236C206.829 121.988 207.239 121.454 207.215 120.659C206.705 120.535 206.22 120.112 206.22 119.491V119.355C206.22 118.696 206.692 118.187 207.413 118.187C208.184 118.187 208.669 118.783 208.669 119.727V119.901C208.669 121.094 208.358 121.913 207.811 122.448C207.339 122.92 206.655 123.205 206.17 123.205C205.797 123.205 205.623 122.994 205.623 122.721C205.623 122.472 205.797 122.323 206.021 122.249V122.236Z" fill="#263238"/>
<path d="M220.95 119.23V129.54C220.95 130.062 220.49 130.497 219.968 130.497C219.446 130.497 219.011 130.062 219.011 129.54V122.187L216.488 125.677C216.301 125.938 216.015 126.075 215.705 126.075H215.667C215.357 126.075 215.058 125.938 214.859 125.677L212.361 122.187V129.54C212.361 130.062 211.926 130.497 211.379 130.497C210.832 130.497 210.422 130.062 210.422 129.54V119.23C210.422 118.709 210.857 118.274 211.379 118.274H211.429C211.714 118.274 212.025 118.411 212.199 118.671L215.68 123.491L219.16 118.671C219.347 118.411 219.633 118.274 219.943 118.274H219.956C220.478 118.286 220.938 118.709 220.938 119.23H220.95Z" fill="#263238"/>
<path d="M230.05 127.453C230.36 127.068 230.945 127.019 231.33 127.329C232.101 127.963 233.431 128.696 234.674 128.671C235.544 128.671 236.339 128.41 236.862 128.025C237.384 127.64 237.607 127.205 237.607 126.77C237.607 126.547 237.558 126.385 237.446 126.211C237.346 126.037 237.185 125.864 236.924 125.69C236.414 125.354 235.556 125.056 234.525 124.87H234.487C233.667 124.708 232.896 124.497 232.237 124.187C231.579 123.876 230.994 123.429 230.609 122.82C230.348 122.398 230.211 121.914 230.211 121.392C230.211 120.348 230.808 119.429 231.616 118.845C232.436 118.249 233.505 117.914 234.636 117.914C236.315 117.914 237.558 118.734 238.453 119.317C238.85 119.603 238.975 120.162 238.701 120.56C238.44 120.982 237.881 121.106 237.458 120.82C236.563 120.224 235.705 119.703 234.649 119.703C233.866 119.703 233.157 119.951 232.685 120.299C232.212 120.647 232.026 121.032 232.026 121.404C232.026 121.615 232.063 121.752 232.15 121.889C232.237 122.025 232.399 122.187 232.623 122.348C233.083 122.659 233.866 122.944 234.81 123.118H234.848C235.743 123.292 236.563 123.516 237.259 123.851C237.98 124.199 238.602 124.659 239.012 125.305C239.273 125.727 239.435 126.249 239.435 126.795C239.435 127.913 238.801 128.87 237.931 129.503C237.073 130.137 235.942 130.497 234.699 130.497C232.809 130.484 231.218 129.54 230.224 128.745C229.838 128.435 229.789 127.851 230.087 127.466L230.05 127.453Z" fill="#263238"/>
<path d="M251.753 119.789C252.835 120.945 253.518 122.485 253.518 124.211C253.518 125.938 252.835 127.503 251.753 128.634C250.722 129.764 249.18 130.509 247.577 130.509C245.973 130.509 244.357 129.776 243.288 128.634C242.207 127.503 241.56 125.938 241.56 124.211C241.56 122.485 242.207 120.945 243.288 119.789C244.357 118.634 245.899 117.914 247.577 117.914C249.255 117.914 250.722 118.634 251.753 119.789ZM251.53 124.211C251.53 123.019 251.057 121.926 250.336 121.156C249.603 120.373 248.621 119.914 247.577 119.914C246.458 119.914 245.476 120.373 244.742 121.156C244.009 121.926 243.549 123.031 243.549 124.211C243.549 125.392 244.009 126.497 244.742 127.255C245.476 128.037 246.458 128.509 247.577 128.509C248.621 128.509 249.603 128.037 250.336 127.255C251.057 126.509 251.53 125.404 251.53 124.211Z" fill="#263238"/>
<path d="M265.066 129.056C265.241 129.565 264.967 130.099 264.457 130.273C264.383 130.286 264.246 130.323 264.072 130.323H264.06C263.886 130.323 263.625 130.286 263.376 130.137C263.152 130 262.953 129.764 262.817 129.528C262.568 129.019 262.444 128.398 262.444 127.429C262.431 127.093 262.357 126.87 262.232 126.671C262.133 126.485 261.922 126.298 261.71 126.162C261.337 125.913 260.89 125.777 260.728 125.739H258.665V129.528C258.665 130.05 258.23 130.484 257.683 130.484C257.136 130.484 256.726 130.05 256.726 129.528V119.218C256.726 118.672 257.148 118.262 257.683 118.262H260.815C262.891 118.262 264.557 119.939 264.557 122.013C264.557 123.168 264.035 124.174 263.189 124.882C263.413 125.056 263.625 125.267 263.799 125.528C264.147 126.038 264.37 126.683 264.37 127.416C264.358 127.938 264.408 128.273 264.445 128.447C264.718 128.534 264.955 128.745 265.054 129.044L265.066 129.056ZM262.618 122.025C262.618 121.007 261.81 120.212 260.815 120.212H258.665V123.814H260.815C261.81 123.814 262.618 123.007 262.618 122.025Z" fill="#263238"/>
<path d="M276.005 129.056C276.179 129.565 275.906 130.099 275.396 130.273C275.322 130.286 275.185 130.323 275.011 130.323H274.999C274.824 130.323 274.563 130.286 274.315 130.137C274.091 130 273.892 129.764 273.755 129.528C273.507 129.019 273.383 128.398 273.383 127.429C273.37 127.093 273.296 126.87 273.171 126.671C273.072 126.485 272.86 126.298 272.649 126.162C272.276 125.913 271.829 125.777 271.667 125.739H269.604V129.528C269.604 130.05 269.169 130.484 268.622 130.484C268.075 130.484 267.664 130.05 267.664 129.528V119.218C267.664 118.672 268.087 118.262 268.622 118.262H271.754C273.83 118.262 275.496 119.939 275.496 122.013C275.496 123.168 274.974 124.174 274.128 124.882C274.352 125.056 274.563 125.267 274.737 125.528C275.086 126.038 275.309 126.683 275.309 127.416C275.297 127.938 275.347 128.273 275.384 128.447C275.67 128.534 275.894 128.745 275.993 129.044L276.005 129.056ZM273.557 122.025C273.557 121.007 272.749 120.212 271.754 120.212H269.604V123.814H271.754C272.749 123.814 273.557 123.007 273.557 122.025Z" fill="#263238"/>
<path d="M286.919 119.914L283.339 124.82V129.54C283.339 130.087 282.917 130.497 282.382 130.497C281.873 130.497 281.425 130.075 281.425 129.54V124.82L277.87 119.914C277.534 119.491 277.621 118.895 278.056 118.585C278.492 118.274 279.088 118.361 279.387 118.796L282.382 122.883L285.378 118.796C285.714 118.361 286.31 118.274 286.721 118.585C287.143 118.895 287.23 119.491 286.932 119.914H286.919Z" fill="#263238"/>
</g>
</g>
<defs>
<clipPath id="clip0_685_26914">
<rect width="708" height="520" fill="white"/>
</clipPath>
<clipPath id="clip1_685_26914">
<rect width="526" height="502" fill="white" transform="translate(80 43)"/>
</clipPath>
</defs>
</svg>
