<svg width="617" height="604" viewBox="0 0 617 604" fill="none" xmlns="http://www.w3.org/2000/svg">
<g clip-path="url(#clip0_688_27693)">
<path d="M605.611 324.808C605.712 323.444 605.825 322.093 606.001 320.741C607.891 306.231 616.685 197.14 479.994 59.9503C333.073 -87.5072 172.52 78.111 144.792 121.404C117.063 164.696 108.975 231.176 87.5703 187.429C74.3421 160.39 108.836 126.518 59.9675 140.663C28.623 149.743 -29.6062 230.052 18.116 368.038C65.8509 506.023 199.909 611.287 328.764 603.608C494.444 593.732 592.005 473.276 584.257 464.322C576.509 455.368 514.803 482.078 528.358 463.476C541.7 445.163 601.718 376.006 605.611 324.795V324.808Z" fill="#0951FE"/>
<path opacity="0.8" d="M605.611 324.808C605.712 323.444 605.825 322.093 606.001 320.741C607.891 306.231 616.685 197.14 479.994 59.9503C333.073 -87.5072 172.52 78.111 144.792 121.404C117.063 164.696 108.975 231.176 87.5703 187.429C74.3421 160.39 108.836 126.518 59.9675 140.663C28.623 149.743 -29.6062 230.052 18.116 368.038C65.8509 506.023 199.909 611.287 328.764 603.608C494.444 593.732 592.005 473.276 584.257 464.322C576.509 455.368 514.803 482.078 528.358 463.476C541.7 445.163 601.718 376.006 605.611 324.795V324.808Z" fill="white"/>
<path d="M176.791 219.784L117.227 203.67C108.748 201.371 104.755 191.634 109.177 184.019C113.321 176.896 122.846 175.191 129.195 180.432L176.791 219.784Z" fill="#0951FE"/>
<path d="M163.11 100.376L231.317 156.601L185.484 80.94C180.936 73.4383 170.971 71.405 163.866 76.5451C155.891 82.3166 155.513 94.0995 163.122 100.364L163.11 100.376Z" fill="#0951FE"/>
<path d="M300.33 58.8895L314.238 144.717L334.156 60.0893C336.651 49.4934 328.89 39.2512 318.031 38.8218C307.12 38.3925 298.566 48.0916 300.317 58.8895H300.33Z" fill="#0951FE"/>
<path d="M430.067 76.2293C421.941 98.6208 409.292 134.513 409.292 134.513L455.679 93.8217C464.07 86.4716 462.596 72.9837 452.819 67.6289C444.202 62.9056 433.418 66.9722 430.067 76.2293Z" fill="#0951FE"/>
<path d="M497.191 163.193L451.786 209.466L513.14 188.717C522.891 185.421 526.759 173.663 520.875 165.189C515.345 157.232 503.968 156.273 497.191 163.181V163.193Z" fill="#0951FE"/>
<path d="M439.179 172.438C442.982 168.625 442.982 162.444 439.179 158.632C435.376 154.819 429.21 154.819 425.407 158.632C421.604 162.444 421.604 168.625 425.407 172.438C429.21 176.25 435.376 176.25 439.179 172.438Z" fill="#0951FE"/>
<path d="M400.051 63.5906C400.911 58.2684 397.304 53.2551 391.995 52.3931C386.686 51.5311 381.685 55.1468 380.825 60.469C379.965 65.7912 383.572 70.8045 388.881 71.6665C394.19 72.5285 399.191 68.9128 400.051 63.5906Z" fill="#0951FE"/>
<path d="M526.926 112.858C536.111 109.005 540.44 98.4173 536.596 89.2101C532.752 80.0029 522.19 75.6627 513.006 79.5161C503.821 83.3694 499.491 93.9571 503.335 103.164C507.179 112.372 517.741 116.712 526.926 112.858Z" fill="#0951FE"/>
<path d="M261.817 111.818C267.196 111.818 271.556 107.447 271.556 102.056C271.556 96.6642 267.196 92.2935 261.817 92.2935C256.439 92.2935 252.079 96.6642 252.079 102.056C252.079 107.447 256.439 111.818 261.817 111.818Z" fill="#0951FE"/>
<path d="M123.292 133.953C125.806 123.275 119.209 112.576 108.557 110.056C97.9051 107.535 87.2319 114.149 84.7178 124.827C82.2037 135.505 88.8008 146.204 99.4528 148.724C110.105 151.245 120.778 144.631 123.292 133.953Z" fill="#0951FE"/>
<path d="M166.36 164.557C166.36 168.876 162.87 172.375 158.562 172.375C154.253 172.375 150.763 168.876 150.763 164.557C150.763 160.238 154.253 156.74 158.562 156.74C162.87 156.74 166.36 160.238 166.36 164.557Z" fill="#0951FE"/>
<path d="M80.2845 229.949C81.8908 223.127 77.6759 216.291 70.8702 214.681C64.0646 213.07 57.2454 217.296 55.6391 224.118C54.0329 230.94 58.2478 237.776 65.0534 239.386C71.859 240.996 78.6782 236.771 80.2845 229.949Z" fill="#0951FE"/>
<path d="M552.698 221.631C554.562 213.759 549.706 205.863 541.853 203.995C534 202.127 526.124 206.994 524.26 214.866C522.396 222.738 527.252 230.635 535.105 232.503C542.958 234.371 550.834 229.504 552.698 221.631Z" fill="#0951FE"/>
<path d="M580.667 319.567C580.654 319.643 585.794 319.062 586.109 318.986C589.813 318.127 596.465 314.275 596.818 310.032C597.07 306.963 594.474 304.652 591.526 304.703C588.515 304.753 585.756 307.216 584.081 309.514C582.115 312.217 580.667 319.567 580.667 319.567Z" fill="#0951FE"/>
<path d="M555.142 248.225C554.991 251.559 557.826 258.493 557.826 258.505C557.851 258.581 561.82 255.247 562.046 255.007C564.667 252.241 568.094 245.358 566.053 241.608C564.579 238.905 561.139 238.425 558.708 240.092C556.226 241.797 555.281 245.384 555.142 248.225Z" fill="#0951FE"/>
<path d="M535.855 258.417C536.56 261.549 540.755 267.093 541.083 267.535C537.971 269.859 534.973 272.498 532.075 275.34C530.425 276.956 528.8 278.649 527.2 280.354C527.817 279.47 528.359 278.661 528.422 278.548C530.211 275.188 531.71 267.636 528.762 264.567C526.633 262.357 523.181 262.799 521.278 265.047C519.338 267.346 519.363 271.059 519.981 273.837C520.611 276.653 524.088 281.452 525.033 282.715C524.428 283.372 523.811 284.029 523.206 284.698C520.308 287.881 517.423 291.076 514.501 294.119C513.467 295.193 512.422 296.216 511.376 297.239C511.918 296.443 512.371 295.774 512.434 295.673C514.223 292.313 515.723 284.761 512.775 281.692C510.645 279.482 507.194 279.924 505.291 282.172C503.351 284.471 503.376 288.184 503.994 290.962C504.598 293.652 507.773 298.11 508.882 299.613C507.773 300.623 506.664 301.646 505.556 302.581C504.775 303.2 504.069 303.856 503.263 304.437C502.469 305.031 501.675 305.612 500.907 306.193C499.37 307.254 497.783 308.352 496.246 309.35C495.187 310.057 494.167 310.701 493.134 311.358C494.167 310.297 496.157 308.188 496.296 307.999C498.576 304.955 501.197 297.719 498.74 294.233C496.964 291.72 493.487 291.631 491.269 293.564C489.002 295.547 488.46 299.209 488.661 302.05C488.876 305.183 492.025 311.068 492.428 311.813C490.728 312.899 489.052 313.934 487.465 314.882C483.106 317.509 479.263 319.643 476.202 321.272L477.525 323.747C480.586 322.017 484.428 319.782 488.775 317.029C490.513 315.943 492.34 314.743 494.217 313.492C494.583 313.884 496.661 316.119 498.853 317.963C497.43 320.855 496.85 327.069 496.775 327.864C494.759 327.826 492.794 327.763 490.942 327.675C486.419 327.473 482.451 327.182 479.188 326.892L480.737 329.784C483.673 329.961 487.074 330.125 490.854 330.213C492.907 330.264 495.087 330.277 497.342 330.264C497.468 331.072 498.576 337.69 500.315 340.291C501.89 342.653 504.548 345.242 507.559 345.419C510.494 345.596 513.19 343.386 513.064 340.317C512.888 336.048 506.4 331.931 502.734 330.921C502.52 330.858 500.101 330.479 498.576 330.251C499.496 330.251 500.39 330.251 501.335 330.226C503.2 330.201 505.064 330.112 507.08 330.037C508.05 329.961 509.02 329.885 510.016 329.809C510.998 329.759 512.031 329.569 513.039 329.456C515.382 329.14 517.751 328.711 520.119 328.218C520.145 329.86 520.334 335.682 521.53 338.283C522.727 340.86 524.97 343.815 527.918 344.446C530.79 345.065 533.801 343.297 534.129 340.241C534.595 335.998 528.812 330.946 525.335 329.38C525.121 329.279 522.5 328.445 521.064 328.016C522.488 327.713 523.911 327.41 525.335 327.056C529.467 326.033 533.612 324.871 537.757 323.722C539.029 323.368 540.289 323.04 541.562 322.699C541.562 323.28 541.637 330.213 542.985 333.118C544.182 335.694 546.425 338.65 549.373 339.281C552.245 339.9 555.256 338.132 555.583 335.076C556.05 330.832 550.267 325.781 546.79 324.215C546.525 324.101 542.771 322.901 541.788 322.636C544.585 321.891 547.369 321.171 550.154 320.577C553.983 319.744 557.801 319.15 561.53 318.835C561.53 319.112 561.568 326.336 562.953 329.317C564.15 331.893 566.393 334.848 569.341 335.48C572.213 336.099 575.224 334.331 575.552 331.274C576.018 327.031 570.235 321.979 566.758 320.413C566.531 320.312 563.659 319.39 562.286 318.986C562.298 318.847 562.286 318.872 562.311 318.746C566.317 318.468 570.223 318.696 573.876 319.1C575.993 319.327 577.996 319.655 579.948 320.034C579.823 321.386 579.293 327.549 580.238 330.365C581.145 333.068 583.06 336.238 585.907 337.197C588.704 338.132 591.879 336.705 592.547 333.699C593.479 329.531 588.276 323.874 585 321.941C584.824 321.84 582.896 320.969 581.473 320.363C582.355 320.54 583.262 320.716 584.093 320.906C587.23 321.613 590.065 322.447 592.572 323.217C593.996 323.659 595.268 324.088 596.452 324.505C597.007 325.894 599.337 331.464 601.441 333.484C603.482 335.455 606.644 337.399 609.605 336.932C612.515 336.465 614.669 333.737 613.888 330.769C612.805 326.639 605.586 324.013 601.781 323.81C601.454 323.798 596.288 324.114 596.314 324.189L596.351 324.278C595.218 323.848 593.996 323.419 592.648 322.964C590.153 322.143 587.331 321.247 584.194 320.464C581.057 319.681 577.63 318.923 573.952 318.443C570.26 317.963 566.355 317.635 562.286 317.837C562.235 317.837 562.198 317.837 562.147 317.85C563.319 317.42 566.557 316.119 566.796 315.993C570.147 314.187 575.539 308.719 574.771 304.513C574.216 301.495 571.092 299.941 568.27 300.775C565.385 301.621 563.357 304.728 562.349 307.393C561.215 310.398 561.656 317.344 561.694 317.887C557.826 318.102 553.87 318.645 549.889 319.416C547.621 319.858 545.341 320.363 543.073 320.906C544.081 320.502 544.963 320.135 545.089 320.072C548.44 318.266 553.832 312.798 553.064 308.592C552.509 305.574 549.385 304.021 546.563 304.854C543.678 305.7 541.65 308.807 540.642 311.472C539.621 314.174 539.873 320.098 539.974 321.676C539.105 321.891 538.236 322.106 537.366 322.32C533.196 323.381 529.039 324.442 524.919 325.376C523.47 325.705 522.034 325.97 520.598 326.248C521.493 325.894 522.236 325.579 522.337 325.528C525.688 323.722 531.08 318.254 530.311 314.048C529.757 311.03 526.633 309.476 523.811 310.31C520.926 311.156 518.91 314.263 517.889 316.928C516.907 319.504 517.108 324.985 517.197 326.841C515.71 327.081 514.236 327.321 512.787 327.473C511.792 327.561 510.847 327.713 509.852 327.751C508.869 327.801 507.886 327.852 506.916 327.915C505.039 327.953 503.112 327.991 501.285 327.978C500.013 327.978 498.803 327.953 497.581 327.928C499.03 327.624 501.839 326.955 502.079 326.879C504.46 326.033 507.975 323.709 510.028 321.007C510.381 320.881 510.721 320.729 511.049 320.54C513.593 319.062 514.627 315.728 512.838 313.24C510.343 309.78 502.671 309.931 499.055 311.106C498.841 311.181 496.611 312.192 495.213 312.848C495.968 312.331 496.724 311.838 497.493 311.308C499.042 310.247 500.554 309.148 502.179 307.974C502.948 307.38 503.716 306.774 504.498 306.168C505.291 305.587 506.047 304.867 506.828 304.21C508.617 302.644 510.343 300.977 512.056 299.259C512.989 300.611 516.34 305.372 518.771 306.862C521.19 308.352 524.693 309.577 527.489 308.479C530.236 307.405 531.76 304.273 530.362 301.533C528.422 297.731 520.812 296.721 517.058 297.34C516.819 297.378 514.186 298.123 512.737 298.565C513.757 297.529 514.778 296.494 515.773 295.408C518.658 292.276 521.467 289.005 524.302 285.759C525.171 284.761 526.041 283.789 526.91 282.804C527.237 283.284 531.105 289.03 533.826 290.71C536.245 292.2 539.747 293.425 542.544 292.326C545.278 291.253 546.815 288.121 545.417 285.38C543.477 281.579 535.867 280.568 532.113 281.187C531.836 281.238 528.031 282.311 527.074 282.64C528.989 280.467 530.929 278.333 532.919 276.287C535.666 273.471 538.513 270.869 541.448 268.545C541.599 268.773 545.606 274.784 548.402 276.502C550.821 277.992 554.324 279.217 557.12 278.118C559.867 277.045 561.391 273.913 559.993 271.172C558.053 267.371 550.443 266.361 546.689 266.979C546.437 267.017 543.539 267.838 542.179 268.268L542.066 268.053C545.253 265.603 548.642 263.633 551.905 261.94C553.794 260.955 555.659 260.122 557.486 259.364C558.116 260.564 561.064 265.994 563.407 267.826C565.649 269.568 568.988 271.172 571.898 270.389C574.745 269.619 576.597 266.676 575.514 263.797C574.002 259.806 566.544 257.962 562.752 258.164C562.55 258.164 560.459 258.518 558.947 258.796C559.779 258.467 560.623 258.101 561.429 257.798C564.44 256.649 567.262 255.777 569.769 255.032C571.205 254.616 572.503 254.275 573.725 253.959C574.96 254.805 579.961 258.164 582.821 258.695C585.618 259.213 589.309 259.086 591.526 257.053C593.693 255.058 593.996 251.585 591.703 249.539C588.528 246.697 581.057 248.503 577.782 250.435C577.504 250.599 573.372 253.719 573.435 253.769L573.511 253.82C572.327 254.098 571.067 254.401 569.694 254.767C567.161 255.462 564.314 256.27 561.265 257.356C558.217 258.442 554.941 259.692 551.602 261.334C548.264 262.976 544.825 264.87 541.536 267.283C541.499 267.308 541.461 267.346 541.423 267.371C542.166 266.361 544.144 263.494 544.27 263.254C546.059 259.895 547.558 252.342 544.61 249.273C542.481 247.063 539.029 247.505 537.127 249.753C535.187 252.052 535.212 255.765 535.829 258.543L535.855 258.417Z" fill="#0951FE"/>
<path opacity="0.3" d="M555.142 248.225C554.991 251.559 557.826 258.493 557.826 258.505C557.851 258.581 561.82 255.247 562.046 255.007C564.667 252.241 568.094 245.358 566.053 241.608C564.579 238.905 561.139 238.425 558.708 240.092C556.226 241.797 555.281 245.384 555.142 248.225Z" fill="#0951FE"/>
<path opacity="0.3" d="M580.667 319.567C580.654 319.643 585.794 319.062 586.109 318.986C589.813 318.127 596.465 314.275 596.818 310.032C597.07 306.963 594.474 304.652 591.526 304.703C588.515 304.753 585.756 307.216 584.081 309.514C582.115 312.217 580.667 319.567 580.667 319.567Z" fill="#0951FE"/>
<path opacity="0.3" d="M535.855 258.417C536.56 261.549 540.755 267.093 541.083 267.535C537.971 269.859 534.973 272.498 532.075 275.34C530.425 276.956 528.8 278.649 527.2 280.354C527.817 279.47 528.359 278.661 528.422 278.548C530.211 275.188 531.71 267.636 528.762 264.567C526.633 262.357 523.181 262.799 521.278 265.047C519.338 267.346 519.363 271.059 519.981 273.837C520.611 276.653 524.088 281.452 525.033 282.715C524.428 283.372 523.811 284.029 523.206 284.698C520.308 287.881 517.423 291.076 514.501 294.119C513.467 295.193 512.422 296.216 511.376 297.239C511.918 296.443 512.371 295.774 512.434 295.673C514.223 292.313 515.723 284.761 512.775 281.692C510.645 279.482 507.194 279.924 505.291 282.172C503.351 284.471 503.376 288.184 503.994 290.962C504.598 293.652 507.773 298.11 508.882 299.613C507.773 300.623 506.664 301.646 505.556 302.581C504.775 303.2 504.069 303.856 503.263 304.437C502.469 305.031 501.675 305.612 500.907 306.193C499.37 307.254 497.783 308.352 496.246 309.35C495.187 310.057 494.167 310.701 493.134 311.358C494.167 310.297 496.157 308.188 496.296 307.999C498.576 304.955 501.197 297.719 498.74 294.233C496.964 291.72 493.487 291.631 491.269 293.564C489.002 295.547 488.46 299.209 488.661 302.05C488.876 305.183 492.025 311.068 492.428 311.813C490.728 312.899 489.052 313.934 487.465 314.882C483.106 317.509 479.263 319.643 476.202 321.272L477.525 323.747C480.586 322.017 484.428 319.782 488.775 317.029C490.513 315.943 492.34 314.743 494.217 313.492C494.583 313.884 496.661 316.119 498.853 317.963C497.43 320.855 496.85 327.069 496.775 327.864C494.759 327.826 492.794 327.763 490.942 327.675C486.419 327.473 482.451 327.182 479.188 326.892L480.737 329.784C483.673 329.961 487.074 330.125 490.854 330.213C492.907 330.264 495.087 330.277 497.342 330.264C497.468 331.072 498.576 337.69 500.315 340.291C501.89 342.653 504.548 345.242 507.559 345.419C510.494 345.596 513.19 343.386 513.064 340.317C512.888 336.048 506.4 331.931 502.734 330.921C502.52 330.858 500.101 330.479 498.576 330.251C499.496 330.251 500.39 330.251 501.335 330.226C503.2 330.201 505.064 330.112 507.08 330.037C508.05 329.961 509.02 329.885 510.016 329.809C510.998 329.759 512.031 329.569 513.039 329.456C515.382 329.14 517.751 328.711 520.119 328.218C520.145 329.86 520.334 335.682 521.53 338.283C522.727 340.86 524.97 343.815 527.918 344.446C530.79 345.065 533.801 343.297 534.129 340.241C534.595 335.998 528.812 330.946 525.335 329.38C525.121 329.279 522.5 328.445 521.064 328.016C522.488 327.713 523.911 327.41 525.335 327.056C529.467 326.033 533.612 324.871 537.757 323.722C539.029 323.368 540.289 323.04 541.562 322.699C541.562 323.28 541.637 330.213 542.985 333.118C544.182 335.694 546.425 338.65 549.373 339.281C552.245 339.9 555.256 338.132 555.583 335.076C556.05 330.832 550.267 325.781 546.79 324.215C546.525 324.101 542.771 322.901 541.788 322.636C544.585 321.891 547.369 321.171 550.154 320.577C553.983 319.744 557.801 319.15 561.53 318.835C561.53 319.112 561.568 326.336 562.953 329.317C564.15 331.893 566.393 334.848 569.341 335.48C572.213 336.099 575.224 334.331 575.552 331.274C576.018 327.031 570.235 321.979 566.758 320.413C566.531 320.312 563.659 319.39 562.286 318.986C562.298 318.847 562.286 318.872 562.311 318.746C566.317 318.468 570.223 318.696 573.876 319.1C575.993 319.327 577.996 319.655 579.948 320.034C579.823 321.386 579.293 327.549 580.238 330.365C581.145 333.068 583.06 336.238 585.907 337.197C588.704 338.132 591.879 336.705 592.547 333.699C593.479 329.531 588.276 323.874 585 321.941C584.824 321.84 582.896 320.969 581.473 320.363C582.355 320.54 583.262 320.716 584.093 320.906C587.23 321.613 590.065 322.447 592.572 323.217C593.996 323.659 595.268 324.088 596.452 324.505C597.007 325.894 599.337 331.464 601.441 333.484C603.482 335.455 606.644 337.399 609.605 336.932C612.515 336.465 614.669 333.737 613.888 330.769C612.805 326.639 605.586 324.013 601.781 323.81C601.454 323.798 596.288 324.114 596.314 324.189L596.351 324.278C595.218 323.848 593.996 323.419 592.648 322.964C590.153 322.143 587.331 321.247 584.194 320.464C581.057 319.681 577.63 318.923 573.952 318.443C570.26 317.963 566.355 317.635 562.286 317.837C562.235 317.837 562.198 317.837 562.147 317.85C563.319 317.42 566.557 316.119 566.796 315.993C570.147 314.187 575.539 308.719 574.771 304.513C574.216 301.495 571.092 299.941 568.27 300.775C565.385 301.621 563.357 304.728 562.349 307.393C561.215 310.398 561.656 317.344 561.694 317.887C557.826 318.102 553.87 318.645 549.889 319.416C547.621 319.858 545.341 320.363 543.073 320.906C544.081 320.502 544.963 320.135 545.089 320.072C548.44 318.266 553.832 312.798 553.064 308.592C552.509 305.574 549.385 304.021 546.563 304.854C543.678 305.7 541.65 308.807 540.642 311.472C539.621 314.174 539.873 320.098 539.974 321.676C539.105 321.891 538.236 322.106 537.366 322.32C533.196 323.381 529.039 324.442 524.919 325.376C523.47 325.705 522.034 325.97 520.598 326.248C521.493 325.894 522.236 325.579 522.337 325.528C525.688 323.722 531.08 318.254 530.311 314.048C529.757 311.03 526.633 309.476 523.811 310.31C520.926 311.156 518.91 314.263 517.889 316.928C516.907 319.504 517.108 324.985 517.197 326.841C515.71 327.081 514.236 327.321 512.787 327.473C511.792 327.561 510.847 327.713 509.852 327.751C508.869 327.801 507.886 327.852 506.916 327.915C505.039 327.953 503.112 327.991 501.285 327.978C500.013 327.978 498.803 327.953 497.581 327.928C499.03 327.624 501.839 326.955 502.079 326.879C504.46 326.033 507.975 323.709 510.028 321.007C510.381 320.881 510.721 320.729 511.049 320.54C513.593 319.062 514.627 315.728 512.838 313.24C510.343 309.78 502.671 309.931 499.055 311.106C498.841 311.181 496.611 312.192 495.213 312.848C495.968 312.331 496.724 311.838 497.493 311.308C499.042 310.247 500.554 309.148 502.179 307.974C502.948 307.38 503.716 306.774 504.498 306.168C505.291 305.587 506.047 304.867 506.828 304.21C508.617 302.644 510.343 300.977 512.056 299.259C512.989 300.611 516.34 305.372 518.771 306.862C521.19 308.352 524.693 309.577 527.489 308.479C530.236 307.405 531.76 304.273 530.362 301.533C528.422 297.731 520.812 296.721 517.058 297.34C516.819 297.378 514.186 298.123 512.737 298.565C513.757 297.529 514.778 296.494 515.773 295.408C518.658 292.276 521.467 289.005 524.302 285.759C525.171 284.761 526.041 283.789 526.91 282.804C527.237 283.284 531.105 289.03 533.826 290.71C536.245 292.2 539.747 293.425 542.544 292.326C545.278 291.253 546.815 288.121 545.417 285.38C543.477 281.579 535.867 280.568 532.113 281.187C531.836 281.238 528.031 282.311 527.074 282.64C528.989 280.467 530.929 278.333 532.919 276.287C535.666 273.471 538.513 270.869 541.448 268.545C541.599 268.773 545.606 274.784 548.402 276.502C550.821 277.992 554.324 279.217 557.12 278.118C559.867 277.045 561.391 273.913 559.993 271.172C558.053 267.371 550.443 266.361 546.689 266.979C546.437 267.017 543.539 267.838 542.179 268.268L542.066 268.053C545.253 265.603 548.642 263.633 551.905 261.94C553.794 260.955 555.659 260.122 557.486 259.364C558.116 260.564 561.064 265.994 563.407 267.826C565.649 269.568 568.988 271.172 571.898 270.389C574.745 269.619 576.597 266.676 575.514 263.797C574.002 259.806 566.544 257.962 562.752 258.164C562.55 258.164 560.459 258.518 558.947 258.796C559.779 258.467 560.623 258.101 561.429 257.798C564.44 256.649 567.262 255.777 569.769 255.032C571.205 254.616 572.503 254.275 573.725 253.959C574.96 254.805 579.961 258.164 582.821 258.695C585.618 259.213 589.309 259.086 591.526 257.053C593.693 255.058 593.996 251.585 591.703 249.539C588.528 246.697 581.057 248.503 577.782 250.435C577.504 250.599 573.372 253.719 573.435 253.769L573.511 253.82C572.327 254.098 571.067 254.401 569.694 254.767C567.161 255.462 564.314 256.27 561.265 257.356C558.217 258.442 554.941 259.692 551.602 261.334C548.264 262.976 544.825 264.87 541.536 267.283C541.499 267.308 541.461 267.346 541.423 267.371C542.166 266.361 544.144 263.494 544.27 263.254C546.059 259.895 547.558 252.342 544.61 249.273C542.481 247.063 539.029 247.505 537.127 249.753C535.187 252.052 535.212 255.765 535.829 258.543L535.855 258.417Z" fill="#0951FE"/>
<path d="M590.846 495.743C590.846 495.743 592.937 491.954 593.038 491.702C594.21 488.734 594.726 482.306 591.967 480.033C589.977 478.403 587.155 479.098 585.781 481.157C584.383 483.253 584.761 486.347 585.555 488.595C586.474 491.235 590.846 495.731 590.846 495.743Z" fill="#0951FE"/>
<path d="M529.644 479.464C531.873 481.157 537.984 482.495 537.984 482.495C538.047 482.508 537.643 478.189 537.58 477.911C536.925 474.791 533.814 469.146 530.273 468.767C527.716 468.502 525.738 470.649 525.738 473.124C525.738 475.65 527.741 478.012 529.644 479.452V479.464Z" fill="#0951FE"/>
<path d="M527.477 497.638C529.971 498.635 535.779 498.383 536.232 498.357C536.358 501.616 536.736 504.937 537.316 508.284C537.643 510.204 538.034 512.123 538.45 514.03C538.135 513.184 537.832 512.426 537.782 512.325C536.321 509.484 531.836 504.861 528.321 505.442C525.788 505.859 524.44 508.461 525.096 510.848C525.751 513.285 528.321 515.028 530.525 515.924C532.768 516.821 537.719 516.708 539.029 516.657C539.193 517.389 539.357 518.122 539.521 518.854C540.339 522.378 541.158 525.889 541.864 529.349C542.116 530.574 542.317 531.787 542.519 532.999C542.229 532.241 541.99 531.61 541.939 531.521C540.478 528.68 536.006 524.058 532.478 524.639C529.946 525.055 528.598 527.657 529.253 530.044C529.908 532.481 532.478 534.224 534.683 535.121C536.825 535.98 541.398 535.916 542.96 535.853C543.136 537.104 543.313 538.354 543.426 539.566C543.489 540.4 543.602 541.195 543.602 542.042C543.628 542.875 543.665 543.696 543.691 544.504C543.691 546.07 543.691 547.699 543.653 549.227C543.628 550.288 543.59 551.311 543.552 552.334C543.313 551.109 542.809 548.735 542.746 548.546C541.738 545.515 537.996 540.273 534.431 540.311C531.861 540.337 530.147 542.698 530.425 545.161C530.714 547.674 532.982 549.783 535.023 550.996C537.278 552.334 542.834 552.953 543.527 553.029C543.464 554.721 543.376 556.363 543.275 557.916C543.01 562.172 542.645 565.847 542.317 568.739L544.648 569.005C544.913 566.062 545.202 562.349 545.379 558.03C545.454 556.312 545.505 554.469 545.53 552.587C545.971 552.524 548.503 552.145 550.809 551.501C552.119 553.862 556.113 557.209 556.642 557.638C555.659 559.015 554.676 560.341 553.744 561.579C551.464 564.61 549.372 567.211 547.609 569.32L550.33 569.624C551.854 567.679 553.58 565.405 555.432 562.829C556.44 561.44 557.486 559.924 558.557 558.371C559.174 558.661 564.251 561.048 566.871 561.086C569.252 561.124 572.289 560.505 573.838 558.522C575.35 556.578 575.123 553.66 572.944 552.296C569.92 550.389 564.012 552.915 561.568 554.961C561.429 555.087 560.005 556.565 559.123 557.525C559.552 556.881 559.98 556.275 560.421 555.605C561.29 554.304 562.122 552.966 563.016 551.551C563.432 550.844 563.835 550.137 564.264 549.417C564.692 548.71 565.057 547.914 565.46 547.156C566.355 545.388 567.186 543.544 567.98 541.675C569.127 542.433 573.221 545.085 575.577 545.477C577.92 545.868 581.019 545.729 582.846 543.999C584.635 542.307 584.849 539.389 582.909 537.697C580.213 535.361 573.977 536.952 571.256 538.606C571.092 538.707 569.265 540.122 568.282 540.905C568.749 539.781 569.227 538.657 569.656 537.495C570.915 534.148 572.087 530.738 573.271 527.329C573.637 526.28 574.002 525.245 574.38 524.209C574.783 524.487 579.583 527.733 582.216 528.187C584.559 528.579 587.659 528.44 589.485 526.71C591.274 525.017 591.488 522.1 589.548 520.42C586.852 518.084 580.616 519.675 577.895 521.33C577.693 521.456 575.073 523.489 574.43 524.032C575.249 521.747 576.081 519.473 576.988 517.263C578.248 514.22 579.633 511.302 581.208 508.574C581.397 508.701 586.386 512.123 589.095 512.578C591.438 512.969 594.537 512.83 596.364 511.1C598.153 509.408 598.367 506.491 596.427 504.811C593.731 502.474 587.495 504.066 584.774 505.72C584.597 505.834 582.607 507.375 581.674 508.132L581.523 507.993C583.237 505.089 585.252 502.5 587.268 500.163C588.427 498.812 589.611 497.574 590.796 496.413C591.665 497.145 595.646 500.441 598.04 501.123C600.332 501.78 603.419 501.969 605.435 500.454C607.4 498.964 607.929 496.097 606.191 494.202C603.772 491.576 597.397 492.485 594.512 493.824C594.361 493.899 592.836 494.821 591.753 495.503C592.295 494.985 592.849 494.442 593.366 493.95C595.343 492.119 597.271 490.553 598.984 489.189C599.967 488.418 600.874 487.736 601.718 487.117C602.94 487.395 607.879 488.431 610.272 487.938C612.603 487.458 615.438 486.208 616.521 483.922C617.579 481.687 616.735 478.896 614.316 478.025C610.965 476.812 605.724 480.55 603.772 483.089C603.608 483.303 601.365 487.029 601.428 487.042H601.504C600.673 487.648 599.791 488.279 598.833 488.987C597.082 490.325 595.117 491.841 593.088 493.647C591.06 495.44 588.906 497.448 586.827 499.772C584.736 502.096 582.657 504.647 580.855 507.551C580.83 507.589 580.818 507.627 580.793 507.652C581.057 506.642 581.7 503.775 581.725 503.561C582.065 500.391 580.881 494.051 577.618 492.599C575.274 491.55 572.73 492.977 571.949 495.314C571.155 497.713 572.339 500.58 573.687 502.55C575.211 504.76 580.2 507.753 580.604 507.993C578.915 510.772 577.404 513.765 576.043 516.884C575.262 518.665 574.531 520.484 573.826 522.302C574.027 521.418 574.204 520.623 574.204 520.509C574.544 517.339 573.36 510.999 570.097 509.547C567.753 508.499 565.208 509.926 564.427 512.262C563.634 514.662 564.818 517.528 566.166 519.499C567.539 521.494 571.734 524.133 572.856 524.815C572.591 525.523 572.314 526.217 572.062 526.924C570.802 530.309 569.567 533.694 568.245 536.977C567.778 538.139 567.275 539.25 566.783 540.387C566.96 539.604 567.098 538.935 567.111 538.834C567.451 535.664 566.267 529.324 563.004 527.872C560.66 526.823 558.116 528.238 557.335 530.587C556.541 532.986 557.725 535.853 559.073 537.823C560.383 539.718 564.238 542.193 565.561 543.014C565.019 544.151 564.478 545.287 563.898 546.361C563.482 547.081 563.142 547.813 562.689 548.52C562.26 549.227 561.832 549.935 561.404 550.629C560.534 551.943 559.653 553.294 558.771 554.544C558.166 555.416 557.574 556.249 556.982 557.083C557.461 555.934 558.342 553.673 558.393 553.471C558.935 551.425 559.023 547.889 558.128 545.186C558.216 544.883 558.267 544.58 558.292 544.264C558.481 541.802 556.692 539.503 554.122 539.554C550.557 539.629 547.004 545.009 546.097 548.066C546.046 548.242 545.681 550.263 545.48 551.551C545.48 550.781 545.505 550.036 545.505 549.24C545.505 547.674 545.48 546.108 545.442 544.416C545.391 543.607 545.354 542.787 545.303 541.953C545.278 541.132 545.139 540.261 545.064 539.402C544.837 537.419 544.522 535.436 544.144 533.428C545.517 533.428 550.393 533.378 552.572 532.405C554.752 531.446 557.246 529.602 557.826 527.152C558.393 524.752 556.957 522.201 554.412 521.86C550.872 521.393 546.55 526.179 545.202 529.059C545.114 529.236 544.371 531.42 543.993 532.62C543.766 531.42 543.539 530.221 543.262 529.008C542.469 525.523 541.562 522.024 540.68 518.526C540.402 517.453 540.151 516.379 539.886 515.318C540.377 515.318 546.16 515.381 548.617 514.295C550.796 513.336 553.291 511.492 553.87 509.042C554.437 506.642 553.001 504.091 550.456 503.763C546.916 503.295 542.595 508.082 541.247 510.961C541.146 511.176 540.075 514.321 539.848 515.129C539.269 512.767 538.714 510.418 538.261 508.069C537.631 504.836 537.19 501.628 536.988 498.484C537.215 498.484 543.262 498.572 545.769 497.461C547.949 496.501 550.443 494.657 551.023 492.207C551.59 489.807 550.154 487.256 547.609 486.928C544.069 486.461 539.747 491.247 538.399 494.127C538.311 494.316 537.492 496.716 537.14 497.852L536.938 497.827C536.762 494.455 537.026 491.184 537.417 488.115C537.643 486.347 537.958 484.655 538.299 483.026C539.42 483.152 544.573 483.708 546.928 482.95C549.196 482.23 551.88 480.677 552.724 478.302C553.542 475.979 552.409 473.289 549.914 472.67C546.45 471.824 541.637 476.092 539.962 478.82C539.873 478.972 539.117 480.576 538.576 481.75C538.74 481.018 538.903 480.26 539.067 479.553C539.71 476.926 540.453 474.564 541.133 472.468C541.524 471.281 541.914 470.22 542.28 469.222C543.451 468.78 548.138 466.911 549.864 465.181C551.539 463.488 553.215 460.874 552.875 458.374C552.535 455.924 550.292 454.067 547.785 454.673C544.321 455.519 542.015 461.544 541.776 464.726C541.75 465.004 541.939 469.336 542.002 469.323L542.078 469.298C541.7 470.245 541.322 471.268 540.919 472.392C540.188 474.476 539.395 476.825 538.689 479.452C537.984 482.066 537.291 484.933 536.837 488.014C536.371 491.108 536.043 494.379 536.144 497.802C536.144 497.84 536.144 497.878 536.144 497.915C535.804 496.93 534.771 494.19 534.67 493.988C533.209 491.146 528.736 486.524 525.209 487.105C522.677 487.522 521.329 490.123 521.984 492.51C522.639 494.948 525.209 496.69 527.414 497.587L527.477 497.638Z" fill="#0951FE"/>
<path opacity="0.3" d="M529.644 479.464C531.873 481.157 537.984 482.495 537.984 482.495C538.047 482.508 537.643 478.189 537.58 477.911C536.925 474.791 533.814 469.146 530.273 468.767C527.716 468.502 525.738 470.649 525.738 473.124C525.738 475.65 527.741 478.012 529.644 479.452V479.464Z" fill="#0951FE"/>
<path opacity="0.3" d="M590.846 495.743C590.846 495.743 592.937 491.954 593.038 491.702C594.21 488.734 594.726 482.306 591.967 480.033C589.977 478.403 587.155 479.098 585.781 481.157C584.383 483.253 584.761 486.347 585.555 488.595C586.474 491.235 590.846 495.731 590.846 495.743Z" fill="#0951FE"/>
<path opacity="0.3" d="M527.477 497.638C529.971 498.635 535.779 498.383 536.232 498.357C536.358 501.616 536.736 504.937 537.316 508.284C537.643 510.204 538.034 512.123 538.45 514.03C538.135 513.184 537.832 512.426 537.782 512.325C536.321 509.484 531.836 504.861 528.321 505.442C525.788 505.859 524.44 508.461 525.096 510.848C525.751 513.285 528.321 515.028 530.525 515.924C532.768 516.821 537.719 516.708 539.029 516.657C539.193 517.389 539.357 518.122 539.521 518.854C540.339 522.378 541.158 525.889 541.864 529.349C542.116 530.574 542.317 531.787 542.519 532.999C542.229 532.241 541.99 531.61 541.939 531.521C540.478 528.68 536.006 524.058 532.478 524.639C529.946 525.055 528.598 527.657 529.253 530.044C529.908 532.481 532.478 534.224 534.683 535.121C536.825 535.98 541.398 535.916 542.96 535.853C543.136 537.104 543.313 538.354 543.426 539.566C543.489 540.4 543.602 541.195 543.602 542.042C543.628 542.875 543.665 543.696 543.691 544.504C543.691 546.07 543.691 547.699 543.653 549.227C543.628 550.288 543.59 551.311 543.552 552.334C543.313 551.109 542.809 548.735 542.746 548.546C541.738 545.515 537.996 540.273 534.431 540.311C531.861 540.337 530.147 542.698 530.425 545.161C530.714 547.674 532.982 549.783 535.023 550.996C537.278 552.334 542.834 552.953 543.527 553.029C543.464 554.721 543.376 556.363 543.275 557.916C543.01 562.172 542.645 565.847 542.317 568.739L544.648 569.005C544.913 566.062 545.202 562.349 545.379 558.03C545.454 556.312 545.505 554.469 545.53 552.587C545.971 552.524 548.503 552.145 550.809 551.501C552.119 553.862 556.113 557.209 556.642 557.638C555.659 559.015 554.676 560.341 553.744 561.579C551.464 564.61 549.372 567.211 547.609 569.32L550.33 569.624C551.854 567.679 553.58 565.405 555.432 562.829C556.44 561.44 557.486 559.924 558.557 558.371C559.174 558.661 564.251 561.048 566.871 561.086C569.252 561.124 572.289 560.505 573.838 558.522C575.35 556.578 575.123 553.66 572.944 552.296C569.92 550.389 564.012 552.915 561.568 554.961C561.429 555.087 560.005 556.565 559.123 557.525C559.552 556.881 559.98 556.275 560.421 555.605C561.29 554.304 562.122 552.966 563.016 551.551C563.432 550.844 563.835 550.137 564.264 549.417C564.692 548.71 565.057 547.914 565.46 547.156C566.355 545.388 567.186 543.544 567.98 541.675C569.127 542.433 573.221 545.085 575.577 545.477C577.92 545.868 581.019 545.729 582.846 543.999C584.635 542.307 584.849 539.389 582.909 537.697C580.213 535.361 573.977 536.952 571.256 538.606C571.092 538.707 569.265 540.122 568.282 540.905C568.749 539.781 569.227 538.657 569.656 537.495C570.915 534.148 572.087 530.738 573.271 527.329C573.637 526.28 574.002 525.245 574.38 524.209C574.783 524.487 579.583 527.733 582.216 528.187C584.559 528.579 587.659 528.44 589.485 526.71C591.274 525.017 591.488 522.1 589.548 520.42C586.852 518.084 580.616 519.675 577.895 521.33C577.693 521.456 575.073 523.489 574.43 524.032C575.249 521.747 576.081 519.473 576.988 517.263C578.248 514.22 579.633 511.302 581.208 508.574C581.397 508.701 586.386 512.123 589.095 512.578C591.438 512.969 594.537 512.83 596.364 511.1C598.153 509.408 598.367 506.491 596.427 504.811C593.731 502.474 587.495 504.066 584.774 505.72C584.597 505.834 582.607 507.375 581.674 508.132L581.523 507.993C583.237 505.089 585.252 502.5 587.268 500.163C588.427 498.812 589.611 497.574 590.796 496.413C591.665 497.145 595.646 500.441 598.04 501.123C600.332 501.78 603.419 501.969 605.435 500.454C607.4 498.964 607.929 496.097 606.191 494.202C603.772 491.576 597.397 492.485 594.512 493.824C594.361 493.899 592.836 494.821 591.753 495.503C592.295 494.985 592.849 494.442 593.366 493.95C595.343 492.119 597.271 490.553 598.984 489.189C599.967 488.418 600.874 487.736 601.718 487.117C602.94 487.395 607.879 488.431 610.272 487.938C612.603 487.458 615.438 486.208 616.521 483.922C617.579 481.687 616.735 478.896 614.316 478.025C610.965 476.812 605.724 480.55 603.772 483.089C603.608 483.303 601.365 487.029 601.428 487.042H601.504C600.673 487.648 599.791 488.279 598.833 488.987C597.082 490.325 595.117 491.841 593.088 493.647C591.06 495.44 588.906 497.448 586.827 499.772C584.736 502.096 582.657 504.647 580.855 507.551C580.83 507.589 580.818 507.627 580.793 507.652C581.057 506.642 581.7 503.775 581.725 503.561C582.065 500.391 580.881 494.051 577.618 492.599C575.274 491.55 572.73 492.977 571.949 495.314C571.155 497.713 572.339 500.58 573.687 502.55C575.211 504.76 580.2 507.753 580.604 507.993C578.915 510.772 577.404 513.765 576.043 516.884C575.262 518.665 574.531 520.484 573.826 522.302C574.027 521.418 574.204 520.623 574.204 520.509C574.544 517.339 573.36 510.999 570.097 509.547C567.753 508.499 565.208 509.926 564.427 512.262C563.634 514.662 564.818 517.528 566.166 519.499C567.539 521.494 571.734 524.133 572.856 524.815C572.591 525.523 572.314 526.217 572.062 526.924C570.802 530.309 569.567 533.694 568.245 536.977C567.778 538.139 567.275 539.25 566.783 540.387C566.96 539.604 567.098 538.935 567.111 538.834C567.451 535.664 566.267 529.324 563.004 527.872C560.66 526.823 558.116 528.238 557.335 530.587C556.541 532.986 557.725 535.853 559.073 537.823C560.383 539.718 564.238 542.193 565.561 543.014C565.019 544.151 564.478 545.287 563.898 546.361C563.482 547.081 563.142 547.813 562.689 548.52C562.26 549.227 561.832 549.935 561.404 550.629C560.534 551.943 559.653 553.294 558.771 554.544C558.166 555.416 557.574 556.249 556.982 557.083C557.461 555.934 558.342 553.673 558.393 553.471C558.935 551.425 559.023 547.889 558.128 545.186C558.216 544.883 558.267 544.58 558.292 544.264C558.481 541.802 556.692 539.503 554.122 539.554C550.557 539.629 547.004 545.009 546.097 548.066C546.046 548.242 545.681 550.263 545.48 551.551C545.48 550.781 545.505 550.036 545.505 549.24C545.505 547.674 545.48 546.108 545.442 544.416C545.391 543.607 545.354 542.787 545.303 541.953C545.278 541.132 545.139 540.261 545.064 539.402C544.837 537.419 544.522 535.436 544.144 533.428C545.517 533.428 550.393 533.378 552.572 532.405C554.752 531.446 557.246 529.602 557.826 527.152C558.393 524.752 556.957 522.201 554.412 521.86C550.872 521.393 546.55 526.179 545.202 529.059C545.114 529.236 544.371 531.42 543.993 532.62C543.766 531.42 543.539 530.221 543.262 529.008C542.469 525.523 541.562 522.024 540.68 518.526C540.402 517.453 540.151 516.379 539.886 515.318C540.377 515.318 546.16 515.381 548.617 514.295C550.796 513.336 553.291 511.492 553.87 509.042C554.437 506.642 553.001 504.091 550.456 503.763C546.916 503.295 542.595 508.082 541.247 510.961C541.146 511.176 540.075 514.321 539.848 515.129C539.269 512.767 538.714 510.418 538.261 508.069C537.631 504.836 537.19 501.628 536.988 498.484C537.215 498.484 543.262 498.572 545.769 497.461C547.949 496.501 550.443 494.657 551.023 492.207C551.59 489.807 550.154 487.256 547.609 486.928C544.069 486.461 539.747 491.247 538.399 494.127C538.311 494.316 537.492 496.716 537.14 497.852L536.938 497.827C536.762 494.455 537.026 491.184 537.417 488.115C537.643 486.347 537.958 484.655 538.299 483.026C539.42 483.152 544.573 483.708 546.928 482.95C549.196 482.23 551.88 480.677 552.724 478.302C553.542 475.979 552.409 473.289 549.914 472.67C546.45 471.824 541.637 476.092 539.962 478.82C539.873 478.972 539.117 480.576 538.576 481.75C538.74 481.018 538.903 480.26 539.067 479.553C539.71 476.926 540.453 474.564 541.133 472.468C541.524 471.281 541.914 470.22 542.28 469.222C543.451 468.78 548.138 466.911 549.864 465.181C551.539 463.488 553.215 460.874 552.875 458.374C552.535 455.924 550.292 454.067 547.785 454.673C544.321 455.519 542.015 461.544 541.776 464.726C541.75 465.004 541.939 469.336 542.002 469.323L542.078 469.298C541.7 470.245 541.322 471.268 540.919 472.392C540.188 474.476 539.395 476.825 538.689 479.452C537.984 482.066 537.291 484.933 536.837 488.014C536.371 491.108 536.043 494.379 536.144 497.802C536.144 497.84 536.144 497.878 536.144 497.915C535.804 496.93 534.771 494.19 534.67 493.988C533.209 491.146 528.736 486.524 525.209 487.105C522.677 487.522 521.329 490.123 521.984 492.51C522.639 494.948 525.209 496.69 527.414 497.587L527.477 497.638Z" fill="#0951FE"/>
<path d="M84.3958 487.332C84.3958 487.332 84.3706 483.013 84.3328 482.735C83.9044 479.578 81.221 473.718 77.7061 473.087C75.1738 472.632 73.0447 474.627 72.8684 477.103C72.6794 479.616 74.5187 482.129 76.2951 483.708C78.3864 485.564 84.3958 487.345 84.3958 487.345V487.332Z" fill="#0951FE"/>
<path d="M23.08 503.169C25.8516 503.561 31.8358 501.717 31.8358 501.717C31.8988 501.691 29.4295 498.13 29.2532 497.915C27.1493 495.516 21.6942 492.119 18.4187 493.533C16.0628 494.556 15.3825 497.398 16.5919 499.557C17.8139 501.755 20.7241 502.841 23.08 503.169Z" fill="#0951FE"/>
<path d="M30.0595 520.079C32.7177 519.738 37.6562 516.657 38.0468 516.404C39.7349 519.183 41.7003 521.898 43.842 524.537C45.064 526.04 46.3364 527.531 47.634 528.996C46.9411 528.415 46.3238 527.897 46.223 527.834C43.5648 526.078 37.4042 524.234 34.62 526.47C32.6169 528.074 32.7177 531.004 34.4437 532.759C36.2074 534.565 39.294 534.83 41.6499 534.514C44.0435 534.199 48.3017 531.66 49.423 530.978C49.9269 531.534 50.4183 532.102 50.9348 532.658C53.3662 535.323 55.7977 537.987 58.1032 540.665C58.9221 541.612 59.6906 542.572 60.4591 543.519C59.8418 543.001 59.3252 542.572 59.237 542.521C56.5788 540.766 50.4183 538.922 47.634 541.157C45.6309 542.774 45.7317 545.691 47.4577 547.447C49.2214 549.253 52.308 549.518 54.6639 549.202C56.9441 548.899 60.9 546.601 62.2354 545.792C62.9913 546.79 63.7598 547.8 64.4527 548.811C64.9062 549.505 65.3976 550.149 65.8133 550.869C66.2417 551.576 66.67 552.284 67.0983 552.978C67.8668 554.355 68.6605 555.757 69.366 557.121C69.87 558.055 70.3235 558.964 70.8022 559.874C70.0085 558.927 68.396 557.108 68.2448 556.969C65.8889 554.822 60.0685 552.082 56.9819 553.862C54.7521 555.15 54.4119 558.055 55.8481 560.051C57.3221 562.096 60.3331 562.829 62.7142 562.892C65.3346 562.955 70.4747 560.77 71.1172 560.493C71.8857 561.995 72.6164 563.473 73.2841 564.875C75.1234 568.714 76.61 572.099 77.7313 574.789L79.8982 573.867C78.7013 571.177 77.1266 567.792 75.1738 563.94C74.4053 562.4 73.5487 560.783 72.6416 559.116C72.9943 558.838 75.0101 557.285 76.7108 555.58C79.0037 556.994 84.1312 557.954 84.7989 558.08C84.6099 559.76 84.4084 561.402 84.1942 562.943C83.6777 566.706 83.1233 570.002 82.632 572.705L85.1643 571.631C85.5422 569.194 85.9328 566.365 86.2981 563.208C86.4997 561.503 86.6761 559.672 86.8398 557.79C87.5201 557.739 93.1138 557.335 95.4192 556.085C97.5106 554.948 99.8664 552.928 100.244 550.427C100.622 547.99 98.9972 545.552 96.4271 545.426C92.8618 545.249 88.9311 550.351 87.8099 553.332C87.7469 553.509 87.2304 555.504 86.928 556.767C86.991 555.997 87.0666 555.251 87.117 554.456C87.243 552.89 87.3186 551.324 87.4067 549.644C87.4193 548.823 87.432 548.002 87.4445 547.181C87.4823 546.361 87.4068 545.489 87.3942 544.63C87.3186 542.648 87.1422 540.627 86.9154 538.606C88.2886 538.707 93.1516 539.01 95.3941 538.202C97.6365 537.394 100.257 535.752 101.013 533.34C101.744 530.978 100.509 528.339 97.9893 527.821C94.4996 527.101 89.8382 531.547 88.276 534.325C88.1752 534.502 87.2808 536.624 86.802 537.798C86.6635 536.586 86.5249 535.373 86.3359 534.148C85.8068 530.612 85.1517 527.063 84.5217 523.502C84.3328 522.416 84.1438 521.33 83.9674 520.244C84.4588 520.281 90.2288 520.761 92.7484 519.865C94.9909 519.056 97.6114 517.415 98.3672 515.003C99.0979 512.641 97.8633 510.001 95.3437 509.484C91.8539 508.764 87.1926 513.209 85.6304 515.988C85.517 516.202 84.2194 519.246 83.9296 520.042C83.5265 517.642 83.1359 515.255 82.8588 512.893C82.4682 509.623 82.2541 506.389 82.2919 503.245C82.5186 503.27 88.5406 503.788 91.1232 502.866C93.3657 502.058 95.9862 500.416 96.7421 498.004C97.4728 495.642 96.2381 493.003 93.7185 492.485C90.2288 491.765 85.5674 496.21 84.0052 498.989C83.9044 499.166 82.9218 501.502 82.4682 502.613L82.2667 502.575C82.3423 499.204 82.8336 495.958 83.4509 492.927C83.8036 491.171 84.232 489.517 84.6981 487.926C85.8068 488.14 90.8965 489.062 93.3153 488.481C95.6334 487.926 98.4176 486.587 99.4381 484.276C100.433 482.015 99.4885 479.249 97.0444 478.454C93.6555 477.355 88.5406 481.258 86.6761 483.859C86.5753 483.998 85.706 485.551 85.0887 486.675C85.3028 485.956 85.517 485.21 85.7438 484.528C86.5753 481.952 87.4949 479.654 88.3138 477.62C88.7926 476.471 89.2461 475.436 89.687 474.476C90.8839 474.109 95.709 472.594 97.5484 471.003C99.3499 469.449 101.202 466.961 101.038 464.436C100.874 461.973 98.7704 459.952 96.2381 460.382C92.7232 460.975 89.9768 466.81 89.5233 469.967C89.4855 470.245 89.3469 474.577 89.4099 474.564L89.4855 474.539C89.0445 475.461 88.5784 476.446 88.0997 477.532C87.2304 479.553 86.2603 481.838 85.3658 484.402C84.4714 486.966 83.5769 489.77 82.8966 492.813C82.2037 495.857 81.6367 499.102 81.4856 502.525C81.4856 502.563 81.4856 502.601 81.4856 502.639C81.221 501.628 80.3895 498.812 80.3013 498.61C79.0541 495.667 74.9219 490.729 71.3692 491.058C68.8117 491.298 67.2873 493.786 67.7535 496.21C68.2322 498.686 70.6637 500.618 72.8054 501.666C75.2116 502.853 81.032 503.017 81.4856 503.03C81.3722 506.288 81.5108 509.635 81.8509 513.02C82.0399 514.952 82.2919 516.897 82.5564 518.842C82.3045 517.97 82.0651 517.2 82.0147 517.099C80.7675 514.156 76.6352 509.218 73.0825 509.547C70.5251 509.787 69.0007 512.275 69.4668 514.699C69.9456 517.175 72.377 519.107 74.5187 520.155C76.6856 521.216 81.6367 521.456 82.947 521.507C83.0603 522.252 83.1611 522.997 83.2745 523.742C83.8288 527.316 84.3958 530.877 84.8493 534.376C85.0131 535.613 85.1265 536.838 85.2399 538.063C85.0131 537.293 84.8115 536.649 84.7737 536.548C83.5265 533.605 79.3943 528.667 75.8415 528.996C73.2841 529.223 71.7597 531.723 72.2258 534.148C72.7046 536.624 75.136 538.556 77.2777 539.604C79.3439 540.614 83.917 540.88 85.4792 540.943C85.5548 542.206 85.643 543.456 85.6682 544.681C85.6682 545.514 85.7186 546.323 85.6682 547.156C85.6304 547.99 85.6052 548.811 85.5674 549.619C85.454 551.185 85.3406 552.801 85.1895 554.33C85.0887 555.39 84.9753 556.401 84.8619 557.424C84.7233 556.186 84.3832 553.787 84.3328 553.584C83.8036 551.526 82.1533 548.419 80.062 546.487C79.9864 546.184 79.8856 545.881 79.7596 545.603C78.7265 543.355 76.0305 542.231 73.8258 543.544C70.7518 545.363 70.2857 551.791 70.9912 554.911C71.029 555.1 71.7093 557.032 72.1503 558.257C71.7849 557.575 71.4322 556.919 71.0416 556.224C70.2857 554.847 69.4794 553.509 68.6353 552.044C68.1944 551.362 67.7535 550.667 67.3125 549.96C66.8842 549.253 66.3425 548.571 65.8637 547.863C64.7047 546.247 63.4449 544.668 62.1472 543.102C63.3441 542.433 67.5645 539.996 69.0007 538.076C70.4243 536.169 71.7093 533.34 71.0164 530.915C70.3361 528.541 67.8416 527.025 65.4606 527.985C62.1472 529.324 60.711 535.601 60.9378 538.783C60.9504 538.985 61.3661 541.246 61.6181 542.483C60.8244 541.549 60.0433 540.614 59.2244 539.692C56.8308 537.04 54.3363 534.439 51.8545 531.824C51.0986 531.029 50.3427 530.221 49.5868 529.412C50.0151 529.172 55.0922 526.381 56.6922 524.234C58.1158 522.327 59.4008 519.498 58.7079 517.074C58.0276 514.699 55.5331 513.184 53.1521 514.144C49.8387 515.482 48.4025 521.759 48.6293 524.942C48.6419 525.182 49.2466 528.44 49.4482 529.261C47.7978 527.493 46.16 525.712 44.623 523.881C42.4939 521.368 40.5412 518.791 38.8404 516.152C39.042 516.038 44.3585 513.159 45.9963 510.949C47.4199 509.042 48.7049 506.213 48.012 503.788C47.3317 501.414 44.8372 499.898 42.4561 500.858C39.1428 502.197 37.7066 508.473 37.9334 511.656C37.946 511.871 38.4121 514.346 38.6515 515.533C38.5507 515.571 38.5633 515.571 38.4625 515.609C36.6735 512.755 35.2877 509.774 34.1413 506.907C33.4736 505.253 32.9193 503.636 32.4279 502.045C33.4736 501.603 38.2231 499.557 39.9239 497.751C41.5491 496.008 43.1365 493.344 42.7081 490.856C42.2924 488.418 39.9869 486.638 37.505 487.332C34.0657 488.292 31.9492 494.379 31.8232 497.574C31.8232 497.751 31.9366 499.519 32.05 500.807C31.8358 500.088 31.5964 499.342 31.4075 498.648C30.6768 496.046 30.1854 493.609 29.7571 491.462C29.5177 490.237 29.3414 489.125 29.1776 488.077C29.9839 487.117 33.1586 483.19 33.8263 480.828C34.4688 478.53 34.6578 475.423 33.1334 473.415C31.6468 471.445 28.7744 470.927 26.8973 472.682C24.2895 475.12 25.2091 481.497 26.5697 484.39C26.6831 484.642 28.9634 488.33 29.0012 488.279L29.0516 488.216C29.1902 489.226 29.354 490.3 29.5429 491.474C29.9209 493.647 30.3744 496.084 31.0421 498.724C31.7098 501.35 32.5035 504.192 33.6122 507.109C34.7208 510.027 36.031 513.045 37.7822 515.988C37.8074 516.025 37.8326 516.051 37.8452 516.089C37.0641 515.394 34.8216 513.512 34.6326 513.386C31.9744 511.631 25.8138 509.787 23.0296 512.022C21.0265 513.639 21.1273 516.556 22.8532 518.311C24.617 520.117 27.7036 520.382 30.0595 520.067V520.079Z" fill="#0951FE"/>
<path opacity="0.3" d="M23.08 503.169C25.8516 503.561 31.8358 501.717 31.8358 501.717C31.8988 501.691 29.4295 498.13 29.2532 497.915C27.1493 495.516 21.6942 492.119 18.4187 493.533C16.0628 494.556 15.3825 497.398 16.5919 499.557C17.8139 501.755 20.7241 502.841 23.08 503.169Z" fill="#0951FE"/>
<path opacity="0.3" d="M84.3958 487.332C84.3958 487.332 84.3706 483.013 84.3328 482.735C83.9044 479.578 81.221 473.718 77.7061 473.087C75.1738 472.632 73.0447 474.627 72.8684 477.103C72.6794 479.616 74.5187 482.129 76.2951 483.708C78.3864 485.564 84.3958 487.345 84.3958 487.345V487.332Z" fill="#0951FE"/>
<path opacity="0.3" d="M30.0595 520.079C32.7177 519.738 37.6562 516.657 38.0468 516.404C39.7349 519.183 41.7003 521.898 43.842 524.537C45.064 526.04 46.3364 527.531 47.634 528.996C46.9411 528.415 46.3238 527.897 46.223 527.834C43.5648 526.078 37.4042 524.234 34.62 526.47C32.6169 528.074 32.7177 531.004 34.4437 532.759C36.2074 534.565 39.294 534.83 41.6499 534.514C44.0435 534.199 48.3017 531.66 49.423 530.978C49.9269 531.534 50.4183 532.102 50.9348 532.658C53.3662 535.323 55.7977 537.987 58.1032 540.665C58.9221 541.612 59.6906 542.572 60.4591 543.519C59.8418 543.001 59.3252 542.572 59.237 542.521C56.5788 540.766 50.4183 538.922 47.634 541.157C45.6309 542.774 45.7317 545.691 47.4577 547.447C49.2214 549.253 52.308 549.518 54.6639 549.202C56.9441 548.899 60.9 546.601 62.2354 545.792C62.9913 546.79 63.7598 547.8 64.4527 548.811C64.9062 549.505 65.3976 550.149 65.8133 550.869C66.2417 551.576 66.67 552.284 67.0983 552.978C67.8668 554.355 68.6605 555.757 69.366 557.121C69.87 558.055 70.3235 558.964 70.8022 559.874C70.0085 558.927 68.396 557.108 68.2448 556.969C65.8889 554.822 60.0685 552.082 56.9819 553.862C54.7521 555.15 54.4119 558.055 55.8481 560.051C57.3221 562.096 60.3331 562.829 62.7142 562.892C65.3346 562.955 70.4747 560.77 71.1172 560.493C71.8857 561.995 72.6164 563.473 73.2841 564.875C75.1234 568.714 76.61 572.099 77.7313 574.789L79.8982 573.867C78.7013 571.177 77.1266 567.792 75.1738 563.94C74.4053 562.4 73.5487 560.783 72.6416 559.116C72.9943 558.838 75.0101 557.285 76.7108 555.58C79.0037 556.994 84.1312 557.954 84.7989 558.08C84.6099 559.76 84.4084 561.402 84.1942 562.943C83.6777 566.706 83.1233 570.002 82.632 572.705L85.1643 571.631C85.5422 569.194 85.9328 566.365 86.2981 563.208C86.4997 561.503 86.6761 559.672 86.8398 557.79C87.5201 557.739 93.1138 557.335 95.4192 556.085C97.5106 554.948 99.8664 552.928 100.244 550.427C100.622 547.99 98.9972 545.552 96.4271 545.426C92.8618 545.249 88.9311 550.351 87.8099 553.332C87.7469 553.509 87.2304 555.504 86.928 556.767C86.991 555.997 87.0666 555.251 87.117 554.456C87.243 552.89 87.3186 551.324 87.4067 549.644C87.4193 548.823 87.432 548.002 87.4445 547.181C87.4823 546.361 87.4068 545.489 87.3942 544.63C87.3186 542.648 87.1422 540.627 86.9154 538.606C88.2886 538.707 93.1516 539.01 95.3941 538.202C97.6365 537.394 100.257 535.752 101.013 533.34C101.744 530.978 100.509 528.339 97.9893 527.821C94.4996 527.101 89.8382 531.547 88.276 534.325C88.1752 534.502 87.2808 536.624 86.802 537.798C86.6635 536.586 86.5249 535.373 86.3359 534.148C85.8068 530.612 85.1517 527.063 84.5217 523.502C84.3328 522.416 84.1438 521.33 83.9674 520.244C84.4588 520.281 90.2288 520.761 92.7484 519.865C94.9909 519.056 97.6114 517.415 98.3672 515.003C99.0979 512.641 97.8633 510.001 95.3437 509.484C91.8539 508.764 87.1926 513.209 85.6304 515.988C85.517 516.202 84.2194 519.246 83.9296 520.042C83.5265 517.642 83.1359 515.255 82.8588 512.893C82.4682 509.623 82.2541 506.389 82.2919 503.245C82.5186 503.27 88.5406 503.788 91.1232 502.866C93.3657 502.058 95.9862 500.416 96.7421 498.004C97.4728 495.642 96.2381 493.003 93.7185 492.485C90.2288 491.765 85.5674 496.21 84.0052 498.989C83.9044 499.166 82.9218 501.502 82.4682 502.613L82.2667 502.575C82.3423 499.204 82.8336 495.958 83.4509 492.927C83.8036 491.171 84.232 489.517 84.6981 487.926C85.8068 488.14 90.8965 489.062 93.3153 488.481C95.6334 487.926 98.4176 486.587 99.4381 484.276C100.433 482.015 99.4885 479.249 97.0444 478.454C93.6555 477.355 88.5406 481.258 86.6761 483.859C86.5753 483.998 85.706 485.551 85.0887 486.675C85.3028 485.956 85.517 485.21 85.7438 484.528C86.5753 481.952 87.4949 479.654 88.3138 477.62C88.7926 476.471 89.2461 475.436 89.687 474.476C90.8839 474.109 95.709 472.594 97.5484 471.003C99.3499 469.449 101.202 466.961 101.038 464.436C100.874 461.973 98.7704 459.952 96.2381 460.382C92.7232 460.975 89.9768 466.81 89.5233 469.967C89.4855 470.245 89.3469 474.577 89.4099 474.564L89.4855 474.539C89.0445 475.461 88.5784 476.446 88.0997 477.532C87.2304 479.553 86.2603 481.838 85.3658 484.402C84.4714 486.966 83.5769 489.77 82.8966 492.813C82.2037 495.857 81.6367 499.102 81.4856 502.525C81.4856 502.563 81.4856 502.601 81.4856 502.639C81.221 501.628 80.3895 498.812 80.3013 498.61C79.0541 495.667 74.9219 490.729 71.3692 491.058C68.8117 491.298 67.2873 493.786 67.7535 496.21C68.2322 498.686 70.6637 500.618 72.8054 501.666C75.2116 502.853 81.032 503.017 81.4856 503.03C81.3722 506.288 81.5108 509.635 81.8509 513.02C82.0399 514.952 82.2919 516.897 82.5564 518.842C82.3045 517.97 82.0651 517.2 82.0147 517.099C80.7675 514.156 76.6352 509.218 73.0825 509.547C70.5251 509.787 69.0007 512.275 69.4668 514.699C69.9456 517.175 72.377 519.107 74.5187 520.155C76.6856 521.216 81.6367 521.456 82.947 521.507C83.0603 522.252 83.1611 522.997 83.2745 523.742C83.8288 527.316 84.3958 530.877 84.8493 534.376C85.0131 535.613 85.1265 536.838 85.2399 538.063C85.0131 537.293 84.8115 536.649 84.7737 536.548C83.5265 533.605 79.3943 528.667 75.8415 528.996C73.2841 529.223 71.7597 531.723 72.2258 534.148C72.7046 536.624 75.136 538.556 77.2777 539.604C79.3439 540.614 83.917 540.88 85.4792 540.943C85.5548 542.206 85.643 543.456 85.6682 544.681C85.6682 545.514 85.7186 546.323 85.6682 547.156C85.6304 547.99 85.6052 548.811 85.5674 549.619C85.454 551.185 85.3406 552.801 85.1895 554.33C85.0887 555.39 84.9753 556.401 84.8619 557.424C84.7233 556.186 84.3832 553.787 84.3328 553.584C83.8036 551.526 82.1533 548.419 80.062 546.487C79.9864 546.184 79.8856 545.881 79.7596 545.603C78.7265 543.355 76.0305 542.231 73.8258 543.544C70.7518 545.363 70.2857 551.791 70.9912 554.911C71.029 555.1 71.7093 557.032 72.1503 558.257C71.7849 557.575 71.4322 556.919 71.0416 556.224C70.2857 554.847 69.4794 553.509 68.6353 552.044C68.1944 551.362 67.7535 550.667 67.3125 549.96C66.8842 549.253 66.3425 548.571 65.8637 547.863C64.7047 546.247 63.4449 544.668 62.1472 543.102C63.3441 542.433 67.5645 539.996 69.0007 538.076C70.4243 536.169 71.7093 533.34 71.0164 530.915C70.3361 528.541 67.8416 527.025 65.4606 527.985C62.1472 529.324 60.711 535.601 60.9378 538.783C60.9504 538.985 61.3661 541.246 61.6181 542.483C60.8244 541.549 60.0433 540.614 59.2244 539.692C56.8308 537.04 54.3363 534.439 51.8545 531.824C51.0986 531.029 50.3427 530.221 49.5868 529.412C50.0151 529.172 55.0922 526.381 56.6922 524.234C58.1158 522.327 59.4008 519.498 58.7079 517.074C58.0276 514.699 55.5331 513.184 53.1521 514.144C49.8387 515.482 48.4025 521.759 48.6293 524.942C48.6419 525.182 49.2466 528.44 49.4482 529.261C47.7978 527.493 46.16 525.712 44.623 523.881C42.4939 521.368 40.5412 518.791 38.8404 516.152C39.042 516.038 44.3585 513.159 45.9963 510.949C47.4199 509.042 48.7049 506.213 48.012 503.788C47.3317 501.414 44.8372 499.898 42.4561 500.858C39.1428 502.197 37.7066 508.473 37.9334 511.656C37.946 511.871 38.4121 514.346 38.6515 515.533C38.5507 515.571 38.5633 515.571 38.4625 515.609C36.6735 512.755 35.2877 509.774 34.1413 506.907C33.4736 505.253 32.9193 503.636 32.4279 502.045C33.4736 501.603 38.2231 499.557 39.9239 497.751C41.5491 496.008 43.1365 493.344 42.7081 490.856C42.2924 488.418 39.9869 486.638 37.505 487.332C34.0657 488.292 31.9492 494.379 31.8232 497.574C31.8232 497.751 31.9366 499.519 32.05 500.807C31.8358 500.088 31.5964 499.342 31.4075 498.648C30.6768 496.046 30.1854 493.609 29.7571 491.462C29.5177 490.237 29.3414 489.125 29.1776 488.077C29.9839 487.117 33.1586 483.19 33.8263 480.828C34.4688 478.53 34.6578 475.423 33.1334 473.415C31.6468 471.445 28.7744 470.927 26.8973 472.682C24.2895 475.12 25.2091 481.497 26.5697 484.39C26.6831 484.642 28.9634 488.33 29.0012 488.279L29.0516 488.216C29.1902 489.226 29.354 490.3 29.5429 491.474C29.9209 493.647 30.3744 496.084 31.0421 498.724C31.7098 501.35 32.5035 504.192 33.6122 507.109C34.7208 510.027 36.031 513.045 37.7822 515.988C37.8074 516.025 37.8326 516.051 37.8452 516.089C37.0641 515.394 34.8216 513.512 34.6326 513.386C31.9744 511.631 25.8138 509.787 23.0296 512.022C21.0265 513.639 21.1273 516.556 22.8532 518.311C24.617 520.117 27.7036 520.382 30.0595 520.067V520.079Z" fill="#0951FE"/>
<path d="M42.8845 398.436C42.8971 398.512 37.757 397.931 37.442 397.855C33.7381 396.996 27.0863 393.144 26.7335 388.901C26.4815 385.832 29.0768 383.521 32.0248 383.571C35.0358 383.622 37.7948 386.085 39.4704 388.383C41.4357 391.086 42.8845 398.436 42.8845 398.436Z" fill="#0951FE"/>
<path d="M68.4086 327.081C68.5598 330.415 65.7251 337.349 65.7251 337.361C65.6999 337.437 61.7315 334.103 61.5047 333.863C58.8843 331.097 55.4576 324.215 57.4985 320.464C58.9725 317.761 62.4118 317.281 64.8433 318.948C67.3251 320.653 68.27 324.24 68.4086 327.081Z" fill="#0951FE"/>
<path d="M87.6965 337.273C86.991 340.405 82.7958 345.949 82.4682 346.391C85.58 348.715 88.5784 351.355 91.476 354.196C93.1264 355.813 94.7515 357.505 96.3515 359.21C95.7342 358.326 95.1925 357.518 95.1295 357.404C93.3405 354.045 91.8413 346.492 94.7893 343.423C96.9184 341.213 100.37 341.655 102.273 343.903C104.213 346.202 104.188 349.915 103.57 352.693C102.94 355.51 99.4633 360.309 98.5184 361.572C99.1231 362.228 99.7405 362.885 100.345 363.554C103.243 366.737 106.128 369.932 109.051 372.976C110.084 374.049 111.129 375.072 112.175 376.095C111.633 375.299 111.18 374.63 111.117 374.529C109.328 371.17 107.829 363.617 110.777 360.549C112.906 358.338 116.358 358.78 118.26 361.028C120.2 363.327 120.175 367.04 119.558 369.818C118.953 372.508 115.778 376.966 114.669 378.469C115.778 379.48 116.887 380.503 117.995 381.437C118.776 382.056 119.482 382.713 120.288 383.294C121.082 383.887 121.876 384.468 122.644 385.049C124.181 386.11 125.768 387.209 127.305 388.206C128.364 388.914 129.384 389.558 130.417 390.214C129.384 389.154 127.394 387.044 127.255 386.855C124.975 383.811 122.354 376.575 124.811 373.089C126.587 370.576 130.064 370.488 132.282 372.42C134.549 374.403 135.091 378.065 134.89 380.907C134.675 384.039 131.526 389.924 131.123 390.669C132.824 391.755 134.499 392.791 136.086 393.738C140.445 396.365 144.288 398.499 147.349 400.128L146.026 402.604C142.965 400.873 139.123 398.638 134.776 395.885C133.038 394.799 131.211 393.599 129.334 392.349C128.968 392.74 126.89 394.976 124.698 396.819C126.121 399.711 126.701 405.925 126.776 406.721C128.792 406.683 130.757 406.62 132.609 406.531C137.132 406.329 141.101 406.039 144.364 405.748L142.814 408.64C139.879 408.817 136.477 408.981 132.698 409.07C130.644 409.12 128.465 409.133 126.209 409.12C126.083 409.928 124.975 416.546 123.236 419.148C121.661 421.509 119.003 424.098 115.992 424.275C113.057 424.452 110.361 422.242 110.487 419.173C110.663 414.904 117.151 410.787 120.817 409.777C121.032 409.714 123.45 409.335 124.975 409.108C124.055 409.108 123.161 409.108 122.216 409.082C120.351 409.057 118.487 408.969 116.471 408.893C115.501 408.817 114.531 408.741 113.536 408.665C112.553 408.615 111.52 408.426 110.512 408.312C108.169 407.996 105.8 407.567 103.432 407.074C103.407 408.716 103.218 414.538 102.021 417.14C100.824 419.716 98.5814 422.671 95.6334 423.303C92.761 423.921 89.75 422.153 89.4225 419.097C88.9563 414.854 94.7389 409.802 98.2161 408.236C98.4302 408.135 101.051 407.302 102.487 406.872C101.063 406.569 99.6397 406.266 98.2161 405.912C94.0838 404.889 89.939 403.727 85.7942 402.578C84.5218 402.225 83.2619 401.896 81.9895 401.555C81.9895 402.136 81.9139 409.07 80.5659 411.974C79.3691 414.551 77.1266 417.506 74.1786 418.137C71.3062 418.756 68.2952 416.988 67.9676 413.932C67.5015 409.688 73.2841 404.637 76.7612 403.071C77.0258 402.957 80.7801 401.757 81.7627 401.492C78.9659 400.747 76.1817 400.027 73.3975 399.434C69.5676 398.6 65.7503 398.007 62.0213 397.691C62.0213 397.969 61.9835 405.192 60.5976 408.173C59.4008 410.749 57.1583 413.704 54.2103 414.336C51.3379 414.955 48.3269 413.187 47.9994 410.13C47.5332 405.887 53.3159 400.835 56.793 399.269C57.0197 399.168 59.8921 398.246 61.2654 397.842C61.2528 397.703 61.2654 397.729 61.2402 397.602C57.2339 397.325 53.3284 397.552 49.675 397.956C47.5584 398.183 45.5553 398.512 43.6026 398.891C43.7286 400.242 44.2577 406.405 43.3128 409.221C42.4058 411.924 40.4908 415.094 37.6436 416.054C34.8468 416.988 31.672 415.561 31.0043 412.555C30.0721 408.388 35.2751 402.73 38.5507 400.798C38.7271 400.696 40.6546 399.825 42.0782 399.219C41.1963 399.396 40.2892 399.573 39.4578 399.762C36.3208 400.469 33.4862 401.303 30.9791 402.073C29.5555 402.515 28.2831 402.945 27.0989 403.361C26.5445 404.75 24.2139 410.32 22.11 412.341C20.069 414.311 16.9069 416.256 13.9463 415.788C11.0361 415.321 8.88177 412.593 9.66287 409.625C10.7463 405.496 17.9651 402.869 21.7698 402.667C22.0974 402.654 27.2626 402.97 27.2374 403.046L27.1996 403.134C28.3335 402.705 29.5555 402.275 30.9035 401.821C33.398 401 36.22 400.103 39.357 399.32C42.4939 398.537 45.9207 397.779 49.5994 397.299C53.2907 396.819 57.1961 396.491 61.2654 396.693C61.3158 396.693 61.3535 396.693 61.4039 396.706C60.2323 396.276 56.9945 394.976 56.7552 394.849C53.404 393.043 48.012 387.575 48.7805 383.369C49.3348 380.351 52.4592 378.798 55.2812 379.631C58.1662 380.477 60.1945 383.584 61.2024 386.249C62.3362 389.255 61.8953 396.201 61.8575 396.744C65.7251 396.958 69.681 397.501 73.662 398.272C75.9297 398.714 78.21 399.219 80.4777 399.762C79.4698 399.358 78.588 398.992 78.462 398.928C75.1108 397.122 69.7188 391.654 70.4873 387.449C71.0416 384.43 74.166 382.877 76.988 383.71C79.873 384.556 81.8887 387.663 82.9092 390.328C83.9296 393.031 83.6777 398.954 83.5769 400.532C84.4462 400.747 85.3154 400.962 86.1847 401.176C90.3548 402.237 94.5122 403.298 98.6318 404.233C100.081 404.561 101.517 404.826 102.953 405.104C102.059 404.75 101.315 404.435 101.214 404.384C97.8633 402.578 92.4713 397.11 93.2398 392.904C93.7941 389.886 96.9184 388.333 99.7405 389.166C102.625 390.012 104.641 393.119 105.649 395.784C106.632 398.36 106.43 403.841 106.342 405.698C107.829 405.938 109.303 406.178 110.751 406.329C111.747 406.417 112.691 406.569 113.687 406.607C114.669 406.657 115.652 406.708 116.622 406.771C118.499 406.809 120.427 406.847 122.254 406.834C123.526 406.834 124.735 406.809 125.957 406.784C124.509 406.481 121.699 405.811 121.46 405.736C119.079 404.889 115.564 402.566 113.51 399.863C113.158 399.737 112.817 399.585 112.49 399.396C109.945 397.918 108.912 394.584 110.701 392.096C113.195 388.636 120.868 388.787 124.483 389.962C124.698 390.025 126.928 391.048 128.326 391.705C127.57 391.187 126.814 390.694 126.046 390.164C124.496 389.103 122.984 388.004 121.359 386.83C120.591 386.236 119.822 385.63 119.041 385.024C118.247 384.443 117.491 383.723 116.71 383.066C114.921 381.5 113.195 379.833 111.482 378.116C110.55 379.467 107.199 384.228 104.767 385.718C102.348 387.209 98.846 388.434 96.0492 387.335C93.3027 386.261 91.7784 383.129 93.1768 380.389C95.1169 376.588 102.726 375.577 106.481 376.196C106.72 376.234 109.353 376.979 110.802 377.421C109.781 376.385 108.761 375.35 107.766 374.264C104.881 371.132 102.071 367.861 99.2365 364.615C98.3672 363.617 97.498 362.645 96.6287 361.66C96.3011 362.14 92.4335 367.886 89.7122 369.566C87.2934 371.056 83.7911 372.281 80.9942 371.182C78.2604 370.109 76.7234 366.977 78.1218 364.236C80.062 360.435 87.6713 359.425 91.4256 360.043C91.7028 360.094 95.5074 361.167 96.4649 361.496C94.55 359.324 92.6098 357.189 90.6193 355.143C87.8729 352.327 85.0257 349.725 82.0903 347.402C81.9391 347.629 77.9329 353.64 75.136 355.358C72.7172 356.848 69.2149 358.073 66.418 356.975C63.6716 355.901 62.1472 352.769 63.5456 350.029C65.4858 346.227 73.0951 345.217 76.8494 345.836C77.1014 345.874 79.999 346.694 81.3596 347.124C81.4226 347.01 81.41 347.023 81.473 346.909C78.2856 344.459 74.8967 342.489 71.6337 340.797C69.744 339.812 67.8794 338.978 66.0527 338.22C65.4228 339.42 62.4622 344.851 60.1315 346.682C57.889 348.425 54.5505 350.029 51.6403 349.246C48.7931 348.475 46.9411 345.533 48.0246 342.653C49.5364 338.662 56.9945 336.818 60.7866 337.021C60.9882 337.021 63.0795 337.374 64.5913 337.652C63.7598 337.324 62.9157 336.957 62.1094 336.654C59.0985 335.505 56.2764 334.634 53.7694 333.889C52.3332 333.472 51.0356 333.131 49.8135 332.815C48.5789 333.661 43.5774 337.021 40.7176 337.551C37.9208 338.069 34.2295 337.942 32.0122 335.909C29.8453 333.914 29.5429 330.441 31.8358 328.395C35.0106 325.553 42.4813 327.359 45.7569 329.291C46.0341 329.456 50.1663 332.575 50.1033 332.626L50.0277 332.676C51.2119 332.954 52.4718 333.257 53.845 333.623C56.3772 334.318 59.2244 335.126 62.2732 336.212C65.322 337.298 68.5975 338.549 71.9361 340.19C75.2746 341.832 78.714 343.727 82.0021 346.139C82.0399 346.164 82.0777 346.202 82.1155 346.227C81.3722 345.217 79.3943 342.35 79.2683 342.11C77.4793 338.751 75.9801 331.199 78.9281 328.13C81.0572 325.92 84.5091 326.362 86.4115 328.61C88.3516 330.908 88.3264 334.621 87.7091 337.399L87.6965 337.273Z" fill="#0951FE"/>
<path opacity="0.3" d="M68.4086 327.081C68.5598 330.415 65.7251 337.349 65.7251 337.361C65.6999 337.437 61.7315 334.103 61.5047 333.863C58.8843 331.097 55.4576 324.215 57.4985 320.464C58.9725 317.761 62.4118 317.281 64.8433 318.948C67.3251 320.653 68.27 324.24 68.4086 327.081Z" fill="#0951FE"/>
<path opacity="0.3" d="M42.8845 398.436C42.8971 398.512 37.757 397.931 37.442 397.855C33.7381 396.996 27.0863 393.144 26.7335 388.901C26.4815 385.832 29.0768 383.521 32.0248 383.571C35.0358 383.622 37.7948 386.085 39.4704 388.383C41.4357 391.086 42.8845 398.436 42.8845 398.436Z" fill="#0951FE"/>
<path opacity="0.3" d="M87.6965 337.273C86.991 340.405 82.7958 345.949 82.4682 346.391C85.58 348.715 88.5784 351.355 91.476 354.196C93.1264 355.813 94.7515 357.505 96.3515 359.21C95.7342 358.326 95.1925 357.518 95.1295 357.404C93.3405 354.045 91.8413 346.492 94.7893 343.423C96.9184 341.213 100.37 341.655 102.273 343.903C104.213 346.202 104.188 349.915 103.57 352.693C102.94 355.51 99.4633 360.309 98.5184 361.572C99.1231 362.228 99.7405 362.885 100.345 363.554C103.243 366.737 106.128 369.932 109.051 372.976C110.084 374.049 111.129 375.072 112.175 376.095C111.633 375.299 111.18 374.63 111.117 374.529C109.328 371.17 107.829 363.617 110.777 360.549C112.906 358.338 116.358 358.78 118.26 361.028C120.2 363.327 120.175 367.04 119.558 369.818C118.953 372.508 115.778 376.966 114.669 378.469C115.778 379.48 116.887 380.503 117.995 381.437C118.776 382.056 119.482 382.713 120.288 383.294C121.082 383.887 121.876 384.468 122.644 385.049C124.181 386.11 125.768 387.209 127.305 388.206C128.364 388.914 129.384 389.558 130.417 390.214C129.384 389.154 127.394 387.044 127.255 386.855C124.975 383.811 122.354 376.575 124.811 373.089C126.587 370.576 130.064 370.488 132.282 372.42C134.549 374.403 135.091 378.065 134.89 380.907C134.675 384.039 131.526 389.924 131.123 390.669C132.824 391.755 134.499 392.791 136.086 393.738C140.445 396.365 144.288 398.499 147.349 400.128L146.026 402.604C142.965 400.873 139.123 398.638 134.776 395.885C133.038 394.799 131.211 393.599 129.334 392.349C128.968 392.74 126.89 394.976 124.698 396.819C126.121 399.711 126.701 405.925 126.776 406.721C128.792 406.683 130.757 406.62 132.609 406.531C137.132 406.329 141.101 406.039 144.364 405.748L142.814 408.64C139.879 408.817 136.477 408.981 132.698 409.07C130.644 409.12 128.465 409.133 126.209 409.12C126.083 409.928 124.975 416.546 123.236 419.148C121.661 421.509 119.003 424.098 115.992 424.275C113.057 424.452 110.361 422.242 110.487 419.173C110.663 414.904 117.151 410.787 120.817 409.777C121.032 409.714 123.45 409.335 124.975 409.108C124.055 409.108 123.161 409.108 122.216 409.082C120.351 409.057 118.487 408.969 116.471 408.893C115.501 408.817 114.531 408.741 113.536 408.665C112.553 408.615 111.52 408.426 110.512 408.312C108.169 407.996 105.8 407.567 103.432 407.074C103.407 408.716 103.218 414.538 102.021 417.14C100.824 419.716 98.5814 422.671 95.6334 423.303C92.761 423.921 89.75 422.153 89.4225 419.097C88.9563 414.854 94.7389 409.802 98.2161 408.236C98.4302 408.135 101.051 407.302 102.487 406.872C101.063 406.569 99.6397 406.266 98.2161 405.912C94.0838 404.889 89.939 403.727 85.7942 402.578C84.5218 402.225 83.2619 401.896 81.9895 401.555C81.9895 402.136 81.9139 409.07 80.5659 411.974C79.3691 414.551 77.1266 417.506 74.1786 418.137C71.3062 418.756 68.2952 416.988 67.9676 413.932C67.5015 409.688 73.2841 404.637 76.7612 403.071C77.0258 402.957 80.7801 401.757 81.7627 401.492C78.9659 400.747 76.1817 400.027 73.3975 399.434C69.5676 398.6 65.7503 398.007 62.0213 397.691C62.0213 397.969 61.9835 405.192 60.5976 408.173C59.4008 410.749 57.1583 413.704 54.2103 414.336C51.3379 414.955 48.3269 413.187 47.9994 410.13C47.5332 405.887 53.3159 400.835 56.793 399.269C57.0197 399.168 59.8921 398.246 61.2654 397.842C61.2528 397.703 61.2654 397.729 61.2402 397.602C57.2339 397.325 53.3284 397.552 49.675 397.956C47.5584 398.183 45.5553 398.512 43.6026 398.891C43.7286 400.242 44.2577 406.405 43.3128 409.221C42.4058 411.924 40.4908 415.094 37.6436 416.054C34.8468 416.988 31.672 415.561 31.0043 412.555C30.0721 408.388 35.2751 402.73 38.5507 400.798C38.7271 400.696 40.6546 399.825 42.0782 399.219C41.1963 399.396 40.2892 399.573 39.4578 399.762C36.3208 400.469 33.4862 401.303 30.9791 402.073C29.5555 402.515 28.2831 402.945 27.0989 403.361C26.5445 404.75 24.2139 410.32 22.11 412.341C20.069 414.311 16.9069 416.256 13.9463 415.788C11.0361 415.321 8.88177 412.593 9.66287 409.625C10.7463 405.496 17.9651 402.869 21.7698 402.667C22.0974 402.654 27.2626 402.97 27.2374 403.046L27.1996 403.134C28.3335 402.705 29.5555 402.275 30.9035 401.821C33.398 401 36.22 400.103 39.357 399.32C42.4939 398.537 45.9207 397.779 49.5994 397.299C53.2907 396.819 57.1961 396.491 61.2654 396.693C61.3158 396.693 61.3535 396.693 61.4039 396.706C60.2323 396.276 56.9945 394.976 56.7552 394.849C53.404 393.043 48.012 387.575 48.7805 383.369C49.3348 380.351 52.4592 378.798 55.2812 379.631C58.1662 380.477 60.1945 383.584 61.2024 386.249C62.3362 389.255 61.8953 396.201 61.8575 396.744C65.7251 396.958 69.681 397.501 73.662 398.272C75.9297 398.714 78.21 399.219 80.4777 399.762C79.4698 399.358 78.588 398.992 78.462 398.928C75.1108 397.122 69.7188 391.654 70.4873 387.449C71.0416 384.43 74.166 382.877 76.988 383.71C79.873 384.556 81.8887 387.663 82.9092 390.328C83.9296 393.031 83.6777 398.954 83.5769 400.532C84.4462 400.747 85.3154 400.962 86.1847 401.176C90.3548 402.237 94.5122 403.298 98.6318 404.233C100.081 404.561 101.517 404.826 102.953 405.104C102.059 404.75 101.315 404.435 101.214 404.384C97.8633 402.578 92.4713 397.11 93.2398 392.904C93.7941 389.886 96.9184 388.333 99.7405 389.166C102.625 390.012 104.641 393.119 105.649 395.784C106.632 398.36 106.43 403.841 106.342 405.698C107.829 405.938 109.303 406.178 110.751 406.329C111.747 406.417 112.691 406.569 113.687 406.607C114.669 406.657 115.652 406.708 116.622 406.771C118.499 406.809 120.427 406.847 122.254 406.834C123.526 406.834 124.735 406.809 125.957 406.784C124.509 406.481 121.699 405.811 121.46 405.736C119.079 404.889 115.564 402.566 113.51 399.863C113.158 399.737 112.817 399.585 112.49 399.396C109.945 397.918 108.912 394.584 110.701 392.096C113.195 388.636 120.868 388.787 124.483 389.962C124.698 390.025 126.928 391.048 128.326 391.705C127.57 391.187 126.814 390.694 126.046 390.164C124.496 389.103 122.984 388.004 121.359 386.83C120.591 386.236 119.822 385.63 119.041 385.024C118.247 384.443 117.491 383.723 116.71 383.066C114.921 381.5 113.195 379.833 111.482 378.116C110.55 379.467 107.199 384.228 104.767 385.718C102.348 387.209 98.846 388.434 96.0492 387.335C93.3027 386.261 91.7784 383.129 93.1768 380.389C95.1169 376.588 102.726 375.577 106.481 376.196C106.72 376.234 109.353 376.979 110.802 377.421C109.781 376.385 108.761 375.35 107.766 374.264C104.881 371.132 102.071 367.861 99.2365 364.615C98.3672 363.617 97.498 362.645 96.6287 361.66C96.3011 362.14 92.4335 367.886 89.7122 369.566C87.2934 371.056 83.7911 372.281 80.9942 371.182C78.2604 370.109 76.7234 366.977 78.1218 364.236C80.062 360.435 87.6713 359.425 91.4256 360.043C91.7028 360.094 95.5074 361.167 96.4649 361.496C94.55 359.324 92.6098 357.189 90.6193 355.143C87.8729 352.327 85.0257 349.725 82.0903 347.402C81.9391 347.629 77.9329 353.64 75.136 355.358C72.7172 356.848 69.2149 358.073 66.418 356.975C63.6716 355.901 62.1472 352.769 63.5456 350.029C65.4858 346.227 73.0951 345.217 76.8494 345.836C77.1014 345.874 79.999 346.694 81.3596 347.124C81.4226 347.01 81.41 347.023 81.473 346.909C78.2856 344.459 74.8967 342.489 71.6337 340.797C69.744 339.812 67.8794 338.978 66.0527 338.22C65.4228 339.42 62.4622 344.851 60.1315 346.682C57.889 348.425 54.5505 350.029 51.6403 349.246C48.7931 348.475 46.9411 345.533 48.0246 342.653C49.5364 338.662 56.9945 336.818 60.7866 337.021C60.9882 337.021 63.0795 337.374 64.5913 337.652C63.7598 337.324 62.9157 336.957 62.1094 336.654C59.0985 335.505 56.2764 334.634 53.7694 333.889C52.3332 333.472 51.0356 333.131 49.8135 332.815C48.5789 333.661 43.5774 337.021 40.7176 337.551C37.9208 338.069 34.2295 337.942 32.0122 335.909C29.8453 333.914 29.5429 330.441 31.8358 328.395C35.0106 325.553 42.4813 327.359 45.7569 329.291C46.0341 329.456 50.1663 332.575 50.1033 332.626L50.0277 332.676C51.2119 332.954 52.4718 333.257 53.845 333.623C56.3772 334.318 59.2244 335.126 62.2732 336.212C65.322 337.298 68.5975 338.549 71.9361 340.19C75.2746 341.832 78.714 343.727 82.0021 346.139C82.0399 346.164 82.0777 346.202 82.1155 346.227C81.3722 345.217 79.3943 342.35 79.2683 342.11C77.4793 338.751 75.9801 331.199 78.9281 328.13C81.0572 325.92 84.5091 326.362 86.4115 328.61C88.3516 330.908 88.3264 334.621 87.7091 337.399L87.6965 337.273Z" fill="#0951FE"/>
<path d="M102.512 253.694H528.472C535.741 253.694 541.65 259.617 541.65 266.904V548.003H89.3469V266.891C89.3469 259.604 95.2555 253.681 102.525 253.681L102.512 253.694Z" fill="#969696" stroke="#263238" stroke-miterlimit="10"/>
<path d="M523.042 273.686H107.829V519.877H523.042V273.686Z" fill="white" stroke="#263238" stroke-linecap="round" stroke-linejoin="round"/>
<path d="M471.944 533.82H161.107V549.177H471.944V533.82Z" fill="#263238" stroke="#263238" stroke-linecap="round" stroke-linejoin="round"/>
<path d="M471.944 541.221H161.107V549.177H471.944V541.221Z" fill="white" stroke="#263238" stroke-linecap="round" stroke-linejoin="round"/>
<path d="M52.7615 558.27C52.7615 558.27 57.8638 564.521 73.1833 569.636H559.867C559.867 569.636 571.205 566.795 576.32 558.838L52.7615 558.27Z" fill="#263238" stroke="#263238" stroke-linecap="round" stroke-linejoin="round"/>
<path d="M575.035 547.068H54.1095C52.7945 547.068 51.7285 548.137 51.7285 549.455V556.641C51.7285 557.959 52.7945 559.028 54.1095 559.028H575.035C576.35 559.028 577.416 557.959 577.416 556.641V549.455C577.416 548.137 576.35 547.068 575.035 547.068Z" fill="#969696" stroke="#263238" stroke-miterlimit="10"/>
<path d="M319.366 262.597C319.366 260.4 317.59 258.619 315.398 258.619C313.205 258.619 311.429 260.4 311.429 262.597C311.429 264.795 313.205 266.575 315.398 266.575C317.59 266.575 319.366 264.795 319.366 262.597Z" fill="#263238" stroke="#263238" stroke-linecap="round" stroke-linejoin="round"/>
<path d="M93.6051 336.515C92.9752 336.515 92.4713 336.01 92.4713 335.379V302.404C92.4713 301.773 92.9752 301.268 93.6051 301.268C94.235 301.268 94.7389 301.773 94.7389 302.404V335.379C94.7389 336.01 94.235 336.515 93.6051 336.515Z" fill="#263238"/>
<path d="M459.988 294.448H169.938V474.135H459.988V294.448Z" fill="#263238" stroke="#263238" stroke-linecap="round" stroke-linejoin="round"/>
<path d="M169.938 294.448L307.435 192.139C310.371 189.954 314.377 189.917 317.338 192.051L459.975 294.448H169.938Z" fill="#263238" stroke="#263238" stroke-linecap="round" stroke-linejoin="round"/>
<path d="M427.245 196.749H208.363V431.6H427.245V196.749Z" fill="white" stroke="#263238" stroke-linecap="round" stroke-linejoin="round"/>
<path d="M233.408 304.45H399.478" stroke="#263238" stroke-linecap="round" stroke-linejoin="round"/>
<path d="M233.408 317.42H399.478" stroke="#263238" stroke-linecap="round" stroke-linejoin="round"/>
<path d="M233.408 330.378H399.478" stroke="#263238" stroke-linecap="round" stroke-linejoin="round"/>
<path d="M233.408 343.348H399.478" stroke="#263238" stroke-linecap="round" stroke-linejoin="round"/>
<path d="M233.408 356.305H399.478" stroke="#263238" stroke-linecap="round" stroke-linejoin="round"/>
<path d="M232.262 228.031H403.346C407.1 228.031 410.149 231.088 410.149 234.851V277.815C410.149 281.579 407.1 284.635 403.346 284.635H232.262C228.507 284.635 225.459 281.579 225.459 277.815V234.851C225.459 231.088 228.507 228.031 232.262 228.031Z" fill="#0951FE"/>
<path d="M169.938 294.448L314.49 372.571L459.975 294.448V474.122H169.938V294.448Z" fill="#6B97FE" stroke="#263238" stroke-linecap="round" stroke-linejoin="round"/>
<path d="M169.938 474.122L310.572 375.337C312.941 373.683 316.078 373.67 318.446 375.337L459.988 474.135" stroke="#263238" stroke-linecap="round" stroke-linejoin="round"/>
<path d="M234.932 271.033L241.773 238.324H248.45L255.291 271.033H249.509L248.161 263.481H242.202L240.803 271.033H234.932ZM242.832 259.68H247.48L245.162 245.952L242.844 259.68H242.832Z" fill="white"/>
<path d="M267.549 271.475C265.042 271.475 263.077 271.008 261.653 270.061C260.23 269.114 259.234 267.838 258.68 266.209C258.113 264.58 257.836 262.698 257.836 260.577V248.907C257.836 246.672 258.113 244.74 258.68 243.098C259.247 241.456 260.242 240.193 261.653 239.296C263.077 238.412 265.042 237.958 267.549 237.958C269.918 237.958 271.77 238.337 273.105 239.107C274.441 239.877 275.398 240.976 275.952 242.403C276.519 243.83 276.796 245.485 276.796 247.366V250.107H270.8V247.278C270.8 246.369 270.749 245.523 270.649 244.777C270.548 244.02 270.283 243.426 269.842 242.984C269.401 242.542 268.658 242.315 267.587 242.315C266.516 242.315 265.735 242.555 265.244 243.022C264.753 243.489 264.438 244.121 264.299 244.916C264.16 245.712 264.085 246.609 264.085 247.606V261.827C264.085 263.014 264.186 263.986 264.375 264.757C264.576 265.527 264.929 266.108 265.458 266.487C265.975 266.878 266.693 267.068 267.587 267.068C268.633 267.068 269.364 266.828 269.804 266.361C270.245 265.893 270.51 265.262 270.623 264.479C270.737 263.696 270.787 262.824 270.787 261.852V258.909H276.784V261.536C276.784 263.469 276.519 265.186 275.978 266.689C275.436 268.179 274.504 269.354 273.168 270.2C271.833 271.046 269.956 271.475 267.524 271.475H267.549Z" fill="white"/>
<path d="M290.365 271.475C287.858 271.475 285.892 271.008 284.469 270.061C283.045 269.114 282.05 267.838 281.496 266.209C280.929 264.58 280.652 262.698 280.652 260.577V248.907C280.652 246.672 280.929 244.74 281.496 243.098C282.063 241.456 283.058 240.193 284.469 239.296C285.892 238.412 287.858 237.958 290.365 237.958C292.733 237.958 294.585 238.337 295.921 239.107C297.256 239.877 298.214 240.976 298.768 242.403C299.335 243.83 299.612 245.485 299.612 247.366V250.107H293.615V247.278C293.615 246.369 293.565 245.523 293.464 244.777C293.363 244.02 293.099 243.426 292.658 242.984C292.217 242.542 291.473 242.315 290.403 242.315C289.332 242.315 288.551 242.555 288.059 243.022C287.568 243.489 287.253 244.121 287.114 244.916C286.976 245.712 286.9 246.609 286.9 247.606V261.827C286.9 263.014 287.001 263.986 287.19 264.757C287.392 265.527 287.744 266.108 288.274 266.487C288.79 266.878 289.508 267.068 290.403 267.068C291.448 267.068 292.179 266.828 292.62 266.361C293.061 265.893 293.325 265.262 293.439 264.479C293.552 263.696 293.603 262.824 293.603 261.852V258.909H299.599V261.536C299.599 263.469 299.335 265.186 298.793 266.689C298.264 268.179 297.319 269.354 295.984 270.2C294.648 271.046 292.771 271.475 290.34 271.475H290.365Z" fill="white"/>
<path d="M303.971 271.033V238.324H318.333V242.529H310.22V251.938H316.594V256.093H310.22V266.916H318.421V271.033H303.971Z" fill="white"/>
<path d="M322.049 271.033V238.324H332.103C334.156 238.324 335.832 238.69 337.104 239.41C338.389 240.143 339.334 241.191 339.939 242.58C340.544 243.969 340.846 245.636 340.846 247.606C340.846 249.728 340.468 251.446 339.7 252.759C338.944 254.06 337.873 255.02 336.512 255.601C335.152 256.194 333.539 256.485 331.674 256.485H328.298V271.021H322.049V271.033ZM328.298 252.292H330.667C331.788 252.292 332.67 252.14 333.312 251.824C333.942 251.521 334.383 251.016 334.622 250.334C334.862 249.652 334.975 248.73 334.975 247.568C334.975 246.407 334.887 245.422 334.698 244.676C334.509 243.931 334.119 243.388 333.514 243.047C332.909 242.694 331.952 242.517 330.667 242.517H328.298V252.292Z" fill="white"/>
<path d="M347.737 271.033V242.732H342.282V238.324H359.353V242.732H353.986V271.033H347.737Z" fill="white"/>
<path d="M362.477 271.033V238.324H376.839V242.529H368.726V251.938H375.101V256.093H368.726V266.916H376.927V271.033H362.477Z" fill="white"/>
<path d="M380.556 271.033V238.324H388.631C391.415 238.324 393.595 238.69 395.157 239.41C396.719 240.143 397.828 241.254 398.496 242.757C399.163 244.26 399.491 246.179 399.491 248.49V260.438C399.491 262.812 399.163 264.782 398.496 266.348C397.841 267.927 396.732 269.088 395.208 269.859C393.671 270.629 391.567 271.008 388.896 271.008H380.568L380.556 271.033ZM386.805 266.878H388.707C390.143 266.878 391.176 266.638 391.793 266.146C392.411 265.666 392.789 264.959 392.927 264.024C393.066 263.09 393.141 261.953 393.141 260.614V248.099C393.141 246.785 393.041 245.712 392.852 244.904C392.65 244.095 392.247 243.502 391.63 243.123C391.012 242.744 390.004 242.555 388.631 242.555H386.817V266.866L386.805 266.878Z" fill="white"/>
<path d="M221.605 202.268C221.605 202.268 222.55 205.219 224.022 206.767C225.494 208.334 226.438 209.099 226.347 207.55C226.257 205.984 224.621 203.143 224.621 203.143C224.621 203.143 221.86 199.937 221.605 202.268Z" fill="white" stroke="#263238" stroke-linecap="round" stroke-linejoin="round"/>
<path d="M260.941 294.539L254.092 270.588C254.092 270.588 249.985 248.44 248.187 241.992C246.388 235.545 240.483 215.382 240.483 215.382C240.483 215.382 243.826 199.154 243.572 198.116C243.317 197.078 234.832 192.451 233.542 191.413C232.252 190.375 228.909 191.668 228.909 191.668C228.909 191.668 224.803 190.903 223.513 190.12C222.223 189.355 220.424 192.433 221.714 193.981L223.004 195.53C223.004 195.53 221.969 200.684 222.241 201.977C222.496 203.27 227.383 207.387 227.383 207.387C227.383 207.387 226.874 213.561 228.419 215.637C229.963 217.696 232.271 221.502 232.271 221.502C232.271 221.502 233.688 257.784 236.777 266.289C239.865 274.795 240.756 284.758 240.756 284.758L247.333 315.411L260.96 294.539H260.941Z" fill="white" stroke="#263238" stroke-linecap="round" stroke-linejoin="round"/>
<path d="M234.814 214.854C234.814 214.854 231.471 211.503 230.708 208.407C229.945 205.31 228.655 198.626 228.655 198.626L223.004 195.53" fill="white"/>
<path d="M234.814 214.854C234.814 214.854 231.471 211.503 230.708 208.407C229.945 205.31 228.655 198.626 228.655 198.626L223.004 195.53" stroke="#263238" stroke-linecap="round" stroke-linejoin="round"/>
<path d="M228.909 191.668C228.909 191.668 233.015 193.726 233.542 194.51C234.051 195.275 235.087 197.078 235.087 197.078" stroke="#263238" stroke-linecap="round" stroke-linejoin="round"/>
<path d="M222.732 198.116C222.732 198.116 225.294 200.957 228.637 201.977" stroke="#263238" stroke-linecap="round" stroke-linejoin="round"/>
<path d="M228.655 198.626L228.146 205.073C226.347 205.328 222.241 201.977 222.241 201.977" stroke="#263238" stroke-linecap="round" stroke-linejoin="round"/>
<path d="M251.166 335.246C251.166 335.246 222.387 379.05 222.132 390.889C221.878 402.746 237.031 412.781 239.357 412.781C241.682 412.781 260.941 340.91 259.651 335.756C258.361 330.602 253.22 332.15 251.166 335.246Z" fill="#263238" stroke="#263238" stroke-linecap="round" stroke-linejoin="round"/>
<path d="M222.132 393.475C222.132 393.475 230.617 385.752 238.067 384.969C245.516 384.204 248.096 387.537 247.315 390.634C246.551 393.73 239.357 412.781 239.357 412.781C239.357 412.781 224.967 408.41 222.132 393.457V393.475Z" fill="#B5B5B5" stroke="#263238" stroke-linecap="round" stroke-linejoin="round"/>
<path d="M240.356 428.554C240.356 428.554 228.164 456.002 222.877 470.282C217.572 484.561 214.901 507.547 214.61 511.554C214.156 517.856 215.192 522.191 215.192 522.191C215.192 522.191 214.538 552.079 213.865 553.409C213.211 554.738 212.539 562.042 213.865 564.373C215.192 566.704 217.844 569.345 217.844 569.345C217.844 569.345 213.211 577.979 210.558 584.627C207.906 591.275 204.599 599.908 210.231 603.223C215.864 606.538 221.496 600.891 224.476 594.917C227.456 588.943 228.782 582.623 229.109 577.651C229.436 572.679 230.435 573.006 231.435 569.345C232.434 565.685 234.96 560.293 234.96 560.293C234.96 560.293 237.34 547.252 237.667 542.608C237.994 537.963 241.373 513.248 241.373 513.248C240.647 512.392 265.902 466.621 267.864 466.093C269.735 465.601 276.476 480.7 278.456 490.335C280.437 499.97 281.109 516.235 280.782 526.197C280.455 536.16 272.17 563.062 272.17 564.391C272.17 565.721 268.191 566.723 268.191 568.708C268.191 570.693 268.191 581.002 267.864 582.987C267.537 584.973 264.884 593.606 267.21 595.282C269.535 596.939 276.821 597.613 276.821 597.613C276.821 597.613 291.72 603.259 297.025 602.585C302.331 601.93 301.331 596.939 299.351 594.954C297.37 592.969 290.739 584.335 290.739 584.335C290.739 584.335 292.392 582.678 292.392 579.363C292.392 576.048 292.392 576.704 292.719 570.73C293.046 564.756 302.658 540.513 302.985 536.197C303.312 531.88 308.29 522.919 308.944 514.286C309.598 505.653 308.944 485.727 308.944 478.423C308.944 471.12 308.617 437.588 308.617 437.588L243.027 421.979L240.374 428.627L240.356 428.554Z" fill="#263238" stroke="#263238" stroke-linecap="round" stroke-linejoin="round"/>
<path d="M283.653 316.286L268.936 309L260.215 291.151L244.771 318.107L251.494 345.974C251.494 345.974 244.589 369.105 242.772 382.565C240.955 396.043 234.705 428.5 234.705 428.5C234.705 428.5 247.296 437.77 254.491 443.963C261.686 450.156 268.881 454.272 268.881 454.272L272.733 442.943L273.769 454.017C273.769 454.017 283.271 453.762 292.538 450.921C301.786 448.079 312.324 440.867 312.324 440.867L308.981 396.043L314.886 372.602L317.974 386.262L340.34 370.544L326.968 336.284L303.839 323.152L283.635 316.304L283.653 316.286Z" fill="#0951FE" stroke="#263238" stroke-linecap="round" stroke-linejoin="round"/>
<path d="M310.725 360.017L314.904 372.602L306.364 364.934" stroke="#263238" stroke-linecap="round" stroke-linejoin="round"/>
<path d="M266.647 368.213L290.575 402.564" stroke="#263238" stroke-linecap="round" stroke-linejoin="round"/>
<path d="M281.527 399.067L285.143 402.564" stroke="#263238" stroke-linecap="round" stroke-linejoin="round"/>
<path d="M270.444 388.393L277.893 395.57" stroke="#263238" stroke-linecap="round" stroke-linejoin="round"/>
<path d="M282.926 312.825C282.926 312.825 276.567 319.564 276.022 324.846C275.477 330.128 275.113 334.682 275.113 334.682C275.113 334.682 286.378 328.125 288.195 328.125C290.012 328.125 294.736 332.496 295.281 335.046C295.826 337.596 297.461 341.603 297.461 341.603C297.461 341.603 305.092 334.681 304.729 326.303C304.366 317.925 301.822 315.922 301.822 315.922L282.926 312.825Z" fill="#0951FE" stroke="#263238" stroke-linecap="round" stroke-linejoin="round"/>
<path d="M284.925 314.464C284.925 314.464 284.198 324.482 284.561 329.582C284.925 334.681 286.197 336.685 287.287 336.139C288.377 335.592 300.187 323.389 301.459 321.932C302.73 320.475 305.092 315.739 305.092 315.739L284.925 314.464Z" fill="white" stroke="#263238" stroke-linecap="round" stroke-linejoin="round"/>
<path d="M280.201 283.683C280.201 283.683 278.747 305.175 280.201 309.182C281.654 313.189 286.378 319.564 290.557 321.75C294.736 323.935 305.092 317.379 308.181 315.011C311.27 312.643 313.087 306.086 313.087 306.086L316.539 288.237C316.539 288.237 317.811 279.312 315.63 275.305C313.45 271.298 300.187 264.559 291.284 267.473C282.381 270.388 280.927 275.852 280.564 277.491C280.201 279.13 280.201 283.683 280.201 283.683Z" fill="white" stroke="#263238" stroke-linecap="round" stroke-linejoin="round"/>
<path d="M284.925 283.501C284.925 283.501 288.558 280.951 292.192 283.319" stroke="#263238" stroke-linecap="round" stroke-linejoin="round"/>
<path d="M302.894 284.959C302.894 284.959 308.526 283.866 310.525 289.512" stroke="#263238" stroke-linecap="round" stroke-linejoin="round"/>
<path d="M292.192 300.622C292.192 300.622 293.464 302.808 294.554 302.626C295.644 302.444 298.006 301.351 298.006 301.351" stroke="#263238" stroke-linecap="round" stroke-linejoin="round"/>
<path d="M288.013 304.447C288.013 304.447 291.284 307.725 294.736 307.908C298.188 308.09 300.732 306.997 300.732 306.997C300.732 306.997 296.008 312.825 293.101 313.372C290.194 313.918 288.013 304.447 288.013 304.447Z" stroke="#263238" stroke-linecap="round" stroke-linejoin="round"/>
<path d="M289.994 291.716C289.885 293.063 289.176 294.12 288.431 294.047C287.686 293.974 287.159 292.845 287.268 291.479C287.377 290.131 288.086 289.075 288.831 289.147C289.576 289.22 290.103 290.35 289.994 291.716Z" fill="#263238"/>
<path d="M305.347 294.593C305.183 295.941 304.438 296.961 303.693 296.852C302.948 296.761 302.476 295.595 302.658 294.247C302.821 292.9 303.566 291.88 304.311 291.989C305.056 292.08 305.528 293.246 305.347 294.593Z" fill="#263238"/>
<path d="M315.067 293.337C315.067 293.337 318.701 291.151 319.428 294.794C320.155 298.436 317.066 302.808 315.067 304.447L313.069 306.086L315.067 293.337Z" stroke="#263238" stroke-linecap="round" stroke-linejoin="round"/>
<path d="M279.656 287.326C279.656 287.326 277.112 285.687 276.749 289.512C276.385 293.337 279.656 300.44 279.656 300.44V287.326Z" stroke="#263238" stroke-linecap="round" stroke-linejoin="round"/>
<path d="M311.615 275.852C311.615 275.852 309.98 278.766 311.07 280.951C312.16 283.137 312.887 286.233 313.069 287.508C313.25 288.783 314.159 296.797 314.886 295.886C315.612 294.976 319.246 287.69 320.155 285.14C321.063 282.591 322.698 278.401 321.426 275.852C320.155 273.302 315.794 269.841 315.794 269.841C315.794 269.841 315.976 263.831 312.524 261.281C309.071 258.731 297.443 255.817 290.539 258.731C283.635 261.645 280.546 265.47 280.728 266.745C280.909 268.02 281.273 269.477 281.273 269.477C281.273 269.477 278.547 271.845 278.729 274.759C278.911 277.673 280.546 285.687 280.546 285.687C280.546 285.687 283.271 276.034 284.361 275.123C285.452 274.212 295.081 269.295 296.535 269.841C297.988 270.387 308.526 276.034 311.615 275.852Z" fill="#263238" stroke="#263238" stroke-linecap="round" stroke-linejoin="round"/>
<path d="M268.936 309C268.936 309 250.131 341.949 248.078 348.378C246.025 354.826 247.315 363.587 247.315 363.587C247.315 363.587 267.882 322.369 278.929 314.118C278.929 314.118 271.807 309.802 268.936 309Z" fill="#263238" stroke="#263238" stroke-linecap="round" stroke-linejoin="round"/>
<path d="M277.82 425.385L288.195 466.311L331.438 451.485L321.517 411.452L277.82 425.385Z" fill="#B5B5B5" stroke="#263238" stroke-linecap="round" stroke-linejoin="round"/>
<path d="M285.76 425.167L295.917 465.637L339.159 450.374L328.349 412.563L285.76 425.167Z" fill="white" stroke="#263238" stroke-linecap="round" stroke-linejoin="round"/>
<path d="M285.76 425.167L291.284 466.748L295.917 465.637L285.76 425.167Z" fill="white" stroke="#263238" stroke-linecap="round" stroke-linejoin="round"/>
<path d="M321.517 383.804L325.932 397.737C325.932 397.737 324.606 418.974 322.844 427.371C321.081 435.767 319.755 443.508 319.755 443.508C319.755 443.508 313.577 446.823 313.141 448.152C312.705 449.482 312.033 452.797 310.943 453.908C309.835 455.019 308.072 456.112 309.616 456.567C311.161 457.004 313.596 455.911 313.596 455.911L315.576 454.8C315.576 454.8 313.377 462.76 314.032 463.197C314.686 463.634 316.684 463.852 317.12 463.197C317.556 462.541 319.773 460.537 319.773 460.537C319.773 460.537 326.605 459.208 327.495 456.33C328.385 453.452 329.693 443.052 329.475 441.741C329.257 440.411 335.217 424.493 338.742 413.874C342.266 403.256 343.157 391.544 343.157 391.544L337.869 372.748L321.535 383.804H321.517Z" fill="white" stroke="#263238" stroke-linecap="round" stroke-linejoin="round"/>
</g>
<defs>
<clipPath id="clip0_688_27693">
<rect width="617" height="604" fill="white"/>
</clipPath>
</defs>
</svg>
