<svg width="595" height="520" viewBox="0 0 595 520" fill="none" xmlns="http://www.w3.org/2000/svg">
<g clip-path="url(#clip0_670_25482)">
<path d="M595 297.352C595 383.188 558.604 460.533 500.4 514.823C498.518 516.566 496.619 518.292 494.702 520H100.298C98.3811 518.292 96.4818 516.566 94.5998 514.823C36.3965 460.533 0 383.188 0 297.352C0 133.136 133.206 0 297.509 0C461.811 0 595 133.136 595 297.352Z" fill="#EFF4FF"/>
<path d="M552.543 520H25.6053C22.2557 520 22.5147 514.823 25.8298 514.823H552.785C556.117 514.823 555.875 520 552.543 520Z" fill="#27293B"/>
<path d="M83.6878 126.596L224.336 157.02L381.904 29.699L549.384 213.208L487.399 366.501L473.155 266.773L163.905 209.584L82.1166 298.923L83.6878 126.596Z" stroke="#F2DBB5" stroke-width="0.5" stroke-miterlimit="10"/>
<path d="M163.905 209.584L224.336 157.02L436.085 125.267L473.155 266.773L549.384 213.208" stroke="#F2DBB5" stroke-width="0.5" stroke-miterlimit="10"/>
<path d="M224.336 157.02L219.121 58.3108L381.904 29.699" stroke="#F2DBB5" stroke-width="0.5" stroke-miterlimit="10"/>
<path d="M436.085 125.267L163.905 209.584L83.6878 126.596" stroke="#F2DBB5" stroke-width="0.5" stroke-miterlimit="10"/>
<path d="M556.025 229.399C564.951 225.732 569.211 215.527 565.541 206.606C561.872 197.686 551.662 193.428 542.737 197.095C533.811 200.763 529.551 210.968 533.221 219.888C536.89 228.809 547.1 233.067 556.025 229.399Z" fill="#F2DBB5"/>
<path d="M90.8532 298.923C90.8532 303.737 86.9338 307.655 82.1166 307.655C77.2994 307.655 73.3801 303.737 73.3801 298.923C73.3801 294.108 77.2994 290.191 82.1166 290.191C86.9338 290.191 90.8532 294.108 90.8532 298.923Z" fill="#F2DBB5"/>
<path d="M224.336 171.343C232.25 171.343 238.666 164.93 238.666 157.02C238.666 149.109 232.25 142.697 224.336 142.697C216.421 142.697 210.005 149.109 210.005 157.02C210.005 164.93 216.421 171.343 224.336 171.343Z" fill="#F2DBB5"/>
<path d="M395.687 33.5674C397.822 25.9502 393.375 18.0453 385.753 15.9114C378.132 13.7774 370.223 18.2225 368.088 25.8397C365.953 33.4569 370.4 41.3618 378.022 43.4957C385.643 45.6296 393.552 41.1846 395.687 33.5674Z" fill="#F2DBB5"/>
<path d="M494.564 366.501C494.564 370.452 491.353 373.662 487.399 373.662C483.445 373.662 480.234 370.452 480.234 366.501C480.234 362.549 483.445 359.339 487.399 359.339C491.353 359.339 494.564 362.549 494.564 366.501Z" fill="#F2DBB5"/>
<path d="M90.8532 126.596C90.8532 130.548 87.6417 133.758 83.6878 133.758C79.7339 133.758 76.5225 130.548 76.5225 126.596C76.5225 122.644 79.7339 119.435 83.6878 119.435C87.6417 119.435 90.8532 122.644 90.8532 126.596Z" fill="#F2DBB5"/>
<path d="M275.754 462.742V454.562H141.287V462.742H148.521H275.754Z" fill="#225EC9"/>
<path d="M148.521 507.627H141.287V515.807H275.754V507.627H148.521Z" fill="#225EC9"/>
<path d="M425.673 507.627H275.754V515.807H425.673V507.627Z" fill="#001FAF"/>
<path d="M425.673 454.562H275.754V462.742H425.673V454.562Z" fill="#001FAF"/>
<path d="M148.521 462.742H141.287V507.644H148.521V462.742Z" fill="#225EC9"/>
<path d="M270.816 462.742H148.521V507.644H270.816V462.742Z" fill="#FFE8D6"/>
<path d="M416.626 462.742H270.798V507.644H416.626V462.742Z" fill="#EBD5C5"/>
<path d="M309.439 401.48V393.3H174.955V401.48H182.19H309.439Z" fill="#3D405B"/>
<path d="M182.19 446.382H174.955V454.562H309.439V446.382H182.19Z" fill="#3D405B"/>
<path d="M459.359 446.382H309.439V454.562H459.359V446.382Z" fill="#27293B"/>
<path d="M459.359 393.3H309.439V401.48H459.359V393.3Z" fill="#27293B"/>
<path d="M182.19 401.48H174.955V446.382H182.19V401.48Z" fill="#3D405B"/>
<path d="M304.484 401.48H182.19V446.382H304.484V401.48Z" fill="#FFE8D6"/>
<path d="M450.312 401.48H304.484V446.382H450.312V401.48Z" fill="#EBD5C5"/>
<path d="M290.361 340.753V332.574H155.877V340.753H163.111H290.361Z" fill="#3E4C59"/>
<path d="M163.111 385.656H155.877V393.835H290.361V385.656H163.111Z" fill="#3E4C59"/>
<path d="M440.28 385.656H290.361V393.835H440.28V385.656Z" fill="#053198"/>
<path d="M440.28 332.574H290.361V340.753H440.28V332.574Z" fill="#053198"/>
<path d="M163.111 340.753H155.877V385.656H163.111V340.753Z" fill="#3E4C59"/>
<path d="M285.405 340.753H163.111V385.656H285.405V340.753Z" fill="#FFE8D6"/>
<path d="M431.233 340.753H285.405V385.656H431.233V340.753Z" fill="#EBD5C5"/>
<path d="M163.905 476.15V493.666L170.432 488.989L176.941 493.666V476.15H163.905Z" fill="#225EC9"/>
<path d="M172.055 365.758V383.274L178.581 378.598L185.108 383.274V365.758H172.055Z" fill="#3E4C59"/>
<path d="M247.817 475.063H157.689C156.74 475.063 156.671 476.547 157.62 476.547H247.748C248.698 476.547 248.767 475.063 247.817 475.063Z" fill="#EBD5C5"/>
<path d="M260.18 364.154H168.084C167.134 364.154 167.065 365.638 168.014 365.638H260.111C261.06 365.638 261.129 364.154 260.18 364.154Z" fill="#EBD5C5"/>
<path d="M331.367 166.649C331.367 154.587 323.477 144.819 313.721 144.819C303.966 144.819 296.076 154.587 296.076 166.649V204.286H330.02L331.367 166.649Z" fill="#053198"/>
<path d="M296.076 204.286V261.079L328.121 257.161L330.02 204.286H296.076Z" fill="#EE9F87"/>
<path d="M249.734 270.328V257.921L296.68 244.408C304.743 244.408 328.121 249.051 328.121 256.436C327.793 279.75 249.734 270.328 249.734 270.328Z" fill="#EE9F87"/>
<path d="M237.095 262.752C234.454 261.424 231.208 260.751 228.255 260.802C225.424 260.854 222.661 261.631 220.416 263.408C218.517 264.91 217.188 267.222 216.739 269.586C216.514 270.777 216.342 271.985 216.411 273.193C216.445 273.883 216.497 274.677 216.67 275.367C216.911 276.334 217.464 277.007 218.206 277.645C219.173 278.456 220.796 277.904 221.418 276.955C222.108 275.885 222.039 274.78 222.108 273.573C222.126 273.141 222.143 272.692 222.195 272.261C222.212 272.019 222.264 271.795 222.281 271.553C222.212 272.261 222.281 271.553 222.316 271.398C222.419 270.949 222.557 270.501 222.713 270.069C222.782 269.897 222.851 269.742 222.903 269.569C222.937 269.517 222.955 269.465 222.989 269.414C223.162 269.12 223.352 268.844 223.542 268.568C223.455 268.706 223.731 268.344 223.818 268.257C223.99 268.085 224.18 267.93 224.37 267.774C224.405 267.74 224.439 267.722 224.457 267.705C224.491 267.705 224.526 267.671 224.595 267.636C224.785 267.55 224.957 267.429 225.147 267.343C225.199 267.326 225.493 267.205 225.613 267.136C225.734 267.101 225.924 267.032 225.959 267.032C226.459 266.894 226.96 266.808 227.461 266.722H227.703C227.962 266.687 228.221 266.687 228.462 266.687C229.032 266.687 229.602 266.739 230.154 266.808C230.413 266.842 230.672 266.877 230.914 266.911C231.035 266.929 231.104 266.946 231.139 266.946C231.156 266.946 231.225 266.963 231.363 266.998C232.71 267.308 234.074 267.653 235.455 267.74C236.595 267.809 237.838 266.998 238.148 265.876C238.442 264.806 238.131 263.322 237.043 262.77L237.095 262.752Z" fill="#EE9F87"/>
<path d="M244.157 263.598C241.515 262.269 238.269 261.596 235.317 261.648C232.485 261.7 229.723 262.476 227.478 264.254C225.579 265.755 224.249 268.068 223.801 270.432C223.576 271.622 223.403 272.83 223.472 274.038C223.507 274.729 223.559 275.523 223.731 276.213C223.973 277.179 224.526 277.852 225.268 278.491C226.235 279.302 227.858 278.75 228.48 277.8C229.17 276.731 229.101 275.626 229.17 274.418C229.187 273.987 229.205 273.538 229.257 273.107C229.274 272.865 229.326 272.641 229.343 272.399C229.274 273.107 229.343 272.399 229.377 272.244C229.481 271.795 229.619 271.346 229.775 270.915C229.844 270.742 229.913 270.587 229.964 270.415C229.999 270.363 230.016 270.311 230.051 270.259C230.223 269.966 230.413 269.69 230.603 269.414C230.517 269.552 230.793 269.189 230.88 269.103C231.052 268.93 231.242 268.775 231.432 268.62C231.467 268.585 231.501 268.568 231.518 268.551C231.553 268.551 231.587 268.516 231.657 268.482C231.846 268.395 232.019 268.275 232.209 268.188C232.261 268.171 232.554 268.05 232.675 267.981C232.796 267.947 232.986 267.878 233.021 267.878C233.521 267.74 234.022 267.653 234.523 267.567H234.764C235.023 267.533 235.282 267.533 235.524 267.533C236.094 267.533 236.664 267.584 237.216 267.653C237.475 267.688 237.734 267.722 237.976 267.757C238.097 267.774 238.166 267.791 238.2 267.791C238.218 267.791 238.287 267.809 238.425 267.843C239.771 268.154 241.136 268.499 242.517 268.585C243.656 268.654 244.899 267.843 245.21 266.722C245.504 265.652 245.193 264.168 244.105 263.615L244.157 263.598Z" fill="#EE9F87"/>
<path d="M250.856 264.444C248.215 263.115 244.969 262.442 242.016 262.494C239.184 262.545 236.422 263.322 234.177 265.099C232.278 266.601 230.949 268.913 230.5 271.277C230.275 272.468 230.103 273.676 230.172 274.884C230.206 275.574 230.258 276.368 230.431 277.058C230.672 278.025 231.225 278.698 231.967 279.336C232.934 280.147 234.557 279.595 235.179 278.646C235.869 277.576 235.8 276.472 235.869 275.264C235.887 274.832 235.904 274.384 235.956 273.952C235.973 273.711 236.025 273.486 236.042 273.245C235.973 273.952 236.042 273.245 236.077 273.089C236.18 272.641 236.318 272.192 236.474 271.761C236.543 271.588 236.612 271.433 236.664 271.26C236.698 271.208 236.715 271.157 236.75 271.105C236.923 270.811 237.113 270.535 237.302 270.259C237.216 270.397 237.492 270.035 237.579 269.949C237.751 269.776 237.941 269.621 238.131 269.465C238.166 269.431 238.2 269.414 238.218 269.396C238.252 269.396 238.287 269.362 238.356 269.327C238.546 269.241 238.718 269.12 238.908 269.034C238.96 269.017 239.254 268.896 239.374 268.827C239.495 268.792 239.685 268.723 239.72 268.723C240.22 268.585 240.721 268.499 241.222 268.413H241.464C241.723 268.378 241.982 268.378 242.223 268.378C242.793 268.378 243.363 268.43 243.915 268.499C244.174 268.534 244.433 268.568 244.675 268.603C244.796 268.62 244.865 268.637 244.899 268.637C244.917 268.637 244.986 268.654 245.124 268.689C246.471 268.999 247.835 269.345 249.216 269.431C250.355 269.5 251.599 268.689 251.909 267.567C252.203 266.497 251.892 265.013 250.804 264.461L250.856 264.444Z" fill="#EE9F87"/>
<path d="M227.34 268.119C229.671 269.983 235.334 272.088 238.131 273.072C243.725 275.022 250.511 272.641 253.653 267.619L249.717 257.921L221.055 258.732L227.34 268.137V268.119Z" fill="#EE9F87"/>
<path d="M229.895 260.664C227.254 259.336 224.008 258.663 221.055 258.714C218.224 258.766 215.461 259.543 213.217 261.32C211.317 262.821 209.988 265.134 209.539 267.498C209.314 268.689 209.142 269.897 209.211 271.105C209.245 271.795 209.297 272.589 209.47 273.279C209.712 274.246 210.264 274.919 211.007 275.557C211.973 276.368 213.596 275.816 214.218 274.867C214.909 273.797 214.84 272.692 214.909 271.484C214.926 271.053 214.943 270.604 214.995 270.173C215.012 269.931 215.064 269.707 215.081 269.465C215.012 270.173 215.081 269.465 215.116 269.31C215.219 268.861 215.358 268.413 215.513 267.981C215.582 267.809 215.651 267.653 215.703 267.481C215.737 267.429 215.755 267.377 215.789 267.326C215.962 267.032 216.152 266.756 216.342 266.48C216.255 266.618 216.532 266.256 216.618 266.169C216.791 265.997 216.981 265.841 217.17 265.686C217.205 265.652 217.24 265.634 217.257 265.617C217.291 265.617 217.326 265.583 217.395 265.548C217.585 265.462 217.757 265.341 217.947 265.255C217.999 265.237 218.293 265.117 218.414 265.048C218.534 265.013 218.724 264.944 218.759 264.944C219.26 264.806 219.76 264.72 220.261 264.633H220.503C220.762 264.599 221.021 264.599 221.262 264.599C221.832 264.599 222.402 264.651 222.955 264.72C223.214 264.754 223.473 264.789 223.714 264.823C223.835 264.841 223.904 264.858 223.939 264.858C223.956 264.858 224.025 264.875 224.163 264.91C225.51 265.22 226.874 265.565 228.255 265.652C229.395 265.721 230.638 264.91 230.949 263.788C231.242 262.718 230.931 261.234 229.844 260.682L229.895 260.664Z" fill="#EE9F87"/>
<path d="M310.009 255.401C307.592 250.103 302.809 246.013 297.215 244.426C296.127 244.115 295.592 245.772 296.68 246.082C301.877 247.549 306.228 251.294 308.455 256.212C308.921 257.23 310.475 256.419 310.009 255.401Z" fill="#EE815E"/>
<path d="M197.349 427.124L197.798 433.457H222.022L222.506 427.124H197.349Z" fill="#FFAB91"/>
<path d="M350.325 266.255H304.398C304.156 272.502 302.878 283.271 302.878 283.271C292.053 285.048 281.037 285.807 270.125 286.774C259.955 287.671 214.477 286.101 204.946 287.999C197.073 289.552 192.912 290.001 190.788 299.682C187.628 314.126 194.362 427.124 194.362 427.124H225.527L231.536 335.783C247.161 338.907 263.409 338.182 279.431 337.095C298.165 335.835 331.799 332.712 339.776 315.731C344.161 306.378 352.397 272.52 350.325 266.255Z" fill="#3D405B"/>
<path d="M350.325 266.256H304.398C304.156 272.503 302.878 283.271 302.878 283.271C292.053 285.048 281.037 285.808 270.125 286.774C260.87 287.585 251.633 288.362 242.379 289.155C227.426 295.385 215.565 306.671 214.408 325.084C213.217 347.777 215.858 373.351 227.737 393.318L231.518 335.766C247.144 338.89 263.391 338.165 279.414 337.078C298.147 335.818 331.781 332.694 339.758 315.714C344.144 306.36 352.38 272.503 350.308 266.238L350.325 266.256Z" fill="#27293B"/>
<path d="M197.798 433.457L173.453 442.62C168.86 444.346 165.822 448.729 165.822 453.63C165.822 454.303 166.357 454.838 167.03 454.838H219.553C222.885 454.838 225.389 451.818 224.785 448.557L222.005 433.474H197.764L197.798 433.457Z" fill="white"/>
<path d="M220.227 419.324C213.13 420.549 205.896 420.618 198.765 419.583C197.712 419.427 197.643 421.084 198.696 421.239C205.965 422.309 213.355 422.188 220.589 420.946C221.642 420.756 221.28 419.134 220.209 419.324H220.227Z" fill="#27293B"/>
<path d="M269.883 427.124L273.302 433.457H296.041L295.022 427.124H269.883Z" fill="#FFAB91"/>
<path d="M275.633 315.317C275.633 302.788 265.463 292.624 252.928 292.624C240.393 292.624 224.888 304.238 230.81 323.721L266.862 427.124H298.027L275.616 315.317H275.633Z" fill="#3D405B"/>
<path d="M381.179 266.256H333.767C333.525 272.503 334.44 280.786 336.702 283.271C318.452 286.274 267.397 289.949 249.147 292.952C240.134 304.721 258.522 321.322 266.395 333.868C284.387 339.183 318.314 338.372 337.048 337.095C355.781 335.818 374.549 332.712 382.509 315.731C386.894 306.378 387.464 295.609 385.962 285.393C384.995 278.87 383.217 272.52 381.162 266.256H381.179Z" fill="#3D405B"/>
<path d="M384.114 311.796C387.015 303.427 387.274 294.194 385.962 285.393C384.995 278.87 383.217 272.52 381.162 266.256H333.75C333.508 272.503 334.423 280.786 336.685 283.271C328 284.703 311.874 286.274 295.402 287.861C320.887 307.62 353.761 318.406 384.097 311.796H384.114Z" fill="#27293B"/>
<path d="M273.302 433.457L248.957 442.62C244.364 444.346 241.325 448.729 241.325 453.63C241.325 454.303 241.861 454.838 242.534 454.838H297.871C301.152 454.838 303.465 451.646 302.447 448.522L296.041 433.457H273.302Z" fill="white"/>
<path d="M292.743 419.324C285.647 420.549 278.413 420.618 271.282 419.583C270.229 419.427 270.159 421.084 271.213 421.239C278.482 422.309 285.871 422.188 293.106 420.946C294.159 420.756 293.796 419.134 292.726 419.324H292.743Z" fill="#27293B"/>
<path d="M378.9 142.214C357.888 133.878 334.337 133.844 313.307 142.093C303.017 146.131 296.749 157.089 297.992 168.565C302.067 206.219 300.858 243.563 295.558 281.407C323.718 301.925 358.181 307.758 390.071 296.472C398.842 257.04 401.639 210.154 397.893 168.323C396.839 156.519 389.467 146.407 378.917 142.214H378.9Z" fill="#0951FE"/>
<path d="M357.197 303.013C335.563 303.013 313.998 295.903 295.04 282.115L294.625 281.804L294.694 281.286C300.254 241.647 301.048 204.804 297.129 168.668C297.077 168.202 297.422 167.771 297.888 167.719C298.355 167.685 298.786 168.012 298.838 168.478C302.757 204.597 301.981 241.423 296.473 281.01C324.495 301.235 358.285 306.619 389.329 295.817C397.962 256.713 400.776 210.292 397.029 168.392C396.995 167.926 397.34 167.495 397.806 167.46C398.272 167.408 398.704 167.771 398.739 168.237C402.52 210.482 399.671 257.282 390.9 296.645L390.796 297.111L390.347 297.266C379.504 301.097 368.333 302.995 357.18 302.995L357.197 303.013Z" fill="#053198"/>
<path d="M395.855 172.637C395.855 160.575 387.965 150.807 378.209 150.807C368.454 150.807 360.564 160.575 360.564 172.637V210.274H394.508L395.855 172.637Z" fill="#0951FE"/>
<path d="M360.564 210.274V267.067L392.609 263.149L394.508 210.274H360.564Z" fill="#FFAB91"/>
<path d="M314.222 276.316V263.909L361.168 250.397C369.231 250.397 392.609 255.039 392.609 262.425C392.281 285.739 314.222 276.316 314.222 276.316Z" fill="#FFAB91"/>
<path d="M301.583 268.741C298.942 267.412 295.696 266.739 292.743 266.791C289.912 266.842 287.149 267.619 284.905 269.396C283.005 270.898 281.676 273.21 281.227 275.574C281.002 276.765 280.83 277.973 280.899 279.181C280.933 279.871 280.985 280.665 281.158 281.355C281.4 282.322 281.952 282.995 282.695 283.633C283.661 284.444 285.284 283.892 285.906 282.943C286.597 281.873 286.528 280.769 286.597 279.561C286.614 279.129 286.631 278.681 286.683 278.249C286.7 278.008 286.752 277.783 286.769 277.542C286.7 278.249 286.769 277.542 286.804 277.386C286.907 276.938 287.046 276.489 287.201 276.057C287.27 275.885 287.339 275.73 287.391 275.557C287.425 275.505 287.443 275.453 287.477 275.402C287.65 275.108 287.84 274.832 288.03 274.556C287.943 274.694 288.22 274.332 288.306 274.246C288.479 274.073 288.669 273.918 288.858 273.762C288.893 273.728 288.928 273.711 288.945 273.693C288.979 273.693 289.014 273.659 289.083 273.624C289.273 273.538 289.446 273.417 289.635 273.331C289.687 273.314 289.981 273.193 290.102 273.124C290.222 273.089 290.412 273.02 290.447 273.02C290.948 272.882 291.448 272.796 291.949 272.71H292.191C292.45 272.675 292.709 272.675 292.95 272.675C293.52 272.675 294.09 272.727 294.643 272.796C294.902 272.83 295.161 272.865 295.402 272.899C295.523 272.917 295.592 272.934 295.627 272.934C295.644 272.934 295.713 272.951 295.851 272.986C297.198 273.296 298.562 273.642 299.943 273.728C301.083 273.797 302.326 272.986 302.637 271.864C302.93 270.794 302.619 269.31 301.532 268.758L301.583 268.741Z" fill="#FFAB91"/>
<path d="M308.645 269.586C306.003 268.257 302.758 267.584 299.805 267.636C296.973 267.688 294.211 268.464 291.966 270.242C290.067 271.743 288.738 274.056 288.289 276.42C288.064 277.611 287.892 278.819 287.961 280.027C287.995 280.717 288.047 281.511 288.22 282.201C288.461 283.167 289.014 283.84 289.756 284.479C290.723 285.29 292.346 284.738 292.968 283.789C293.658 282.719 293.589 281.614 293.658 280.406C293.676 279.975 293.693 279.526 293.745 279.095C293.762 278.853 293.814 278.629 293.831 278.387C293.762 279.095 293.831 278.387 293.866 278.232C293.969 277.783 294.107 277.335 294.263 276.903C294.332 276.731 294.401 276.575 294.453 276.403C294.487 276.351 294.504 276.299 294.539 276.247C294.712 275.954 294.902 275.678 295.091 275.402C295.005 275.54 295.281 275.177 295.368 275.091C295.54 274.919 295.73 274.763 295.92 274.608C295.955 274.573 295.989 274.556 296.007 274.539C296.041 274.539 296.076 274.504 296.145 274.47C296.335 274.384 296.507 274.263 296.697 274.177C296.749 274.159 297.042 274.038 297.163 273.969C297.284 273.935 297.474 273.866 297.509 273.866C298.009 273.728 298.51 273.642 299.011 273.555H299.253C299.512 273.521 299.77 273.521 300.012 273.521C300.582 273.521 301.152 273.573 301.704 273.642C301.963 273.676 302.222 273.711 302.464 273.745C302.585 273.762 302.654 273.78 302.688 273.78C302.706 273.78 302.775 273.797 302.913 273.831C304.26 274.142 305.624 274.487 307.005 274.573C308.144 274.642 309.388 273.831 309.698 272.71C309.992 271.64 309.681 270.156 308.593 269.603L308.645 269.586Z" fill="#FFAB91"/>
<path d="M315.344 270.432C312.703 269.103 309.457 268.43 306.504 268.482C303.673 268.534 300.91 269.31 298.665 271.088C296.766 272.589 295.437 274.901 294.988 277.265C294.763 278.456 294.591 279.664 294.66 280.872C294.694 281.562 294.746 282.356 294.919 283.047C295.16 284.013 295.713 284.686 296.455 285.324C297.422 286.135 299.045 285.583 299.667 284.634C300.358 283.564 300.288 282.46 300.358 281.252C300.375 280.82 300.392 280.372 300.444 279.94C300.461 279.699 300.513 279.474 300.53 279.233C300.461 279.94 300.53 279.233 300.565 279.077C300.668 278.629 300.806 278.18 300.962 277.749C301.031 277.576 301.1 277.421 301.152 277.248C301.186 277.196 301.204 277.145 301.238 277.093C301.411 276.8 301.601 276.523 301.791 276.247C301.704 276.385 301.981 276.023 302.067 275.937C302.24 275.764 302.429 275.609 302.619 275.453C302.654 275.419 302.688 275.402 302.706 275.384C302.74 275.384 302.775 275.35 302.844 275.315C303.034 275.229 303.206 275.108 303.396 275.022C303.448 275.005 303.742 274.884 303.863 274.815C303.983 274.78 304.173 274.711 304.208 274.711C304.709 274.573 305.209 274.487 305.71 274.401H305.952C306.211 274.366 306.47 274.366 306.711 274.366C307.281 274.366 307.851 274.418 308.403 274.487C308.662 274.522 308.921 274.556 309.163 274.591C309.284 274.608 309.353 274.625 309.388 274.625C309.405 274.625 309.474 274.642 309.612 274.677C310.959 274.988 312.323 275.333 313.704 275.419C314.844 275.488 316.087 274.677 316.398 273.555C316.691 272.485 316.38 271.001 315.293 270.449L315.344 270.432Z" fill="#FFAB91"/>
<path d="M291.828 274.107C294.159 275.971 299.822 278.077 302.619 279.06C308.214 281.01 314.999 278.629 318.141 273.607L314.205 263.909L285.543 264.72L291.828 274.125V274.107Z" fill="#FFAB91"/>
<path d="M294.384 266.653C291.742 265.324 288.496 264.651 285.543 264.702C282.712 264.754 279.949 265.531 277.705 267.308C275.805 268.81 274.476 271.122 274.027 273.486C273.803 274.677 273.63 275.885 273.699 277.093C273.734 277.783 273.785 278.577 273.958 279.267C274.2 280.234 274.752 280.907 275.495 281.545C276.462 282.356 278.085 281.804 278.706 280.855C279.397 279.785 279.328 278.681 279.397 277.473C279.414 277.041 279.431 276.592 279.483 276.161C279.5 275.919 279.552 275.695 279.569 275.453C279.5 276.161 279.569 275.454 279.604 275.298C279.708 274.85 279.846 274.401 280.001 273.969C280.07 273.797 280.139 273.642 280.191 273.469C280.225 273.417 280.243 273.365 280.277 273.314C280.45 273.02 280.64 272.744 280.83 272.468C280.743 272.606 281.02 272.244 281.106 272.157C281.279 271.985 281.469 271.83 281.659 271.674C281.693 271.64 281.728 271.622 281.745 271.605C281.779 271.605 281.814 271.571 281.883 271.536C282.073 271.45 282.246 271.329 282.436 271.243C282.487 271.226 282.781 271.105 282.902 271.036C283.023 271.001 283.213 270.932 283.247 270.915C283.748 270.777 284.248 270.691 284.749 270.604H284.991C285.25 270.57 285.509 270.57 285.751 270.57C286.32 270.57 286.89 270.622 287.443 270.691C287.702 270.725 287.961 270.76 288.202 270.794C288.323 270.811 288.392 270.829 288.427 270.829C288.444 270.829 288.513 270.846 288.651 270.88C289.998 271.191 291.362 271.536 292.743 271.622C293.883 271.692 295.126 270.88 295.437 269.759C295.73 268.689 295.419 267.205 294.332 266.653H294.384Z" fill="#FFAB91"/>
<path d="M374.497 261.389C372.08 256.091 367.297 252.001 361.703 250.414C360.616 250.103 360.08 251.76 361.168 252.07C366.365 253.537 370.716 257.282 372.943 262.2C373.41 263.218 374.963 262.407 374.497 261.389Z" fill="#FF8A65"/>
<path d="M264.099 316.3C263.184 315.99 262.735 317.405 263.633 317.716C271.834 320.511 277.877 328.173 278.758 336.767C278.861 337.716 280.312 337.371 280.208 336.439C279.259 327.345 272.732 319.234 264.082 316.3H264.099Z" fill="#27293B"/>
<path d="M385.789 293.487C374.946 296.645 363.602 297.905 352.328 297.301C341.053 296.697 329.899 294.229 319.436 290.018C313.514 287.637 307.851 284.686 302.498 281.2C301.687 280.682 300.893 281.925 301.687 282.443C311.287 288.689 321.974 293.245 333.111 295.955C344.196 298.647 355.695 299.527 367.056 298.509C373.513 297.939 379.884 296.748 386.1 294.936C387.015 294.678 386.687 293.211 385.772 293.487H385.789Z" fill="#053198"/>
<path d="M274.476 316.3C274.096 315.42 272.784 316.111 273.164 316.991C274.562 320.2 275.46 323.6 275.857 327.069C275.909 327.466 276.392 327.707 276.755 327.621C277.187 327.535 277.359 327.12 277.308 326.724C276.893 323.117 275.926 319.614 274.476 316.283V316.3Z" fill="#27293B"/>
<path d="M277.29 288.206H189.269L176.043 230.741H264.065L277.29 288.206Z" fill="#B8B8B8"/>
<path d="M274.959 288.206H186.938L173.712 230.741H261.734L274.959 288.206Z" fill="#E5E5E5"/>
<path d="M331.419 284.858H274.959V289.086H331.419V284.858Z" fill="#B8B8B8"/>
<path d="M354.262 147.684C351.05 152.792 345.249 156.192 339.171 156.312C333.819 156.433 327.758 153.62 326.153 148.15C325.877 147.235 324.426 147.563 324.702 148.478C326.066 153.085 330.21 156.192 334.751 157.296C339.707 158.521 345.059 157.382 349.324 154.673C351.81 153.085 353.934 150.98 355.505 148.478C356.023 147.667 354.762 146.856 354.262 147.667V147.684Z" fill="#053198"/>
<path d="M394.526 208.618H359.528C358.578 208.618 358.509 210.102 359.459 210.102H394.457C395.406 210.102 395.475 208.618 394.526 208.618Z" fill="#053198"/>
<path d="M356.748 184.614L358.233 208.825C358.233 209.774 359.718 209.843 359.718 208.894L358.233 184.683C358.233 183.733 356.748 183.664 356.748 184.614Z" fill="#053198"/>
<path d="M395.924 190.619C395.199 196.883 394.457 203.13 393.731 209.394C393.628 210.343 395.113 210.413 395.216 209.463C395.942 203.199 396.684 196.952 397.409 190.688C397.513 189.739 396.028 189.67 395.924 190.619Z" fill="#053198"/>
<path d="M301.566 76.6376C299.891 78.1044 298.648 80.0717 298.044 82.2288C297.094 85.5939 297.785 89.4594 300.133 92.0652C302.464 94.671 306.435 95.7927 309.698 94.4811C308.455 88.8727 307.229 83.2642 305.986 77.673L301.583 76.6376H301.566Z" fill="#74342E"/>
<path d="M303.189 76.6376C301.514 78.1044 300.271 80.0717 299.667 82.2288C298.717 85.5939 299.408 89.4594 301.756 92.0652C304.087 94.671 308.058 95.7927 311.321 94.4811C310.078 88.8727 308.852 83.2642 307.609 77.673L303.206 76.6376H303.189Z" fill="#4E342E"/>
<path d="M348.926 126.596L346.647 104.956L324.461 107.286L327.931 140.246C336.288 139.004 344.109 133.689 348.909 126.596H348.926Z" fill="#FF8A65"/>
<path d="M350.498 141.575L348.927 126.596C344.109 133.706 336.288 139.021 327.948 140.246L328.328 143.887C328.967 150.014 334.458 154.449 340.587 153.81C346.716 153.172 351.154 147.684 350.515 141.558L350.498 141.575Z" fill="#FFAB91"/>
<path d="M326.222 130.876C315.103 131.825 305.296 123.473 304.346 112.238L301.428 77.8973L341.727 74.4805L344.645 108.822C345.594 120.056 337.341 129.927 326.222 130.876Z" fill="#FFAB91"/>
<path d="M354.158 100.435C354.486 104.352 351.585 107.803 347.666 108.131C343.747 108.459 340.294 105.56 339.965 101.643C339.637 97.7254 342.538 94.274 346.457 93.9462C350.377 93.6183 353.83 96.5174 354.158 100.435Z" fill="#FFAB91"/>
<path d="M326.757 98.0188C326.757 97.898 326.723 97.7772 326.688 97.6564C326.567 97.2595 326.36 96.9316 326.049 96.6555C325.756 96.3794 325.41 96.2068 325.013 96.1033C324.806 96.0515 324.599 96.0515 324.392 96.0343C324.184 96.0343 323.96 96.0688 323.753 96.1378L323.2 96.3966L322.734 96.7763C322.596 96.9144 322.475 97.0869 322.389 97.2767C322.337 97.363 322.285 97.5356 322.285 97.5701C322.251 97.6737 322.216 97.7599 322.182 97.8635C322.182 97.8635 322.13 98.4847 322.13 98.502L322.233 99.1232C322.32 99.313 322.406 99.4856 322.492 99.6754L322.872 100.141L323.356 100.487C323.546 100.556 323.736 100.625 323.925 100.694C324.133 100.711 324.34 100.728 324.547 100.745L325.169 100.642C325.479 100.556 325.738 100.4 325.946 100.193C326.118 100.09 326.256 99.9343 326.343 99.7617C326.481 99.6064 326.584 99.4338 326.619 99.2268C326.723 99.0369 326.757 98.8471 326.757 98.6228C326.809 98.4157 326.792 98.2086 326.74 98.0015L326.757 98.0188Z" fill="#3E2723"/>
<path d="M309.198 99.7099C309.198 99.5892 309.163 99.4684 309.129 99.3476C309.008 98.9507 308.801 98.6228 308.49 98.3467C308.196 98.0706 307.851 97.898 307.454 97.7944C307.247 97.7427 307.039 97.7427 306.832 97.7254C306.625 97.7254 306.401 97.7599 306.193 97.829L305.641 98.0878L305.175 98.4675C305.037 98.6055 304.916 98.7781 304.829 98.9679C304.778 99.0542 304.726 99.2268 304.726 99.2613L304.622 99.5546C304.622 99.5546 304.57 100.176 304.57 100.193C304.605 100.4 304.639 100.607 304.674 100.814C304.76 101.004 304.847 101.177 304.933 101.367L305.313 101.833C305.468 101.953 305.641 102.057 305.796 102.178C305.986 102.247 306.176 102.316 306.366 102.385C306.573 102.402 306.78 102.419 306.988 102.437L307.609 102.333C307.92 102.247 308.179 102.091 308.386 101.884C308.559 101.781 308.697 101.625 308.783 101.453C308.921 101.298 309.025 101.125 309.06 100.918C309.163 100.728 309.198 100.538 309.198 100.314C309.249 100.107 309.232 99.8998 309.18 99.6927L309.198 99.7099Z" fill="#3E2723"/>
<path d="M329.52 89.3386C327.931 88.0443 325.963 87.3023 323.908 87.3023C321.785 87.3023 319.799 88.1824 318.228 89.5629C317.831 89.9081 317.917 90.6156 318.28 90.9435C318.694 91.3231 319.264 91.2368 319.661 90.8917C322.061 88.7691 325.756 88.7519 328.207 90.7709C329.174 91.5647 330.504 90.1324 329.52 89.3386Z" fill="#3E2723"/>
<path d="M311.408 89.9081C309.819 88.6138 307.851 87.8718 305.796 87.8718C303.673 87.8718 301.687 88.7519 300.116 90.1324C299.719 90.4775 299.805 91.1678 300.168 91.513C300.582 91.8926 301.152 91.8063 301.549 91.4612C303.949 89.3386 307.644 89.3213 310.096 91.3404C311.062 92.1342 312.392 90.7019 311.408 89.9081Z" fill="#3E2723"/>
<path d="M304.553 108.511C300.029 108.511 296.369 104.835 296.369 100.331C296.369 95.8272 300.047 92.1515 304.553 92.1515C309.06 92.1515 312.737 95.8272 312.737 100.331C312.737 104.835 309.06 108.511 304.553 108.511ZM304.553 92.8762C300.444 92.8762 297.112 96.2068 297.112 100.314C297.112 104.421 300.444 107.752 304.553 107.752C308.662 107.752 311.995 104.421 311.995 100.314C311.995 96.2068 308.662 92.8762 304.553 92.8762Z" fill="black"/>
<path d="M324.564 106.613C320.041 106.613 316.38 102.937 316.38 98.4329C316.38 93.9289 320.058 90.2532 324.564 90.2532C329.071 90.2532 332.748 93.9289 332.748 98.4329C332.748 102.937 329.071 106.613 324.564 106.613ZM324.564 90.978C320.455 90.978 317.123 94.3086 317.123 98.4157C317.123 102.523 320.455 105.853 324.564 105.853C328.674 105.853 332.006 102.523 332.006 98.4157C332.006 94.3086 328.674 90.978 324.564 90.978Z" fill="black"/>
<path d="M311.08 96.1378L310.752 95.4648C312.806 94.4639 315.241 94.205 317.468 94.74L317.295 95.4648C315.241 94.9643 312.979 95.2059 311.08 96.1378Z" fill="black"/>
<path d="M331.54 95.4648L331.35 94.74C336.547 93.3422 341.899 92.7555 347.269 92.9798L347.234 93.7218C341.934 93.4975 336.65 94.0842 331.522 95.4648H331.54Z" fill="black"/>
<path d="M352.276 97.967C351.257 96.3276 349.393 95.3958 347.459 95.6201C345.629 95.8272 344.057 97.2077 343.47 98.9334C343.16 99.848 344.575 100.297 344.886 99.3993C345.301 98.1741 346.406 97.2595 347.683 97.1042C348.944 96.9316 350.29 97.6046 350.947 98.6918C351.447 99.5029 352.777 98.8126 352.259 98.0015L352.276 97.967Z" fill="#FF8A65"/>
<path d="M343.142 94.5674C340.535 92.6692 337.894 90.7364 335.684 88.3895C333.474 86.0425 331.643 83.2124 330.987 80.0372C325.203 81.0898 319.281 82.781 313.462 83.5921C307.644 84.4031 301.273 83.8337 296.628 80.2442C291.915 76.6031 289.722 69.9937 291.345 64.2644C292.968 58.5352 298.286 54.0484 304.208 53.3926C310.13 52.7541 316.294 56.0157 319.091 61.2617C325.082 58.259 332.938 57.6896 338.912 60.7095C341.347 61.9348 343.781 64.1091 343.609 66.8357C348.08 67.1636 351.793 69.8211 354.054 73.6694C356.334 77.5177 356.593 82.5049 354.711 86.5775C352.829 90.6501 347.545 93.7909 343.142 94.5674Z" fill="#74342E"/>
<path d="M343.142 94.5674C340.742 92.8072 336.754 91.047 334.717 88.8727C332.662 86.6983 331.005 84.0925 330.383 81.1761C325.048 82.1425 319.592 83.7129 314.222 84.4549C308.852 85.197 302.999 84.6793 298.717 81.3659C294.366 78.0181 292.363 71.9264 293.848 66.6459C295.333 61.3653 300.237 57.2236 305.693 56.6369C311.149 56.0502 316.829 59.0529 319.402 63.8848C324.91 61.1237 332.161 60.5887 337.669 63.3671C339.914 64.506 342.141 66.4906 342.003 69.0101C346.112 69.3207 349.531 71.7539 351.637 75.3088C353.726 78.8637 353.968 83.454 352.242 87.1987C350.515 90.9435 347.2 93.8426 343.125 94.5674H343.142Z" fill="#4E342E"/>
<path d="M315.12 117.312C315.068 116.863 314.688 116.673 314.291 116.673C313.1 116.673 311.908 115.931 311.339 114.896C310.734 113.809 310.872 112.411 311.563 111.393C312.375 110.185 313.877 109.978 314.93 109.063C315.931 108.2 316.415 106.82 315.69 105.629C315.189 104.801 314.015 105.698 314.498 106.509C314.792 106.992 314.291 107.665 313.929 107.959C313.324 108.442 312.564 108.701 311.908 109.098C310.631 109.84 309.785 111.117 309.543 112.566C309.042 115.586 311.529 118.14 314.481 118.158C314.878 118.158 315.172 117.692 315.12 117.329V117.312Z" fill="#3E2723"/>
<path d="M328.052 118.088C326.049 121.816 321.681 123.507 317.692 122.075C316.795 121.747 316.328 123.162 317.226 123.49C321.802 125.129 326.999 123.179 329.295 118.9C329.744 118.054 328.501 117.243 328.052 118.088Z" fill="#3E2723"/>
<path d="M328.587 124.594C328.501 124.232 328.087 123.904 327.689 124.042C325.825 124.663 323.977 125.285 322.113 125.889C321.733 126.009 321.456 126.354 321.56 126.786C321.646 127.148 322.061 127.476 322.458 127.338C324.323 126.717 326.17 126.096 328.035 125.492C328.415 125.371 328.691 125.026 328.587 124.594Z" fill="#FF8A65"/>
<path d="M199.076 288.983C195.588 289.155 192.808 291.589 191.375 294.66C189.545 298.629 189.839 303.272 189.787 307.517C189.683 317.094 189.666 326.689 189.769 336.267C189.959 355.353 190.529 374.456 191.496 393.525C192.049 404.31 192.722 415.096 193.516 425.864C193.602 426.951 195.329 427.055 195.243 425.933C193.879 407.537 192.877 389.107 192.238 370.659C191.6 352.212 191.341 333.764 191.444 315.317C191.444 312.746 191.479 310.174 191.513 307.586C191.548 305.084 191.496 302.564 191.755 300.062C192.169 296.058 194.276 290.933 198.989 290.691C200.094 290.64 200.181 288.914 199.059 288.966L199.076 288.983Z" fill="#27293B"/>
<path d="M284.456 355.974L280.64 336.284C280.433 335.197 278.741 335.576 278.965 336.663L292.45 406.329L296.266 426.019C296.473 427.107 298.165 426.727 297.958 425.64C293.468 402.412 288.962 379.202 284.473 355.974H284.456Z" fill="#27293B"/>
<path d="M277.29 289.069H186.938C186.541 289.069 186.195 288.793 186.092 288.396L181.551 268.672C181.447 268.206 181.741 267.74 182.19 267.636C182.656 267.533 183.122 267.826 183.226 268.292L187.611 287.343H276.203L263.374 231.587H174.783L179.565 252.381C179.669 252.847 179.375 253.313 178.926 253.417C178.46 253.52 177.994 253.227 177.891 252.761L172.866 230.914C172.814 230.655 172.866 230.396 173.039 230.189C173.211 229.982 173.453 229.861 173.712 229.861H264.065C264.462 229.861 264.824 230.137 264.911 230.534L278.136 288.016C278.188 288.275 278.136 288.534 277.964 288.741C277.791 288.948 277.549 289.069 277.29 289.069Z" fill="#B8B8B8"/>
</g>
<defs>
<clipPath id="clip0_670_25482">
<rect width="595" height="520" fill="white"/>
</clipPath>
</defs>
</svg>
